<svg width="24" height="25" viewBox="0 0 24 25" fill="none" xmlns="http://www.w3.org/2000/svg">
<path d="M17.828 20.2692L16.9547 19.3945C16.8391 19.2798 16.7027 19.2225 16.5453 19.2225C16.3871 19.2225 16.2507 19.2798 16.136 19.3945C16.0213 19.5083 15.964 19.6429 15.964 19.7985C15.964 19.954 16.0213 20.0892 16.136 20.2038L17.2827 21.3505C17.448 21.5167 17.6342 21.5998 17.8413 21.5998C18.0484 21.5998 18.2347 21.5167 18.4 21.3505L21.1973 18.5945C21.312 18.4798 21.3738 18.3478 21.3827 18.1985C21.3916 18.0483 21.3298 17.9074 21.1973 17.7758C21.0827 17.6612 20.9422 17.6038 20.776 17.6038C20.6098 17.6038 20.4689 17.6616 20.3533 17.7772L17.828 20.2692ZM4.36 7.12649H16.976C17.1653 7.12649 17.3236 7.06294 17.4507 6.93582C17.5778 6.80871 17.6418 6.65005 17.6427 6.45982C17.6427 6.25271 17.5787 6.09005 17.4507 5.97182C17.3236 5.85271 17.1653 5.79316 16.976 5.79316H4.35867C4.16933 5.79316 4.01067 5.85671 3.88267 5.98382C3.75467 6.11094 3.69111 6.2696 3.692 6.45982C3.69289 6.65005 3.75644 6.80871 3.88267 6.93582C4.00889 7.06294 4.16889 7.12649 4.36 7.12649ZM18.6667 24.9745C17.1813 24.9745 15.9213 24.4567 14.8867 23.4212C13.8511 22.3865 13.3333 21.1265 13.3333 19.6412C13.3333 18.1558 13.8511 16.8954 14.8867 15.8598C15.9222 14.8243 17.1822 14.3069 18.6667 14.3078C20.1511 14.3087 21.4116 14.826 22.448 15.8598C23.4844 16.8936 24.0018 18.154 24 19.6412C24 21.1256 23.4827 22.3856 22.448 23.4212C21.4116 24.4567 20.1511 24.9745 18.6667 24.9745ZM0 2.97449C0 2.37716 0.209778 1.86871 0.629333 1.44916C1.04889 1.0296 1.55733 0.819824 2.15467 0.819824H19.18C19.7756 0.819824 20.2836 1.0296 20.704 1.44916C21.1236 1.86871 21.3333 2.37716 21.3333 2.97449V10.0638C21.3333 10.2532 21.2698 10.4118 21.1427 10.5398C21.0156 10.6678 20.8569 10.7314 20.6667 10.7305C20.4764 10.7296 20.3178 10.666 20.1907 10.5398C20.0636 10.4136 20 10.2549 20 10.0638V2.97449C20 2.76916 19.9147 2.58071 19.744 2.40916C19.5733 2.2376 19.3849 2.15227 19.1787 2.15316H2.15467C1.94933 2.15316 1.76089 2.23849 1.58933 2.40916C1.41778 2.57982 1.33244 2.76827 1.33333 2.97449V20.8865H9.792C9.81956 21.066 9.852 21.2456 9.88933 21.4252C9.92756 21.6047 9.97645 21.7816 10.036 21.9558C10.0956 22.1149 10.0556 22.2452 9.916 22.3465C9.77556 22.4487 9.64222 22.4532 9.516 22.3598L9.184 22.1332C9.08533 22.0683 8.98133 22.0358 8.872 22.0358C8.76267 22.0358 8.65822 22.0683 8.55867 22.1332L7.38933 22.9425C7.29067 23.0083 7.18667 23.0412 7.07733 23.0412C6.968 23.0412 6.86356 23.0083 6.764 22.9425L5.59467 22.1332C5.49511 22.0683 5.39067 22.0358 5.28133 22.0358C5.172 22.0358 5.068 22.0683 4.96933 22.1332L3.8 22.9425C3.70133 23.0083 3.59733 23.0412 3.488 23.0412C3.37867 23.0412 3.27422 23.0083 3.17467 22.9425L2.00533 22.1332C1.90578 22.0683 1.80133 22.0358 1.692 22.0358C1.58267 22.0358 1.47867 22.0683 1.38 22.1332L0 23.2038V2.97449ZM4.36 17.1785H9.52533C9.71556 17.1785 9.87422 17.1149 10.0013 16.9878C10.1284 16.8607 10.192 16.702 10.192 16.5118C10.192 16.3216 10.1284 16.1634 10.0013 16.0372C9.87422 15.9109 9.71556 15.8469 9.52533 15.8452H4.36C4.17067 15.8452 4.012 15.9092 3.884 16.0372C3.756 16.1652 3.69244 16.3234 3.69333 16.5118C3.69422 16.7003 3.75778 16.8589 3.884 16.9878C4.01022 17.1167 4.16889 17.1803 4.36 17.1785ZM4.36 12.1532H13.9653C14.1547 12.1532 14.3133 12.0896 14.4413 11.9625C14.5693 11.8354 14.6329 11.6767 14.632 11.4865C14.6311 11.2963 14.5676 11.1376 14.4413 11.0105C14.3151 10.8834 14.1564 10.8198 13.9653 10.8198H4.35867C4.16933 10.8198 4.01067 10.8834 3.88267 11.0105C3.75467 11.1376 3.69156 11.2963 3.69333 11.4865C3.69511 11.6767 3.75867 11.8354 3.884 11.9625C4.00933 12.0896 4.168 12.1532 4.36 12.1532Z" fill="#13293D"/>
</svg>
