<svg width="496" height="191" viewBox="0 0 496 191" fill="none" xmlns="http://www.w3.org/2000/svg">
<g filter="url(#filter0_b_461_7529)">
<path d="M0 69.6821C0 58.6364 8.95431 49.6821 20 49.6821H25.2659C36.3116 49.6821 45.2659 58.6364 45.2659 69.6821V121.318C45.2659 132.364 36.3116 141.318 25.2659 141.318H20C8.95432 141.318 0 132.364 0 121.318V69.6821Z" fill="white" fill-opacity="0.1"/>
<path d="M20 49.9321H25.2659C36.1735 49.9321 45.0159 58.7744 45.0159 69.6821V121.318C45.0159 132.226 36.1735 141.068 25.2659 141.068H20C9.09239 141.068 0.25 132.226 0.25 121.318V69.6821C0.25 58.7745 9.09238 49.9321 20 49.9321Z" stroke="white" stroke-opacity="0.25" stroke-width="0.5"/>
</g>
<g filter="url(#filter1_b_461_7529)">
<path d="M56.3066 44.289C56.3066 33.2433 65.2609 24.289 76.3066 24.289H81.5725C92.6182 24.289 101.573 33.2433 101.573 44.289V146.711C101.573 157.757 92.6182 166.711 81.5725 166.711H76.3067C65.261 166.711 56.3066 157.757 56.3066 146.711V44.289Z" fill="white" fill-opacity="0.1"/>
<path d="M76.3066 24.539H81.5725C92.4801 24.539 101.323 33.3814 101.323 44.289V146.711C101.323 157.619 92.4802 166.461 81.5725 166.461H76.3067C65.399 166.461 56.5566 157.619 56.5566 146.711V44.289C56.5566 33.3814 65.399 24.539 76.3066 24.539Z" stroke="white" stroke-opacity="0.25" stroke-width="0.5"/>
</g>
<g filter="url(#filter2_b_461_7529)">
<path d="M112.613 69.6821C112.613 58.6364 121.568 49.6821 132.613 49.6821H137.879C148.925 49.6821 157.879 58.6364 157.879 69.6821V121.318C157.879 132.364 148.925 141.318 137.879 141.318H132.613C121.568 141.318 112.613 132.364 112.613 121.318V69.6821Z" fill="white" fill-opacity="0.1"/>
<path d="M132.613 49.9321H137.879C148.787 49.9321 157.629 58.7744 157.629 69.6821V121.318C157.629 132.226 148.787 141.068 137.879 141.068H132.613C121.706 141.068 112.863 132.226 112.863 121.318V69.6821C112.863 58.7745 121.706 49.9321 132.613 49.9321Z" stroke="white" stroke-opacity="0.25" stroke-width="0.5"/>
</g>
<g filter="url(#filter3_b_461_7529)">
<path d="M168.92 20C168.92 8.95431 177.874 0 188.92 0H194.186C205.232 0 214.186 8.95431 214.186 20V171C214.186 182.046 205.232 191 194.186 191H188.92C177.874 191 168.92 182.046 168.92 171V20Z" fill="white" fill-opacity="0.1"/>
<path d="M188.92 0.25H194.186C205.093 0.25 213.936 9.09238 213.936 20V171C213.936 181.908 205.093 190.75 194.186 190.75H188.92C178.012 190.75 169.17 181.908 169.17 171V20C169.17 9.09238 178.012 0.25 188.92 0.25Z" stroke="white" stroke-opacity="0.25" stroke-width="0.5"/>
</g>
<g filter="url(#filter4_b_461_7529)">
<path d="M225.225 44.289C225.225 33.2433 234.179 24.289 245.225 24.289H250.49C261.536 24.289 270.491 33.2433 270.491 44.289V146.711C270.491 157.757 261.536 166.711 250.491 166.711H245.225C234.179 166.711 225.225 157.757 225.225 146.711V44.289Z" fill="white" fill-opacity="0.1"/>
<path d="M245.225 24.539H250.49C261.398 24.539 270.241 33.3814 270.241 44.289V146.711C270.241 157.619 261.398 166.461 250.491 166.461H245.225C234.317 166.461 225.475 157.619 225.475 146.711V44.289C225.475 33.3814 234.317 24.539 245.225 24.539Z" stroke="white" stroke-opacity="0.25" stroke-width="0.5"/>
</g>
<g filter="url(#filter5_b_461_7529)">
<path d="M281.531 57.5376C281.531 46.4919 290.486 37.5376 301.531 37.5376H306.797C317.843 37.5376 326.797 46.4919 326.797 57.5376V133.462C326.797 144.508 317.843 153.462 306.797 153.462H301.531C290.486 153.462 281.531 144.508 281.531 133.462V57.5376Z" fill="white" fill-opacity="0.1"/>
<path d="M301.531 37.7876H306.797C317.705 37.7876 326.547 46.63 326.547 57.5376V133.462C326.547 144.37 317.705 153.212 306.797 153.212H301.531C290.624 153.212 281.781 144.37 281.781 133.462V57.5376C281.781 46.63 290.624 37.7876 301.531 37.7876Z" stroke="white" stroke-opacity="0.25" stroke-width="0.5"/>
</g>
<g filter="url(#filter6_b_461_7529)">
<path d="M337.838 31.0405C337.838 19.9948 346.792 11.0405 357.838 11.0405H363.104C374.149 11.0405 383.104 19.9948 383.104 31.0405V159.96C383.104 171.005 374.149 179.96 363.104 179.96H357.838C346.792 179.96 337.838 171.005 337.838 159.96V31.0405Z" fill="white" fill-opacity="0.1"/>
<path d="M357.838 11.2905H363.104C374.011 11.2905 382.854 20.1328 382.854 31.0405V159.96C382.854 170.867 374.011 179.71 363.104 179.71H357.838C346.93 179.71 338.088 170.867 338.088 159.96V31.0405C338.088 20.1329 346.93 11.2905 357.838 11.2905Z" stroke="white" stroke-opacity="0.25" stroke-width="0.5"/>
</g>
<g filter="url(#filter7_b_461_7529)">
<path d="M394.145 20C394.145 8.95431 403.099 0 414.145 0H419.41C430.456 0 439.41 8.95431 439.41 20V171C439.41 182.046 430.456 191 419.41 191H414.145C403.099 191 394.145 182.046 394.145 171V20Z" fill="white" fill-opacity="0.1"/>
<path d="M414.145 0.25H419.41C430.318 0.25 439.16 9.09238 439.16 20V171C439.16 181.908 430.318 190.75 419.41 190.75H414.145C403.237 190.75 394.395 181.908 394.395 171V20C394.395 9.09238 403.237 0.25 414.145 0.25Z" stroke="white" stroke-opacity="0.25" stroke-width="0.5"/>
</g>
<g filter="url(#filter8_b_461_7529)">
<path d="M450.451 86.2428C450.451 75.1971 459.405 66.2428 470.451 66.2428H475.717C486.763 66.2428 495.717 75.1971 495.717 86.2428V104.757C495.717 115.803 486.763 124.757 475.717 124.757H470.451C459.405 124.757 450.451 115.803 450.451 104.757V86.2428Z" fill="white" fill-opacity="0.1"/>
<path d="M470.451 66.4928H475.717C486.625 66.4928 495.467 75.3352 495.467 86.2428V104.757C495.467 115.665 486.625 124.507 475.717 124.507H470.451C459.544 124.507 450.701 115.665 450.701 104.757V86.2428C450.701 75.3352 459.544 66.4928 470.451 66.4928Z" stroke="white" stroke-opacity="0.25" stroke-width="0.5"/>
</g>
<defs>
<filter id="filter0_b_461_7529" x="-15" y="34.6821" width="75.2656" height="121.636" filterUnits="userSpaceOnUse" color-interpolation-filters="sRGB">
<feFlood flood-opacity="0" result="BackgroundImageFix"/>
<feGaussianBlur in="BackgroundImageFix" stdDeviation="7.5"/>
<feComposite in2="SourceAlpha" operator="in" result="effect1_backgroundBlur_461_7529"/>
<feBlend mode="normal" in="SourceGraphic" in2="effect1_backgroundBlur_461_7529" result="shape"/>
</filter>
<filter id="filter1_b_461_7529" x="41.3066" y="9.289" width="75.2656" height="172.422" filterUnits="userSpaceOnUse" color-interpolation-filters="sRGB">
<feFlood flood-opacity="0" result="BackgroundImageFix"/>
<feGaussianBlur in="BackgroundImageFix" stdDeviation="7.5"/>
<feComposite in2="SourceAlpha" operator="in" result="effect1_backgroundBlur_461_7529"/>
<feBlend mode="normal" in="SourceGraphic" in2="effect1_backgroundBlur_461_7529" result="shape"/>
</filter>
<filter id="filter2_b_461_7529" x="97.6133" y="34.6821" width="75.2656" height="121.636" filterUnits="userSpaceOnUse" color-interpolation-filters="sRGB">
<feFlood flood-opacity="0" result="BackgroundImageFix"/>
<feGaussianBlur in="BackgroundImageFix" stdDeviation="7.5"/>
<feComposite in2="SourceAlpha" operator="in" result="effect1_backgroundBlur_461_7529"/>
<feBlend mode="normal" in="SourceGraphic" in2="effect1_backgroundBlur_461_7529" result="shape"/>
</filter>
<filter id="filter3_b_461_7529" x="153.92" y="-15" width="75.2656" height="221" filterUnits="userSpaceOnUse" color-interpolation-filters="sRGB">
<feFlood flood-opacity="0" result="BackgroundImageFix"/>
<feGaussianBlur in="BackgroundImageFix" stdDeviation="7.5"/>
<feComposite in2="SourceAlpha" operator="in" result="effect1_backgroundBlur_461_7529"/>
<feBlend mode="normal" in="SourceGraphic" in2="effect1_backgroundBlur_461_7529" result="shape"/>
</filter>
<filter id="filter4_b_461_7529" x="210.225" y="9.289" width="75.2656" height="172.422" filterUnits="userSpaceOnUse" color-interpolation-filters="sRGB">
<feFlood flood-opacity="0" result="BackgroundImageFix"/>
<feGaussianBlur in="BackgroundImageFix" stdDeviation="7.5"/>
<feComposite in2="SourceAlpha" operator="in" result="effect1_backgroundBlur_461_7529"/>
<feBlend mode="normal" in="SourceGraphic" in2="effect1_backgroundBlur_461_7529" result="shape"/>
</filter>
<filter id="filter5_b_461_7529" x="266.531" y="22.5376" width="75.2656" height="145.925" filterUnits="userSpaceOnUse" color-interpolation-filters="sRGB">
<feFlood flood-opacity="0" result="BackgroundImageFix"/>
<feGaussianBlur in="BackgroundImageFix" stdDeviation="7.5"/>
<feComposite in2="SourceAlpha" operator="in" result="effect1_backgroundBlur_461_7529"/>
<feBlend mode="normal" in="SourceGraphic" in2="effect1_backgroundBlur_461_7529" result="shape"/>
</filter>
<filter id="filter6_b_461_7529" x="322.838" y="-3.95953" width="75.2656" height="198.919" filterUnits="userSpaceOnUse" color-interpolation-filters="sRGB">
<feFlood flood-opacity="0" result="BackgroundImageFix"/>
<feGaussianBlur in="BackgroundImageFix" stdDeviation="7.5"/>
<feComposite in2="SourceAlpha" operator="in" result="effect1_backgroundBlur_461_7529"/>
<feBlend mode="normal" in="SourceGraphic" in2="effect1_backgroundBlur_461_7529" result="shape"/>
</filter>
<filter id="filter7_b_461_7529" x="379.145" y="-15" width="75.2656" height="221" filterUnits="userSpaceOnUse" color-interpolation-filters="sRGB">
<feFlood flood-opacity="0" result="BackgroundImageFix"/>
<feGaussianBlur in="BackgroundImageFix" stdDeviation="7.5"/>
<feComposite in2="SourceAlpha" operator="in" result="effect1_backgroundBlur_461_7529"/>
<feBlend mode="normal" in="SourceGraphic" in2="effect1_backgroundBlur_461_7529" result="shape"/>
</filter>
<filter id="filter8_b_461_7529" x="435.451" y="51.2428" width="75.2656" height="88.5145" filterUnits="userSpaceOnUse" color-interpolation-filters="sRGB">
<feFlood flood-opacity="0" result="BackgroundImageFix"/>
<feGaussianBlur in="BackgroundImageFix" stdDeviation="7.5"/>
<feComposite in2="SourceAlpha" operator="in" result="effect1_backgroundBlur_461_7529"/>
<feBlend mode="normal" in="SourceGraphic" in2="effect1_backgroundBlur_461_7529" result="shape"/>
</filter>
</defs>
</svg>
