<svg width="495" height="231" viewBox="0 0 495 231" fill="none" xmlns="http://www.w3.org/2000/svg">
<g opacity="0.15">
<rect x="495" y="168.086" width="44.8705" height="106.122" rx="22.4353" transform="rotate(-180 495 168.086)" fill="url(#paint0_linear_286_8315)" fill-opacity="0.5"/>
<rect x="438.733" y="206.547" width="44.8705" height="183.043" rx="22.4353" transform="rotate(-180 438.733 206.547)" fill="url(#paint1_linear_286_8315)" fill-opacity="0.5"/>
<rect x="382.468" y="152.417" width="44.8705" height="74.7842" rx="22.4353" transform="rotate(-180 382.468 152.417)" fill="url(#paint2_linear_286_8315)" fill-opacity="0.5"/>
<rect x="326.201" y="230.05" width="44.8705" height="230.05" rx="22.4353" transform="rotate(-180 326.201 230.05)" fill="url(#paint3_linear_286_8315)" fill-opacity="0.5"/>
<rect x="269.936" y="183.755" width="44.8705" height="137.46" rx="22.4353" transform="rotate(-180 269.936 183.755)" fill="url(#paint4_linear_286_8315)" fill-opacity="0.5"/>
<rect x="213.669" y="168.086" width="44.8705" height="106.122" rx="22.4353" transform="rotate(-180 213.669 168.086)" fill="url(#paint5_linear_286_8315)" fill-opacity="0.5"/>
<rect x="157.403" y="230.05" width="44.8705" height="230.05" rx="22.4353" transform="rotate(-180 157.403 230.05)" fill="url(#paint6_linear_286_8315)" fill-opacity="0.5"/>
<rect x="101.137" y="191.59" width="44.8705" height="153.13" rx="22.4353" transform="rotate(-180 101.137 191.59)" fill="url(#paint7_linear_286_8315)" fill-opacity="0.5"/>
<rect x="44.8701" y="206.547" width="44.8705" height="183.043" rx="22.4353" transform="rotate(-180 44.8701 206.547)" fill="url(#paint8_linear_286_8315)" fill-opacity="0.5"/>
</g>
<defs>
<linearGradient id="paint0_linear_286_8315" x1="517.435" y1="168.086" x2="517.435" y2="274.209" gradientUnits="userSpaceOnUse">
<stop stop-color="#06789C"/>
<stop offset="1" stop-color="#81A3BE"/>
</linearGradient>
<linearGradient id="paint1_linear_286_8315" x1="461.169" y1="206.547" x2="461.169" y2="389.59" gradientUnits="userSpaceOnUse">
<stop stop-color="#06789C"/>
<stop offset="1" stop-color="#81A3BE"/>
</linearGradient>
<linearGradient id="paint2_linear_286_8315" x1="404.903" y1="152.417" x2="404.903" y2="227.201" gradientUnits="userSpaceOnUse">
<stop stop-color="#06789C"/>
<stop offset="1" stop-color="#81A3BE"/>
</linearGradient>
<linearGradient id="paint3_linear_286_8315" x1="348.636" y1="230.05" x2="348.636" y2="460.101" gradientUnits="userSpaceOnUse">
<stop stop-color="#06789C"/>
<stop offset="1" stop-color="#81A3BE"/>
</linearGradient>
<linearGradient id="paint4_linear_286_8315" x1="292.371" y1="183.755" x2="292.371" y2="321.216" gradientUnits="userSpaceOnUse">
<stop stop-color="#06789C"/>
<stop offset="1" stop-color="#81A3BE"/>
</linearGradient>
<linearGradient id="paint5_linear_286_8315" x1="236.104" y1="168.086" x2="236.104" y2="274.208" gradientUnits="userSpaceOnUse">
<stop stop-color="#06789C"/>
<stop offset="1" stop-color="#81A3BE"/>
</linearGradient>
<linearGradient id="paint6_linear_286_8315" x1="179.839" y1="230.05" x2="179.839" y2="460.101" gradientUnits="userSpaceOnUse">
<stop stop-color="#06789C"/>
<stop offset="1" stop-color="#81A3BE"/>
</linearGradient>
<linearGradient id="paint7_linear_286_8315" x1="123.572" y1="191.59" x2="123.572" y2="344.719" gradientUnits="userSpaceOnUse">
<stop stop-color="#06789C"/>
<stop offset="1" stop-color="#81A3BE"/>
</linearGradient>
<linearGradient id="paint8_linear_286_8315" x1="67.3054" y1="206.547" x2="67.3054" y2="389.59" gradientUnits="userSpaceOnUse">
<stop stop-color="#06789C"/>
<stop offset="1" stop-color="#81A3BE"/>
</linearGradient>
</defs>
</svg>
