<svg width="695" height="323" viewBox="0 0 695 323" fill="none" xmlns="http://www.w3.org/2000/svg">
<rect y="87" width="63" height="149" rx="28" fill="url(#paint0_linear_273_7454)" fill-opacity="0.5"/>
<rect x="79" y="33" width="63" height="257" rx="28" fill="url(#paint1_linear_273_7454)" fill-opacity="0.5"/>
<rect x="158" y="109" width="63" height="105" rx="28" fill="url(#paint2_linear_273_7454)" fill-opacity="0.5"/>
<rect x="237" width="63" height="323" rx="28" fill="url(#paint3_linear_273_7454)" fill-opacity="0.5"/>
<rect x="316" y="65" width="63" height="193" rx="28" fill="url(#paint4_linear_273_7454)" fill-opacity="0.5"/>
<rect x="395" y="87" width="63" height="149" rx="28" fill="url(#paint5_linear_273_7454)" fill-opacity="0.5"/>
<rect x="474" width="63" height="323" rx="28" fill="url(#paint6_linear_273_7454)" fill-opacity="0.5"/>
<rect x="553" y="54" width="63" height="215" rx="28" fill="url(#paint7_linear_273_7454)" fill-opacity="0.5"/>
<rect x="632" y="33" width="63" height="257" rx="28" fill="url(#paint8_linear_273_7454)" fill-opacity="0.5"/>
<defs>
<linearGradient id="paint0_linear_273_7454" x1="31.5" y1="87" x2="31.5" y2="236" gradientUnits="userSpaceOnUse">
<stop stop-color="#06789C"/>
<stop offset="1" stop-color="#81A3BE"/>
</linearGradient>
<linearGradient id="paint1_linear_273_7454" x1="110.5" y1="33" x2="110.5" y2="290" gradientUnits="userSpaceOnUse">
<stop stop-color="#06789C"/>
<stop offset="1" stop-color="#81A3BE"/>
</linearGradient>
<linearGradient id="paint2_linear_273_7454" x1="189.5" y1="109" x2="189.5" y2="214" gradientUnits="userSpaceOnUse">
<stop stop-color="#06789C"/>
<stop offset="1" stop-color="#81A3BE"/>
</linearGradient>
<linearGradient id="paint3_linear_273_7454" x1="268.5" y1="0" x2="268.5" y2="323" gradientUnits="userSpaceOnUse">
<stop stop-color="#06789C"/>
<stop offset="1" stop-color="#81A3BE"/>
</linearGradient>
<linearGradient id="paint4_linear_273_7454" x1="347.5" y1="65" x2="347.5" y2="258" gradientUnits="userSpaceOnUse">
<stop stop-color="#06789C"/>
<stop offset="1" stop-color="#81A3BE"/>
</linearGradient>
<linearGradient id="paint5_linear_273_7454" x1="426.5" y1="87" x2="426.5" y2="236" gradientUnits="userSpaceOnUse">
<stop stop-color="#06789C"/>
<stop offset="1" stop-color="#81A3BE"/>
</linearGradient>
<linearGradient id="paint6_linear_273_7454" x1="505.5" y1="0" x2="505.5" y2="323" gradientUnits="userSpaceOnUse">
<stop stop-color="#06789C"/>
<stop offset="1" stop-color="#81A3BE"/>
</linearGradient>
<linearGradient id="paint7_linear_273_7454" x1="584.5" y1="54" x2="584.5" y2="269" gradientUnits="userSpaceOnUse">
<stop stop-color="#06789C"/>
<stop offset="1" stop-color="#81A3BE"/>
</linearGradient>
<linearGradient id="paint8_linear_273_7454" x1="663.5" y1="33" x2="663.5" y2="290" gradientUnits="userSpaceOnUse">
<stop stop-color="#06789C"/>
<stop offset="1" stop-color="#81A3BE"/>
</linearGradient>
</defs>
</svg>
