<svg width="64" height="64" viewBox="0 0 64 64" fill="none" xmlns="http://www.w3.org/2000/svg">
<g clip-path="url(#clip0_426_7205)">
<path d="M61.6533 31.68C58.64 28.6667 53.36 28.6667 50.3467 31.68L31.68 50.3467C30.16 51.8667 29.3333 53.8667 29.3333 56V61.3333C29.3333 62.8 30.5333 64 32 64H37.3333C39.4667 64 41.4667 63.1733 42.9867 61.6533L61.6533 42.9867C63.1733 41.4667 64 39.4667 64 37.3333C64 35.2 63.1733 33.2 61.6533 31.68ZM57.8933 39.2267L39.2267 57.8933C38.72 58.4 38.0533 58.6667 37.3333 58.6667H34.6667V56C34.6667 55.3067 34.96 54.6133 35.44 54.1067L54.1067 35.44C55.12 34.4267 56.88 34.4267 57.8667 35.44C58.3733 35.9467 58.64 36.6133 58.64 37.3333C58.64 38.0533 58.3733 38.72 57.8667 39.2267H57.8933ZM37.3333 36C37.3333 33.7867 35.5467 32 33.3333 32C31.12 32 29.3333 33.7867 29.3333 36C29.3333 36.8533 29.6 37.7867 30.1067 38.64C29.2533 39.3867 28.1333 40 26.6667 40C25.4933 40 24.32 39.6533 23.2 39.0933C25.36 36 26.6667 32.2933 26.6667 29.3333C26.6667 24.9333 23.0667 21.3333 18.6667 21.3333C14.2667 21.3333 10.6667 24.9333 10.6667 29.3333C10.6667 32.5867 12.48 36.4 15.2267 39.4667C14.5867 39.8133 13.9467 40 13.3333 40C11.8667 40 10.6667 41.2 10.6667 42.6667C10.6667 44.1333 11.8667 45.3333 13.3333 45.3333C15.5467 45.3333 17.6267 44.4533 19.4667 43.0667C21.7067 44.48 24.16 45.3333 26.6667 45.3333C33.6 45.3333 37.3333 38.72 37.3333 36ZM19.0133 35.7333C17.2 33.6267 16 31.1467 16 29.3333C16 27.8667 17.2 26.6667 18.6667 26.6667C20.1333 26.6667 21.3333 27.8667 21.3333 29.3333C21.3333 31.2533 20.4 33.68 19.0133 35.7333ZM24 56C24 57.4667 22.8 58.6667 21.3333 58.6667H13.3333C5.97333 58.6667 0 52.6933 0 45.3333V13.3333C0 5.97333 5.97333 0 13.3333 0H28.6933C31.5467 0 34.2133 1.12 36.24 3.12L44.88 11.76C46.9067 13.7867 48 16.4533 48 19.3067V24C48 25.4667 46.8 26.6667 45.3333 26.6667C43.8667 26.6667 42.6667 25.4667 42.6667 24V19.3067C42.6667 19.0933 42.6667 18.88 42.6133 18.6667H34.6667C31.7333 18.6667 29.3333 16.2667 29.3333 13.3333V5.38667C29.12 5.38667 28.9067 5.33333 28.6933 5.33333H13.3333C8.93333 5.33333 5.33333 8.93333 5.33333 13.3333V45.3333C5.33333 49.7333 8.93333 53.3333 13.3333 53.3333H21.3333C22.8 53.3333 24 54.5333 24 56Z" fill="#81A3BE"/>
</g>
<defs>
<clipPath id="clip0_426_7205">
<rect width="64" height="64" fill="white"/>
</clipPath>
</defs>
</svg>
