<svg width="26" height="27" viewBox="0 0 26 27" fill="none" xmlns="http://www.w3.org/2000/svg">
<path d="M25 21.1532C25 22.3909 24.5083 23.5779 23.6331 24.4531C22.758 25.3282 21.571 25.8199 20.3333 25.8199C19.0956 25.8199 17.9086 25.3282 17.0335 24.4531C16.1583 23.5779 15.6666 22.3909 15.6666 21.1532C15.6666 19.9156 16.1583 18.7286 17.0335 17.8534C17.9086 16.9782 19.0956 16.4866 20.3333 16.4866C21.571 16.4866 22.758 16.9782 23.6331 17.8534C24.5083 18.7286 25 19.9156 25 21.1532Z" stroke="#13293D" stroke-width="2" stroke-linecap="round" stroke-linejoin="round"/>
<path d="M20.3333 16.4865H5.66667C4.42899 16.4865 3.24201 16.9782 2.36684 17.8533C1.49167 18.7285 1 19.9155 1 21.1532C1 22.3908 1.49167 23.5778 2.36684 24.453C3.24201 25.3282 4.42899 25.8198 5.66667 25.8198H20.3333C21.571 25.8198 22.758 25.3282 23.6332 24.453C24.5083 23.5778 25 22.3908 25 21.1532C25 19.9155 24.5083 18.7285 23.6332 17.8533C22.758 16.9782 21.571 16.4865 20.3333 16.4865ZM1 6.48649C1 7.09933 1.12071 7.70616 1.35523 8.27235C1.58975 8.83853 1.9335 9.35298 2.36684 9.78632C2.80018 10.2197 3.31462 10.5634 3.88081 10.7979C4.447 11.0325 5.05383 11.1532 5.66667 11.1532C6.2795 11.1532 6.88634 11.0325 7.45252 10.7979C8.01871 10.5634 8.53316 10.2197 8.9665 9.78632C9.39984 9.35298 9.74358 8.83853 9.97811 8.27235C10.2126 7.70616 10.3333 7.09933 10.3333 6.48649C10.3333 5.24881 9.84167 4.06183 8.9665 3.18666C8.09133 2.31149 6.90434 1.81982 5.66667 1.81982C4.42899 1.81982 3.24201 2.31149 2.36684 3.18666C1.49167 4.06183 1 5.24881 1 6.48649Z" stroke="#13293D" stroke-width="2" stroke-linecap="round" stroke-linejoin="round"/>
<path d="M5.66667 1.81982H20.3333C20.9462 1.81982 21.553 1.94053 22.1192 2.17505C22.6854 2.40957 23.1998 2.75332 23.6332 3.18666C24.0665 3.62 24.4102 4.13445 24.6448 4.70063C24.8793 5.26682 25 5.87366 25 6.48649C25 7.09933 24.8793 7.70616 24.6448 8.27235C24.4102 8.83853 24.0665 9.35298 23.6332 9.78632C23.1998 10.2197 22.6854 10.5634 22.1192 10.7979C21.553 11.0325 20.9462 11.1532 20.3333 11.1532H5.66667C5.05383 11.1532 4.447 11.0325 3.88081 10.7979C3.31462 10.5634 2.80017 10.2197 2.36683 9.78632C1.93349 9.35298 1.58975 8.83853 1.35523 8.27235C1.12071 7.70616 1 7.09933 1 6.48649C1 5.87366 1.12071 5.26682 1.35523 4.70063C1.58975 4.13445 1.93349 3.62 2.36683 3.18666C2.80017 2.75332 3.31462 2.40957 3.88081 2.17505C4.447 1.94053 5.05383 1.81982 5.66667 1.81982Z" stroke="#13293D" stroke-width="2" stroke-linecap="round" stroke-linejoin="round"/>
</svg>
