<svg width="448" height="184" viewBox="0 0 448 184" fill="none" xmlns="http://www.w3.org/2000/svg">
<g clip-path="url(#clip0_342_7029)" filter="url(#filter0_d_342_7029)">
<g filter="url(#filter1_b_342_7029)">
<path d="M414.78 30H33.2199C31.4416 30 30 31.4235 30 33.1795V150.821C30 152.576 31.4416 154 33.2199 154H414.78C416.558 154 418 152.576 418 150.821V33.1795C418 31.4235 416.558 30 414.78 30Z" fill="white" fill-opacity="0.85"/>
</g>
<path d="M49.3013 63.6014V70.5385H48.478L44.6498 65.0918H44.5812V70.5385H43.7305V63.6014H44.5538L48.3957 69.0617H48.4643V63.6014H49.3013ZM51.9899 70.5385L50.0689 63.6014H50.9333L52.4015 69.2514H52.4701L53.9657 63.6014H54.9262L56.4219 69.2514H56.4904L57.9586 63.6014H58.8231L56.9021 70.5385H56.0239L54.4734 65.0105H54.4185L52.868 70.5385H51.9899ZM61.7612 70.5385H59.5932V63.6014H61.8572C62.5387 63.6014 63.1219 63.7403 63.6067 64.0181C64.0915 64.2935 64.4631 64.6899 64.7215 65.207C64.9799 65.7218 65.1091 66.3383 65.1091 67.0564C65.1091 67.779 64.9788 68.4012 64.7181 68.9228C64.4574 69.4422 64.0778 69.8418 63.5792 70.122C63.0807 70.3998 62.4747 70.5385 61.7612 70.5385ZM60.4439 69.7933H61.7063C62.2872 69.7933 62.7685 69.6827 63.1505 69.4614C63.5324 69.2401 63.8171 68.925 64.0046 68.5163C64.1921 68.1076 64.2859 67.621 64.2859 67.0564C64.2859 66.4964 64.1933 66.0143 64.0081 65.61C63.8228 65.2036 63.5461 64.892 63.1779 64.6752C62.8097 64.4561 62.3512 64.3466 61.8023 64.3466H60.4439V69.7933ZM66.2464 70.5385V63.6014H67.0971V66.6906H70.8431V63.6014H71.6936V70.5385H70.8431V67.4358H67.0971V70.5385H66.2464ZM75.2749 70.6335C74.7582 70.6335 74.3178 70.4944 73.9544 70.2166C73.5909 69.9368 73.3128 69.5313 73.1208 69.0007C72.9288 68.4678 72.8326 67.8242 72.8326 67.0699C72.8326 66.3203 72.9288 65.6801 73.1208 65.1494C73.3152 64.6165 73.5942 64.21 73.9576 63.93C74.3239 63.6477 74.7626 63.5066 75.2749 63.5066C75.7873 63.5066 76.2252 63.6477 76.5887 63.93C76.9545 64.21 77.2339 64.6165 77.4259 65.1494C77.6203 65.6801 77.7173 66.3203 77.7173 67.0699C77.7173 67.8242 77.6215 68.4678 77.4291 69.0007C77.2371 69.5313 76.9594 69.9368 76.5955 70.2166C76.2321 70.4944 75.7917 70.6335 75.2749 70.6335ZM75.2749 69.8883C75.7873 69.8883 76.1854 69.6443 76.4687 69.1565C76.7525 68.6688 76.8942 67.9732 76.8942 67.0699C76.8942 66.4693 76.829 65.9578 76.6986 65.5355C76.5706 65.1133 76.3854 64.7915 76.1427 64.5702C75.9028 64.3489 75.6134 64.2382 75.2749 64.2382C74.7674 64.2382 74.3706 64.4855 74.0848 64.98C73.799 65.4723 73.6557 66.169 73.6557 67.0699C73.6557 67.6706 73.7201 68.181 73.8481 68.601C73.9761 69.021 74.1601 69.3405 74.4003 69.5596C74.6426 69.7786 74.9344 69.8883 75.2749 69.8883ZM81.0225 70.6335C80.5057 70.6335 80.0654 70.4944 79.7019 70.2166C79.3385 69.9368 79.0604 69.5313 78.8684 69.0007C78.6764 68.4678 78.5802 67.8242 78.5802 67.0699C78.5802 66.3203 78.6764 65.6801 78.8684 65.1494C79.0628 64.6165 79.3417 64.21 79.7052 63.93C80.0714 63.6477 80.5101 63.5066 81.0225 63.5066C81.5349 63.5066 81.9728 63.6477 82.3362 63.93C82.7021 64.21 82.9814 64.6165 83.1734 65.1494C83.3678 65.6801 83.4648 66.3203 83.4648 67.0699C83.4648 67.8242 83.369 68.4678 83.1766 69.0007C82.9846 69.5313 82.7069 69.9368 82.3431 70.2166C81.9796 70.4944 81.5393 70.6335 81.0225 70.6335ZM81.0225 69.8883C81.5349 69.8883 81.9329 69.6443 82.2163 69.1565C82.5 68.6688 82.6417 67.9732 82.6417 67.0699C82.6417 66.4693 82.5765 65.9578 82.4461 65.5355C82.3181 65.1133 82.133 64.7915 81.8903 64.5702C81.6504 64.3489 81.361 64.2382 81.0225 64.2382C80.515 64.2382 80.1181 64.4855 79.8323 64.98C79.5466 65.4723 79.4033 66.169 79.4033 67.0699C79.4033 67.6706 79.4677 68.181 79.5957 68.601C79.7237 69.021 79.9076 69.3405 80.1479 69.5596C80.3902 69.7786 80.682 69.8883 81.0225 69.8883ZM84.4787 70.5385V69.9288L86.7974 67.4222C87.0699 67.1287 87.2937 66.8735 87.47 66.6567C87.6459 66.4377 87.7763 66.2322 87.8608 66.0402C87.9477 65.846 87.9912 65.6428 87.9912 65.4305C87.9912 65.1867 87.932 64.9755 87.8129 64.7971C87.6962 64.6187 87.5364 64.481 87.3327 64.3839C87.1291 64.2868 86.9005 64.2382 86.6465 64.2382C86.3768 64.2382 86.1414 64.2935 85.9401 64.4042C85.7409 64.5126 85.5867 64.665 85.4769 64.8615C85.3694 65.0579 85.3159 65.2883 85.3159 65.5525H84.506C84.506 65.146 84.601 64.7892 84.791 64.4821C84.9806 64.175 85.239 63.9356 85.5662 63.764C85.8954 63.5924 86.2649 63.5066 86.6743 63.5066C87.0856 63.5066 87.4507 63.5924 87.7682 63.764C88.0862 63.9356 88.3353 64.1671 88.5161 64.4584C88.6968 64.7497 88.7873 65.0737 88.7873 65.4305C88.7873 65.6857 88.7402 65.9352 88.6465 66.1791C88.5551 66.4207 88.3949 66.6906 88.1663 66.9887C87.9397 67.2845 87.6253 67.6458 87.2229 68.0726L85.6451 69.7391V69.7933H88.9105V70.5385H84.4787ZM92.4114 70.6335C91.9585 70.6335 91.5549 70.5564 91.2003 70.403C90.8481 70.2496 90.5679 70.0361 90.3599 69.7627C90.1542 69.4873 90.0423 69.1678 90.0238 68.8042H90.8883C90.9064 69.0278 90.9845 69.2209 91.1214 69.3835C91.2586 69.5438 91.4381 69.668 91.6603 69.7559C91.8821 69.8442 92.1276 69.8883 92.3977 69.8883C92.6995 69.8883 92.9672 69.8362 93.2002 69.7323C93.4337 69.6284 93.6164 69.4839 93.7492 69.2988C93.8816 69.1136 93.9481 68.8991 93.9481 68.6552C93.9481 68.4 93.8841 68.1753 93.7561 67.9811C93.6281 67.7847 93.4405 67.6311 93.1934 67.5204C92.9467 67.4098 92.6448 67.3545 92.2878 67.3545H91.7251V66.6093H92.2878C92.5667 66.6093 92.8114 66.5596 93.0219 66.4602C93.2344 66.3609 93.4003 66.2209 93.5194 66.0402C93.6405 65.8596 93.7013 65.6473 93.7013 65.4034C93.7013 65.1686 93.6486 64.9642 93.5431 64.7903C93.4381 64.6165 93.2896 64.481 93.0976 64.3839C92.9076 64.2868 92.6834 64.2382 92.425 64.2382C92.1827 64.2382 91.9541 64.2823 91.7392 64.3703C91.5263 64.4561 91.3524 64.5815 91.2176 64.7463C91.0827 64.9089 91.0095 65.1053 90.9982 65.3357H90.1747C90.1884 64.9721 90.2995 64.6537 90.5076 64.3805C90.7157 64.105 90.9877 63.8905 91.3238 63.7369C91.6623 63.5834 92.0338 63.5066 92.4387 63.5066C92.8734 63.5066 93.2461 63.5935 93.5572 63.7674C93.868 63.939 94.107 64.166 94.2741 64.4482C94.4411 64.7305 94.5244 65.0354 94.5244 65.3628C94.5244 65.7534 94.4202 66.0865 94.2121 66.362C94.0064 66.6375 93.7263 66.8283 93.3717 66.9345V66.9887C93.8156 67.0609 94.1618 67.2472 94.4113 67.5475C94.6605 67.8456 94.7852 68.2148 94.7852 68.6552C94.7852 69.0323 94.681 69.371 94.4729 69.6714C94.2672 69.9694 93.9859 70.2042 93.6293 70.3759C93.2723 70.5476 92.8666 70.6335 92.4114 70.6335ZM101.358 66.6974V67.4425H98.2841V66.6974H101.358ZM105.029 70.5385V63.6014H105.88V67.0428H105.962L109.118 63.6014H110.23L107.279 66.7313L110.23 70.5385H109.2L106.758 67.3139L105.88 68.2894V70.5385H105.029ZM111.741 63.6014V70.5385H110.931V63.6014H111.741ZM115.143 70.647C114.635 70.647 114.197 70.5361 113.829 70.3151C113.463 70.0914 113.181 69.7798 112.982 69.38C112.785 68.9781 112.687 68.5107 112.687 67.9777C112.687 67.4448 112.785 66.9751 112.982 66.5687C113.181 66.1599 113.457 65.8415 113.812 65.6135C114.168 65.3831 114.585 65.2679 115.06 65.2679C115.335 65.2679 115.606 65.3131 115.873 65.4034C116.141 65.4938 116.384 65.6405 116.604 65.8438C116.824 66.0448 116.999 66.3112 117.129 66.6432C117.259 66.9751 117.324 67.3838 117.324 67.8694V68.2081H113.263V67.5171H116.501C116.501 67.2235 116.442 66.9616 116.323 66.7313C116.206 66.5009 116.039 66.3191 115.822 66.1859C115.607 66.0527 115.353 65.9861 115.06 65.9861C114.738 65.9861 114.459 66.0651 114.223 66.2231C113.99 66.379 113.811 66.5822 113.685 66.8328C113.559 67.0835 113.496 67.3522 113.496 67.639V68.0997C113.496 68.4926 113.565 68.8257 113.702 69.0989C113.842 69.3699 114.035 69.5765 114.282 69.7188C114.529 69.8589 114.816 69.9288 115.143 69.9288C115.355 69.9288 115.548 69.8994 115.719 69.8406C115.893 69.7798 116.043 69.6894 116.168 69.5697C116.294 69.4478 116.391 69.2965 116.46 69.1159L117.242 69.3326C117.16 69.5946 117.021 69.8251 116.827 70.0238C116.633 70.2201 116.392 70.3736 116.107 70.4844C115.821 70.5925 115.499 70.647 115.143 70.647ZM118.266 70.5385V65.3357H119.048V66.1215H119.103C119.199 65.8641 119.373 65.6552 119.624 65.4949C119.876 65.3345 120.16 65.2544 120.475 65.2544C120.535 65.2544 120.609 65.2555 120.698 65.2578C120.787 65.26 120.855 65.2634 120.9 65.2679V66.0809C120.873 66.0741 120.81 66.064 120.712 66.0504C120.616 66.0346 120.514 66.0267 120.407 66.0267C120.151 66.0267 119.922 66.0797 119.721 66.1859C119.521 66.2898 119.364 66.4343 119.247 66.6195C119.133 66.8024 119.075 67.0112 119.075 67.2461V70.5385H118.266ZM122.325 68.6416L122.311 67.6525H122.476L124.781 65.3357H125.783L123.327 67.788H123.258L122.325 68.6416ZM121.571 70.5385V63.6014H122.38V70.5385H121.571ZM124.918 70.5385L122.86 67.9642L123.436 67.4087L125.948 70.5385H124.918ZM130.267 66.5009L129.54 66.7041C129.494 66.5844 129.427 66.4682 129.337 66.3552C129.251 66.2401 129.132 66.1452 128.981 66.0707C128.83 65.9962 128.637 65.959 128.401 65.959C128.079 65.959 127.81 66.0323 127.595 66.1791C127.382 66.3236 127.276 66.5077 127.276 66.7313C127.276 66.93 127.349 67.0869 127.496 67.2021C127.642 67.3172 127.871 67.4132 128.181 67.49L128.963 67.6797C129.435 67.7926 129.786 67.9653 130.017 68.1979C130.248 68.4282 130.363 68.7252 130.363 69.0888C130.363 69.3868 130.276 69.6533 130.102 69.8883C129.931 70.1232 129.691 70.308 129.382 70.4435C129.073 70.579 128.714 70.647 128.305 70.647C127.768 70.647 127.323 70.5317 126.971 70.3012C126.619 70.0711 126.396 69.7346 126.302 69.292L127.07 69.1023C127.143 69.3823 127.281 69.5923 127.485 69.7323C127.691 69.8724 127.96 69.9423 128.291 69.9423C128.668 69.9423 128.968 69.8632 129.19 69.7052C129.414 69.5449 129.526 69.3529 129.526 69.1294C129.526 68.9487 129.462 68.7974 129.334 68.6755C129.206 68.5513 129.009 68.4587 128.744 68.3977L127.866 68.1945C127.383 68.0816 127.029 67.9066 126.802 67.6695C126.578 67.4301 126.466 67.1309 126.466 66.7719C126.466 66.4783 126.55 66.2186 126.717 65.9928C126.886 65.767 127.116 65.5897 127.406 65.461C127.699 65.3323 128.03 65.2679 128.401 65.2679C128.922 65.2679 129.332 65.3808 129.629 65.6067C129.929 65.8325 130.142 66.1306 130.267 66.5009ZM133.282 70.647C132.843 70.647 132.455 70.5373 132.119 70.3183C131.782 70.0969 131.52 69.7854 131.33 69.3835C131.14 68.9792 131.045 68.5016 131.045 67.9506C131.045 67.4042 131.14 66.93 131.33 66.528C131.52 66.126 131.784 65.8156 132.122 65.5965C132.461 65.3775 132.851 65.2679 133.295 65.2679C133.638 65.2679 133.909 65.3244 134.108 65.4373C134.31 65.548 134.463 65.6744 134.568 65.8167C134.676 65.9567 134.759 66.0719 134.818 66.1622H134.887V63.6014H135.697V70.5385H134.914V69.7391H134.818C134.759 69.8338 134.674 69.9535 134.564 70.0981C134.455 70.2404 134.298 70.368 134.094 70.4809C133.891 70.5917 133.62 70.647 133.282 70.647ZM133.391 69.9288C133.716 69.9288 133.991 69.8454 134.215 69.6781C134.439 69.5088 134.609 69.275 134.726 68.977C134.842 68.6766 134.901 68.33 134.901 67.9371C134.901 67.5487 134.843 67.2089 134.729 66.9175C134.615 66.624 134.446 66.3959 134.222 66.2333C133.997 66.0684 133.72 65.9861 133.391 65.9861C133.048 65.9861 132.763 66.073 132.534 66.2469C132.307 66.4185 132.137 66.6522 132.023 66.948C131.91 67.2416 131.855 67.5713 131.855 67.9371C131.855 68.3074 131.912 68.6439 132.026 68.9465C132.143 69.2468 132.314 69.4862 132.541 69.6646C132.769 69.8406 133.053 69.9288 133.391 69.9288ZM139.142 70.647C138.667 70.647 138.249 70.5349 137.89 70.3116C137.534 70.0878 137.254 69.7754 137.053 69.3733C136.854 68.9713 136.755 68.5016 136.755 67.9642C136.755 67.4222 136.854 66.9491 137.053 66.5449C137.254 66.1407 137.534 65.8268 137.89 65.6033C138.249 65.3797 138.667 65.2679 139.142 65.2679C139.618 65.2679 140.034 65.3797 140.391 65.6033C140.75 65.8268 141.029 66.1407 141.228 66.5449C141.429 66.9491 141.53 67.4222 141.53 67.9642C141.53 68.5016 141.429 68.9713 141.228 69.3733C141.029 69.7754 140.75 70.0878 140.391 70.3116C140.034 70.5349 139.618 70.647 139.142 70.647ZM139.142 69.9288C139.504 69.9288 139.801 69.8374 140.034 69.6544C140.267 69.4715 140.44 69.231 140.552 68.9329C140.664 68.6349 140.72 68.3119 140.72 67.9642C140.72 67.6164 140.664 67.2924 140.552 66.992C140.44 66.6917 140.267 66.449 140.034 66.2638C139.801 66.0786 139.504 65.9861 139.142 65.9861C138.781 65.9861 138.484 66.0786 138.25 66.2638C138.017 66.449 137.844 66.6917 137.732 66.992C137.621 67.2924 137.564 67.6164 137.564 67.9642C137.564 68.3119 137.621 68.6349 137.732 68.9329C137.844 69.231 138.017 69.4715 138.25 69.6544C138.484 69.8374 138.781 69.9288 139.142 69.9288ZM142.476 70.5385V65.3357H143.258V66.1215H143.313C143.409 65.8641 143.583 65.6552 143.834 65.4949C144.086 65.3345 144.37 65.2544 144.685 65.2544C144.744 65.2544 144.819 65.2555 144.908 65.2578C144.997 65.26 145.065 65.2634 145.11 65.2679V66.0809C145.083 66.0741 145.02 66.064 144.922 66.0504C144.826 66.0346 144.724 66.0267 144.616 66.0267C144.36 66.0267 144.132 66.0797 143.93 66.1859C143.731 66.2898 143.573 66.4343 143.457 66.6195C143.342 66.8024 143.285 67.0112 143.285 67.2461V70.5385H142.476ZM145.78 72.4895V65.3357H146.562V66.1622H146.658C146.718 66.0719 146.8 65.9567 146.905 65.8167C147.013 65.6744 147.166 65.548 147.365 65.4373C147.566 65.3244 147.838 65.2679 148.182 65.2679C148.625 65.2679 149.016 65.3775 149.354 65.5965C149.693 65.8156 149.957 66.126 150.147 66.528C150.337 66.93 150.431 67.4042 150.431 67.9506C150.431 68.5016 150.337 68.9792 150.147 69.3835C149.957 69.7854 149.694 70.0969 149.358 70.3183C149.022 70.5373 148.634 70.647 148.195 70.647C147.857 70.647 147.585 70.5917 147.382 70.4809C147.179 70.368 147.022 70.2404 146.912 70.0981C146.802 69.9535 146.718 69.8338 146.658 69.7391H146.59V72.4895H145.78ZM146.576 67.9371C146.576 68.33 146.634 68.6766 146.751 68.977C146.867 69.275 147.038 69.5088 147.262 69.6781C147.486 69.8454 147.761 69.9288 148.085 69.9288C148.424 69.9288 148.706 69.8406 148.933 69.6646C149.161 69.4862 149.333 69.2468 149.447 68.9465C149.564 68.6439 149.622 68.3074 149.622 67.9371C149.622 67.5713 149.565 67.2416 149.451 66.948C149.339 66.6522 149.168 66.4185 148.939 66.2469C148.713 66.073 148.428 65.9861 148.085 65.9861C147.756 65.9861 147.479 66.0684 147.255 66.2333C147.031 66.3959 146.862 66.624 146.747 66.9175C146.633 67.2089 146.576 67.5487 146.576 67.9371ZM156.823 66.6974V67.4425H153.749V66.6974H156.823ZM160.11 64.3466V63.6014H165.379V64.3466H163.169V70.5385H162.319V64.3466H160.11ZM169.307 66.5009L168.58 66.7041C168.534 66.5844 168.467 66.4682 168.378 66.3552C168.291 66.2401 168.172 66.1452 168.021 66.0707C167.87 65.9962 167.677 65.959 167.441 65.959C167.119 65.959 166.85 66.0323 166.635 66.1791C166.422 66.3236 166.316 66.5077 166.316 66.7313C166.316 66.93 166.389 67.0869 166.535 67.2021C166.682 67.3172 166.911 67.4132 167.222 67.49L168.004 67.6797C168.475 67.7926 168.826 67.9653 169.057 68.1979C169.288 68.4282 169.403 68.7252 169.403 69.0888C169.403 69.3868 169.316 69.6533 169.143 69.8883C168.971 70.1232 168.731 70.308 168.422 70.4435C168.114 70.579 167.755 70.647 167.345 70.647C166.808 70.647 166.363 70.5317 166.011 70.3012C165.658 70.0711 165.435 69.7346 165.342 69.292L166.11 69.1023C166.183 69.3823 166.322 69.5923 166.525 69.7323C166.731 69.8724 167 69.9423 167.332 69.9423C167.709 69.9423 168.008 69.8632 168.23 69.7052C168.454 69.5449 168.566 69.3529 168.566 69.1294C168.566 68.9487 168.502 68.7974 168.374 68.6755C168.246 68.5513 168.05 68.4587 167.784 68.3977L166.906 68.1945C166.424 68.0816 166.069 67.9066 165.843 67.6695C165.619 67.4301 165.506 67.1309 165.506 66.7719C165.506 66.4783 165.59 66.2186 165.757 65.9928C165.926 65.767 166.156 65.5897 166.446 65.461C166.739 65.3323 167.071 65.2679 167.441 65.2679C167.963 65.2679 168.372 65.3808 168.669 65.6067C168.969 65.8325 169.181 66.1306 169.307 66.5009ZM171.142 67.4087V70.5385H170.332V63.6014H171.142V66.1486H171.21C171.334 65.8799 171.519 65.6665 171.766 65.5085C172.015 65.3481 172.347 65.2679 172.761 65.2679C173.12 65.2679 173.434 65.3391 173.704 65.4814C173.974 65.6213 174.183 65.837 174.332 66.1283C174.483 66.4174 174.558 66.7854 174.558 67.2325V70.5385H173.749V67.2867C173.749 66.8735 173.64 66.554 173.423 66.3281C173.208 66.1001 172.909 65.9861 172.528 65.9861C172.262 65.9861 172.025 66.0414 171.814 66.152C171.606 66.2627 171.441 66.4241 171.32 66.6364C171.201 66.8487 171.142 67.1061 171.142 67.4087ZM177.958 70.647C177.451 70.647 177.013 70.5361 176.645 70.3151C176.279 70.0914 175.996 69.7798 175.798 69.38C175.601 68.9781 175.503 68.5107 175.503 67.9777C175.503 67.4448 175.601 66.9751 175.798 66.5687C175.996 66.1599 176.273 65.8415 176.627 65.6135C176.984 65.3831 177.401 65.2679 177.876 65.2679C178.151 65.2679 178.422 65.3131 178.689 65.4034C178.957 65.4938 179.201 65.6405 179.42 65.8438C179.639 66.0448 179.814 66.3112 179.945 66.6432C180.075 66.9751 180.14 67.3838 180.14 67.8694V68.2081H176.079V67.5171H179.317C179.317 67.2235 179.258 66.9616 179.139 66.7313C179.022 66.5009 178.855 66.3191 178.638 66.1859C178.423 66.0527 178.169 65.9861 177.876 65.9861C177.554 65.9861 177.275 66.0651 177.039 66.2231C176.806 66.379 176.627 66.5822 176.501 66.8328C176.375 67.0835 176.312 67.3522 176.312 67.639V68.0997C176.312 68.4926 176.381 68.8257 176.518 69.0989C176.657 69.3699 176.85 69.5765 177.098 69.7188C177.345 69.8589 177.632 69.9288 177.958 69.9288C178.171 69.9288 178.363 69.8994 178.535 69.8406C178.709 69.7798 178.858 69.6894 178.984 69.5697C179.11 69.4478 179.207 69.2965 179.276 69.1159L180.058 69.3326C179.976 69.5946 179.837 69.8251 179.643 70.0238C179.449 70.2201 179.208 70.3736 178.922 70.4844C178.637 70.5925 178.316 70.647 177.958 70.647ZM181.082 72.4895V65.3357H181.864V66.1622H181.96C182.02 66.0719 182.102 65.9567 182.207 65.8167C182.315 65.6744 182.468 65.548 182.667 65.4373C182.868 65.3244 183.14 65.2679 183.483 65.2679C183.927 65.2679 184.318 65.3775 184.656 65.5965C184.995 65.8156 185.259 66.126 185.449 66.528C185.638 66.93 185.733 67.4042 185.733 67.9506C185.733 68.5016 185.638 68.9792 185.449 69.3835C185.259 69.7854 184.996 70.0969 184.66 70.3183C184.323 70.5373 183.936 70.647 183.497 70.647C183.158 70.647 182.887 70.5917 182.684 70.4809C182.48 70.368 182.324 70.2404 182.214 70.0981C182.104 69.9535 182.02 69.8338 181.96 69.7391H181.892V72.4895H181.082ZM181.878 67.9371C181.878 68.33 181.936 68.6766 182.053 68.977C182.169 69.275 182.34 69.5088 182.564 69.6781C182.788 69.8454 183.062 69.9288 183.387 69.9288C183.726 69.9288 184.008 69.8406 184.235 69.6646C184.463 69.4862 184.635 69.2468 184.749 68.9465C184.866 68.6439 184.924 68.3074 184.924 67.9371C184.924 67.5713 184.867 67.2416 184.753 66.948C184.64 66.6522 184.47 66.4185 184.241 66.2469C184.015 66.073 183.73 65.9861 183.387 65.9861C183.058 65.9861 182.781 66.0684 182.557 66.2333C182.333 66.3959 182.164 66.624 182.049 66.9175C181.935 67.2089 181.878 67.5487 181.878 67.9371ZM188.819 70.647C188.344 70.647 187.926 70.5349 187.567 70.3116C187.21 70.0878 186.931 69.7754 186.73 69.3733C186.531 68.9713 186.432 68.5016 186.432 67.9642C186.432 67.4222 186.531 66.9491 186.73 66.5449C186.931 66.1407 187.21 65.8268 187.567 65.6033C187.926 65.3797 188.344 65.2679 188.819 65.2679C189.295 65.2679 189.711 65.3797 190.068 65.6033C190.427 65.8268 190.706 66.1407 190.905 66.5449C191.106 66.9491 191.206 67.4222 191.206 67.9642C191.206 68.5016 191.106 68.9713 190.905 69.3733C190.706 69.7754 190.427 70.0878 190.068 70.3116C189.711 70.5349 189.295 70.647 188.819 70.647ZM188.819 69.9288C189.18 69.9288 189.478 69.8374 189.711 69.6544C189.944 69.4715 190.117 69.231 190.229 68.9329C190.341 68.6349 190.397 68.3119 190.397 67.9642C190.397 67.6164 190.341 67.2924 190.229 66.992C190.117 66.6917 189.944 66.449 189.711 66.2638C189.478 66.0786 189.18 65.9861 188.819 65.9861C188.458 65.9861 188.16 66.0786 187.927 66.2638C187.694 66.449 187.521 66.6917 187.409 66.992C187.297 67.2924 187.241 67.6164 187.241 67.9642C187.241 68.3119 187.297 68.6349 187.409 68.9329C187.521 69.231 187.694 69.4715 187.927 69.6544C188.16 69.8374 188.458 69.9288 188.819 69.9288ZM192.962 67.4087V70.5385H192.153V65.3357H192.935V66.1486H193.003C193.127 65.8844 193.314 65.6722 193.566 65.5118C193.817 65.3492 194.142 65.2679 194.54 65.2679C194.897 65.2679 195.209 65.3402 195.476 65.4847C195.744 65.627 195.952 65.8438 196.101 66.1351C196.25 66.4241 196.324 66.79 196.324 67.2325V70.5385H195.514V67.2867C195.514 66.878 195.407 66.5596 195.192 66.3316C194.977 66.1012 194.682 65.9861 194.307 65.9861C194.048 65.9861 193.817 66.0414 193.614 66.152C193.412 66.2627 193.254 66.4241 193.137 66.6364C193.02 66.8487 192.962 67.1061 192.962 67.4087ZM199.64 72.598C199.249 72.598 198.913 72.5483 198.632 72.449C198.35 72.3516 198.116 72.2232 197.928 72.0627C197.743 71.9049 197.596 71.7352 197.486 71.5547L198.131 71.1076C198.204 71.2022 198.297 71.3107 198.409 71.4327C198.521 71.5567 198.674 71.664 198.868 71.7546C199.065 71.8472 199.322 71.8933 199.64 71.8933C200.066 71.8933 200.417 71.7916 200.693 71.5885C200.97 71.3854 201.109 71.0671 201.109 70.6335V69.5765H201.04C200.98 69.6714 200.896 69.7889 200.786 69.9288C200.678 70.0663 200.523 70.1895 200.319 70.298C200.118 70.4042 199.846 70.457 199.503 70.457C199.078 70.457 198.696 70.3577 198.357 70.1589C198.021 69.9602 197.755 69.6714 197.558 69.292C197.364 68.9126 197.266 68.452 197.266 67.91C197.266 67.3771 197.361 66.913 197.551 66.5178C197.741 66.1204 198.005 65.8133 198.343 65.5965C198.682 65.3775 199.073 65.2679 199.517 65.2679C199.86 65.2679 200.132 65.3244 200.333 65.4373C200.537 65.548 200.692 65.6744 200.8 65.8167C200.909 65.9567 200.994 66.0719 201.053 66.1622H201.136V65.3357H201.918V70.6875C201.918 71.1346 201.815 71.4983 201.609 71.7781C201.406 72.0607 201.131 72.2669 200.786 72.3981C200.443 72.5312 200.061 72.598 199.64 72.598ZM199.613 69.7391C199.938 69.7391 200.212 69.6657 200.436 69.5189C200.66 69.3721 200.83 69.161 200.947 68.8855C201.064 68.61 201.122 68.2803 201.122 67.8965C201.122 67.5216 201.065 67.1908 200.951 66.904C200.836 66.6172 200.667 66.3925 200.443 66.2299C200.219 66.0673 199.942 65.9861 199.613 65.9861C199.27 65.9861 198.984 66.0719 198.755 66.2435C198.529 66.4151 198.358 66.6454 198.244 66.9345C198.132 67.2235 198.076 67.5442 198.076 67.8965C198.076 68.2578 198.133 68.5773 198.248 68.855C198.364 69.1305 198.536 69.3473 198.762 69.5054C198.991 69.6612 199.274 69.7391 199.613 69.7391ZM205.647 70.5385V63.6014H206.497V66.6906H210.243V63.6014H211.094V70.5385H210.243V67.4358H206.497V70.5385H205.647ZM214.538 70.647C214.063 70.647 213.645 70.5349 213.286 70.3116C212.929 70.0878 212.65 69.7754 212.449 69.3733C212.25 68.9713 212.151 68.5016 212.151 67.9642C212.151 67.4222 212.25 66.9491 212.449 66.5449C212.65 66.1407 212.929 65.8268 213.286 65.6033C213.645 65.3797 214.063 65.2679 214.538 65.2679C215.014 65.2679 215.43 65.3797 215.787 65.6033C216.146 65.8268 216.425 66.1407 216.624 66.5449C216.825 66.9491 216.926 67.4222 216.926 67.9642C216.926 68.5016 216.825 68.9713 216.624 69.3733C216.425 69.7754 216.146 70.0878 215.787 70.3116C215.43 70.5349 215.014 70.647 214.538 70.647ZM214.538 69.9288C214.899 69.9288 215.197 69.8374 215.43 69.6544C215.663 69.4715 215.836 69.231 215.948 68.9329C216.06 68.6349 216.116 68.3119 216.116 67.9642C216.116 67.6164 216.06 67.2924 215.948 66.992C215.836 66.6917 215.663 66.449 215.43 66.2638C215.197 66.0786 214.899 65.9861 214.538 65.9861C214.177 65.9861 213.88 66.0786 213.646 66.2638C213.413 66.449 213.24 66.6917 213.128 66.992C213.016 67.2924 212.96 67.6164 212.96 67.9642C212.96 68.3119 213.016 68.6349 213.128 68.9329C213.24 69.231 213.413 69.4715 213.646 69.6544C213.88 69.8374 214.177 69.9288 214.538 69.9288ZM221.604 66.5009L220.877 66.7041C220.831 66.5844 220.763 66.4682 220.674 66.3552C220.587 66.2401 220.468 66.1452 220.317 66.0707C220.166 65.9962 219.973 65.959 219.738 65.959C219.415 65.959 219.146 66.0323 218.932 66.1791C218.719 66.3236 218.613 66.5077 218.613 66.7313C218.613 66.93 218.686 67.0869 218.832 67.2021C218.979 67.3172 219.207 67.4132 219.518 67.49L220.3 67.6797C220.771 67.7926 221.122 67.9653 221.353 68.1979C221.584 68.4282 221.7 68.7252 221.7 69.0888C221.7 69.3868 221.613 69.6533 221.439 69.8883C221.268 70.1232 221.028 70.308 220.719 70.4435C220.41 70.579 220.051 70.647 219.642 70.647C219.104 70.647 218.659 70.5317 218.307 70.3012C217.955 70.0711 217.732 69.7346 217.638 69.292L218.407 69.1023C218.48 69.3823 218.618 69.5923 218.822 69.7323C219.028 69.8724 219.296 69.9423 219.628 69.9423C220.005 69.9423 220.305 69.8632 220.527 69.7052C220.751 69.5449 220.863 69.3529 220.863 69.1294C220.863 68.9487 220.799 68.7974 220.671 68.6755C220.543 68.5513 220.346 68.4587 220.081 68.3977L219.203 68.1945C218.72 68.0816 218.366 67.9066 218.139 67.6695C217.915 67.4301 217.803 67.1309 217.803 66.7719C217.803 66.4783 217.887 66.2186 218.053 65.9928C218.223 65.767 218.453 65.5897 218.743 65.461C219.036 65.3323 219.367 65.2679 219.738 65.2679C220.259 65.2679 220.669 65.3808 220.966 65.6067C221.266 65.8325 221.478 66.1306 221.604 66.5009ZM222.629 72.4895V65.3357H223.411V66.1622H223.507C223.566 66.0719 223.649 65.9567 223.754 65.8167C223.861 65.6744 224.015 65.548 224.213 65.4373C224.415 65.3244 224.687 65.2679 225.03 65.2679C225.474 65.2679 225.865 65.3775 226.203 65.5965C226.541 65.8156 226.806 66.126 226.995 66.528C227.185 66.93 227.28 67.4042 227.28 67.9506C227.28 68.5016 227.185 68.9792 226.995 69.3835C226.806 69.7854 226.543 70.0969 226.207 70.3183C225.87 70.5373 225.483 70.647 225.044 70.647C224.705 70.647 224.434 70.5917 224.231 70.4809C224.027 70.368 223.87 70.2404 223.761 70.0981C223.651 69.9535 223.566 69.8338 223.507 69.7391H223.438V72.4895H222.629ZM223.425 67.9371C223.425 68.33 223.483 68.6766 223.6 68.977C223.716 69.275 223.887 69.5088 224.111 69.6781C224.335 69.8454 224.609 69.9288 224.934 69.9288C225.272 69.9288 225.555 69.8406 225.781 69.6646C226.01 69.4862 226.181 69.2468 226.296 68.9465C226.412 68.6439 226.471 68.3074 226.471 67.9371C226.471 67.5713 226.413 67.2416 226.299 66.948C226.187 66.6522 226.017 66.4185 225.788 66.2469C225.562 66.073 225.277 65.9861 224.934 65.9861C224.605 65.9861 224.328 66.0684 224.104 66.2333C223.88 66.3959 223.71 66.624 223.596 66.9175C223.482 67.2089 223.425 67.5487 223.425 67.9371ZM228.225 70.5385V65.3357H229.035V70.5385H228.225ZM228.637 64.4686C228.479 64.4686 228.343 64.4155 228.229 64.3094C228.117 64.2032 228.061 64.0756 228.061 63.9266C228.061 63.7775 228.117 63.65 228.229 63.5439C228.343 63.4377 228.479 63.3846 228.637 63.3846C228.795 63.3846 228.93 63.4377 229.042 63.5439C229.156 63.65 229.213 63.7775 229.213 63.9266C229.213 64.0756 229.156 64.2032 229.042 64.3094C228.93 64.4155 228.795 64.4686 228.637 64.4686ZM232.519 65.3357V66.0131H229.789V65.3357H232.519ZM230.584 64.0892H231.394V69.0481C231.394 69.2739 231.427 69.4433 231.494 69.5562C231.562 69.6668 231.649 69.7414 231.754 69.7798C231.862 69.816 231.975 69.8338 232.094 69.8338C232.183 69.8338 232.256 69.8295 232.314 69.8203C232.371 69.8092 232.417 69.8001 232.451 69.7933L232.615 70.5115C232.561 70.5317 232.484 70.552 232.386 70.5723C232.287 70.5949 232.163 70.6061 232.012 70.6061C231.783 70.6061 231.559 70.5576 231.339 70.4606C231.122 70.3636 230.941 70.2158 230.797 70.0171C230.656 69.8183 230.584 69.5675 230.584 69.2649V64.0892ZM234.998 70.6605C234.664 70.6605 234.361 70.5985 234.089 70.4741C233.816 70.3477 233.601 70.1657 233.44 69.9288C233.28 69.6894 233.2 69.4004 233.2 69.0617C233.2 68.7636 233.26 68.5219 233.379 68.3368C233.498 68.1493 233.657 68.0026 233.855 67.8965C234.054 67.7903 234.274 67.7113 234.514 67.6593C234.757 67.6051 235 67.5623 235.245 67.5306C235.565 67.49 235.824 67.4595 236.023 67.4392C236.225 67.4166 236.371 67.3793 236.462 67.3274C236.556 67.2755 236.603 67.1851 236.603 67.0564V67.0293C236.603 66.6951 236.511 66.4354 236.325 66.2502C236.142 66.0651 235.865 65.9725 235.492 65.9725C235.105 65.9725 234.802 66.056 234.583 66.2231C234.363 66.3903 234.209 66.5687 234.119 66.7583L233.351 66.4873C233.488 66.1712 233.672 65.9251 233.9 65.7489C234.131 65.5705 234.383 65.4463 234.655 65.3764C234.929 65.3041 235.199 65.2679 235.464 65.2679C235.634 65.2679 235.828 65.2883 236.047 65.3289C236.269 65.3673 236.483 65.4475 236.689 65.5694C236.897 65.6914 237.07 65.8754 237.207 66.1215C237.344 66.3677 237.413 66.6974 237.413 67.1106V70.5385H236.603V69.8338H236.562C236.507 69.9467 236.416 70.0675 236.288 70.1963C236.159 70.3251 235.989 70.4348 235.777 70.525C235.564 70.6152 235.304 70.6605 234.998 70.6605ZM235.121 69.9423C235.441 69.9423 235.711 69.8803 235.931 69.7559C236.152 69.6319 236.32 69.4715 236.432 69.275C236.546 69.0786 236.603 68.872 236.603 68.6552V67.9236C236.569 67.9642 236.493 68.0015 236.377 68.0353C236.262 68.0669 236.13 68.0952 235.979 68.12C235.83 68.1426 235.685 68.1629 235.543 68.181C235.404 68.1968 235.29 68.2103 235.203 68.2216C234.993 68.2487 234.796 68.2927 234.614 68.3537C234.433 68.4124 234.287 68.5016 234.175 68.6213C234.065 68.7387 234.01 68.8991 234.01 69.1023C234.01 69.38 234.114 69.5901 234.322 69.7323C234.532 69.8724 234.799 69.9423 235.121 69.9423ZM239.41 63.6014V70.5385H238.6V63.6014H239.41ZM241.193 70.5925C241.024 70.5925 240.878 70.5329 240.757 70.4133C240.636 70.2937 240.575 70.1502 240.575 69.9829C240.575 69.816 240.636 69.6725 240.757 69.5528C240.878 69.4331 241.024 69.3733 241.193 69.3733C241.362 69.3733 241.508 69.4331 241.629 69.5528C241.75 69.6725 241.811 69.816 241.811 69.9829C241.811 70.0938 241.782 70.1951 241.725 70.2877C241.67 70.3803 241.596 70.455 241.502 70.5115C241.41 70.5655 241.308 70.5925 241.193 70.5925ZM243.564 70.5925C243.394 70.5925 243.249 70.5329 243.128 70.4133C243.006 70.2937 242.946 70.1502 242.946 69.9829C242.946 69.816 243.006 69.6725 243.128 69.5528C243.249 69.4331 243.394 69.3733 243.564 69.3733C243.733 69.3733 243.878 69.4331 243.999 69.5528C244.12 69.6725 244.181 69.816 244.181 69.9829C244.181 70.0938 244.152 70.1951 244.095 70.2877C244.04 70.3803 243.966 70.455 243.872 70.5115C243.781 70.5655 243.678 70.5925 243.564 70.5925ZM245.934 70.5925C245.765 70.5925 245.619 70.5329 245.498 70.4133C245.377 70.2937 245.316 70.1502 245.316 69.9829C245.316 69.816 245.377 69.6725 245.498 69.5528C245.619 69.4331 245.765 69.3733 245.934 69.3733C246.103 69.3733 246.249 69.4331 246.37 69.5528C246.491 69.6725 246.551 69.816 246.551 69.9829C246.551 70.0938 246.523 70.1951 246.465 70.2877C246.411 70.3803 246.336 70.455 246.242 70.5115C246.151 70.5655 246.048 70.5925 245.934 70.5925Z" fill="#13293D"/>
<path d="M43.9092 55.0384V45.789H49.7178V46.9904H45.3225V49.8085H49.3016V51.0054H45.3225V55.0384H43.9092ZM52.979 55.192C52.5338 55.192 52.1314 55.1107 51.7715 54.9481C51.4117 54.7825 51.1267 54.5432 50.9162 54.23C50.7089 53.9169 50.6052 53.533 50.6052 53.0784C50.6052 52.6869 50.6815 52.3648 50.8339 52.1119C50.9864 51.8589 51.1922 51.6587 51.4514 51.5112C51.7106 51.3637 52.0002 51.2523 52.3204 51.177C52.6405 51.1017 52.9668 51.0445 53.2992 51.0054C53.7199 50.9572 54.0615 50.9181 54.3237 50.8879C54.5859 50.8548 54.7765 50.8021 54.8954 50.7299C55.0143 50.6576 55.0738 50.5402 55.0738 50.3776V50.346C55.0738 49.9516 54.961 49.6459 54.7353 49.4292C54.5127 49.2124 54.1804 49.104 53.7383 49.104C53.2778 49.104 52.915 49.2049 52.6497 49.4066C52.3875 49.6053 52.2061 49.8266 52.1054 50.0705L50.8202 49.7814C50.9727 49.3599 51.1952 49.0197 51.488 48.7607C51.7837 48.4988 52.1237 48.3091 52.5079 48.1917C52.8921 48.0713 53.2961 48.0111 53.7199 48.0111C54.0005 48.0111 54.2978 48.0442 54.6119 48.1104C54.9289 48.1736 55.2247 48.291 55.4991 48.4627C55.7766 48.6343 56.0038 48.8797 56.1806 49.1988C56.3575 49.515 56.4459 49.926 56.4459 50.4318V55.0384H55.1104V54.09H55.0555C54.9671 54.2646 54.8344 54.4362 54.6576 54.6049C54.4807 54.7735 54.2536 54.9135 53.9761 55.0249C53.6986 55.1363 53.3663 55.192 52.979 55.192ZM53.2763 54.1081C53.6544 54.1081 53.9776 54.0343 54.246 53.8868C54.5173 53.7393 54.7231 53.5465 54.8634 53.3087C55.0067 53.0678 55.0783 52.8104 55.0783 52.5364V51.6421C55.0296 51.6904 54.9351 51.7355 54.7948 51.7777C54.6576 51.8168 54.5005 51.8514 54.3237 51.8815C54.1469 51.9086 53.9746 51.9342 53.8069 51.9583C53.6392 51.9794 53.4989 51.9975 53.3861 52.0125C53.1208 52.0456 52.8784 52.1013 52.6589 52.1796C52.4424 52.2579 52.2686 52.3708 52.1374 52.5183C52.0094 52.6628 51.9454 52.8556 51.9454 53.0964C51.9454 53.4306 52.0704 53.6835 52.3204 53.8552C52.5704 54.0238 52.8891 54.1081 53.2763 54.1081ZM60.8402 55.1785C60.1603 55.1785 59.5748 55.0264 59.0839 54.7223C58.5961 54.4152 58.221 53.9921 57.9588 53.4532C57.6965 52.9143 57.5654 52.297 57.5654 51.6015C57.5654 50.897 57.6996 50.2752 57.9679 49.7363C58.2362 49.1943 58.6143 48.7713 59.1022 48.4672C59.5901 48.1631 60.1648 48.0111 60.8265 48.0111C61.3601 48.0111 61.8358 48.1089 62.2535 48.3046C62.6713 48.4973 63.0082 48.7683 63.2643 49.1176C63.5235 49.4668 63.6775 49.8748 63.7263 50.3415H62.3953C62.3221 50.0163 62.1544 49.7363 61.8922 49.5014C61.633 49.2666 61.2854 49.1492 60.8494 49.1492C60.4682 49.1492 60.1343 49.2485 59.8477 49.4472C59.5642 49.6429 59.3431 49.923 59.1845 50.2873C59.026 50.6486 58.9467 51.0761 58.9467 51.5699C58.9467 52.0758 59.0245 52.5123 59.18 52.8796C59.3355 53.247 59.555 53.5315 59.8386 53.7332C60.1252 53.935 60.4621 54.0358 60.8494 54.0358C61.1086 54.0358 61.3433 53.9891 61.5537 53.8958C61.7672 53.7995 61.9455 53.6625 62.0889 53.4848C62.2352 53.3072 62.3374 53.0934 62.3953 52.8435H63.7263C63.6775 53.2921 63.5296 53.6926 63.2826 54.0448C63.0356 54.3971 62.7048 54.6741 62.2901 54.8758C61.8785 55.0776 61.3952 55.1785 60.8402 55.1785ZM64.8023 55.0384V48.1014H66.1699V55.0384H64.8023ZM65.493 47.031C65.2551 47.031 65.0508 46.9527 64.8801 46.7962C64.7124 46.6366 64.6285 46.4469 64.6285 46.2271C64.6285 46.0043 64.7124 45.8146 64.8801 45.658C65.0508 45.4985 65.2551 45.4187 65.493 45.4187C65.7308 45.4187 65.9336 45.4985 66.1013 45.658C66.272 45.8146 66.3574 46.0043 66.3574 46.2271C66.3574 46.4469 66.272 46.6366 66.1013 46.7962C65.9336 46.9527 65.7308 47.031 65.493 47.031ZM68.9908 45.789V55.0384H67.6233V45.789H68.9908ZM70.4442 55.0384V48.1014H71.8119V55.0384H70.4442ZM71.1349 47.031C70.897 47.031 70.6929 46.9527 70.5219 46.7962C70.3544 46.6366 70.2703 46.4469 70.2703 46.2271C70.2703 46.0043 70.3544 45.8146 70.5219 45.658C70.6929 45.4985 70.897 45.4187 71.1349 45.4187C71.3727 45.4187 71.5756 45.4985 71.743 45.658C71.9141 45.8146 71.9994 46.0043 71.9994 46.2271C71.9994 46.4469 71.9141 46.6366 71.743 46.7962C71.5756 46.9527 71.3727 47.031 71.1349 47.031ZM76.5447 48.1014V49.1853H72.707V48.1014H76.5447ZM73.7362 46.4394H75.1038V53.0016C75.1038 53.2635 75.1437 53.4607 75.2225 53.5932C75.3018 53.7227 75.4041 53.8115 75.5292 53.8597C75.6572 53.9048 75.7961 53.9274 75.9454 53.9274C76.0553 53.9274 76.1511 53.9199 76.2336 53.9048C76.3157 53.8898 76.3797 53.8777 76.4256 53.8687L76.6727 54.9842C76.5934 55.0144 76.4803 55.0445 76.3342 55.0746C76.1877 55.1077 76.005 55.1258 75.7852 55.1288C75.4254 55.1348 75.0901 55.0715 74.779 54.9391C74.4679 54.8066 74.2163 54.6019 74.0243 54.3248C73.8323 54.0479 73.7362 53.7001 73.7362 53.2816V46.4394ZM78.5354 57.6399C78.331 57.6399 78.145 57.6233 77.9772 57.5902C77.8097 57.56 77.6846 57.5269 77.6025 57.4908L77.9317 56.3843C78.1816 56.4505 78.4042 56.4791 78.5994 56.4701C78.7946 56.4611 78.9669 56.3888 79.1162 56.2533C79.2688 56.1178 79.4028 55.8965 79.5187 55.5894L79.6878 55.1288L77.1175 48.1014H78.5809L80.3603 53.4848H80.4336L82.2126 48.1014H83.6809L80.7858 55.9643C80.6513 56.3256 80.4807 56.6312 80.2734 56.8811C80.0661 57.134 79.819 57.3237 79.5324 57.4502C79.2458 57.5766 78.9134 57.6399 78.5354 57.6399ZM88.5027 55.0384H87.0026L90.3735 45.789H92.0064L95.3772 55.0384H93.8771L91.2287 47.4691H91.1555L88.5027 55.0384ZM88.7542 51.4164H93.6207V52.5906H88.7542V51.4164Z" fill="#13293D"/>
<path d="M401.9 42.7179H290.008C288.23 42.7179 286.788 44.1414 286.788 45.8974V61.7948C286.788 63.5508 288.23 64.9743 290.008 64.9743H401.9C403.678 64.9743 405.12 63.5508 405.12 61.7948V45.8974C405.12 44.1414 403.678 42.7179 401.9 42.7179Z" fill="#81A3BE" fill-opacity="0.3"/>
<path d="M319.38 56.7073C319.12 56.7035 318.862 56.6564 318.609 56.5661C318.357 56.4758 318.129 56.3253 317.923 56.1145C317.717 55.9037 317.552 55.6205 317.428 55.2649C317.306 54.9092 317.245 54.4651 317.245 53.9325C317.245 53.4282 317.296 52.9804 317.397 52.5889C317.499 52.1975 317.647 51.8673 317.84 51.5982C318.032 51.3272 318.265 51.1212 318.537 50.98C318.81 50.8389 319.115 50.7683 319.455 50.7683C319.804 50.7683 320.113 50.836 320.384 50.9715C320.655 51.107 320.874 51.2943 321.041 51.5333C321.211 51.7722 321.319 52.0442 321.364 52.349H320.492C320.433 52.1081 320.316 51.9115 320.141 51.7591C319.966 51.6067 319.737 51.5304 319.455 51.5304C319.026 51.5304 318.692 51.7148 318.451 52.0837C318.213 52.4525 318.093 52.9653 318.091 53.6221H318.134C318.235 53.4583 318.359 53.3191 318.506 53.2043C318.655 53.0876 318.82 52.9982 319.003 52.9361C319.188 52.8721 319.382 52.8402 319.586 52.8402C319.926 52.8402 320.232 52.922 320.507 53.0857C320.783 53.2476 321.003 53.4715 321.167 53.7575C321.331 54.0436 321.413 54.371 321.413 54.7398C321.413 55.1087 321.328 55.4427 321.159 55.7419C320.991 56.0411 320.754 56.2782 320.45 56.4532C320.145 56.6264 319.788 56.711 319.38 56.7073ZM319.377 55.9734C319.602 55.9734 319.804 55.9188 319.981 55.8096C320.158 55.7005 320.298 55.5537 320.401 55.3693C320.504 55.1849 320.556 54.9788 320.556 54.7511C320.556 54.5291 320.505 54.3268 320.404 54.1443C320.305 53.9617 320.168 53.8168 319.992 53.7095C319.819 53.6023 319.621 53.5487 319.398 53.5487C319.228 53.5487 319.071 53.5806 318.926 53.6446C318.783 53.7086 318.657 53.7971 318.549 53.91C318.44 54.0229 318.354 54.1527 318.292 54.2995C318.23 54.4444 318.2 54.5978 318.2 54.7596C318.2 54.976 318.251 55.1764 318.352 55.3608C318.454 55.5453 318.594 55.6939 318.772 55.8068C318.951 55.9178 319.153 55.9734 319.377 55.9734ZM324.811 53.8196V54.5507H322.215V53.8196H324.811ZM325.709 56.6282V52.2926H326.529V52.9982H326.584C326.675 52.7593 326.825 52.5729 327.032 52.4393C327.24 52.3038 327.489 52.2361 327.778 52.2361C328.072 52.2361 328.318 52.3038 328.516 52.4393C328.716 52.5748 328.864 52.7611 328.959 52.9982H329.005C329.11 52.7668 329.276 52.5824 329.505 52.445C329.734 52.3058 330.006 52.2361 330.323 52.2361C330.721 52.2361 331.046 52.3594 331.297 52.6059C331.551 52.8524 331.678 53.2241 331.678 53.7209V56.6282H330.823V53.7999C330.823 53.5063 330.742 53.2937 330.58 53.1619C330.418 53.0302 330.225 52.9643 330 52.9643C329.721 52.9643 329.505 53.049 329.351 53.2184C329.196 53.3859 329.119 53.6014 329.119 53.8648V56.6282H328.267V53.7463C328.267 53.511 328.193 53.3219 328.044 53.1789C327.896 53.0359 327.702 52.9643 327.464 52.9643C327.302 52.9643 327.152 53.0067 327.015 53.0914C326.88 53.1742 326.77 53.2899 326.686 53.4386C326.605 53.5872 326.564 53.7594 326.564 53.9551V56.6282H325.709ZM334.431 56.7157C334.02 56.7157 333.66 56.6226 333.354 56.4363C333.047 56.25 332.809 55.9893 332.639 55.6544C332.469 55.3194 332.384 54.928 332.384 54.4802C332.384 54.0304 332.469 53.6371 332.639 53.3003C332.809 52.9634 333.047 52.7018 333.354 52.5156C333.66 52.3292 334.02 52.2361 334.431 52.2361C334.843 52.2361 335.202 52.3292 335.509 52.5156C335.816 52.7018 336.054 52.9634 336.224 53.3003C336.393 53.6371 336.478 54.0304 336.478 54.4802C336.478 54.928 336.393 55.3194 336.224 55.6544C336.054 55.9893 335.816 56.25 335.509 56.4363C335.202 56.6226 334.843 56.7157 334.431 56.7157ZM334.434 56.0072C334.701 56.0072 334.922 55.9376 335.097 55.7983C335.273 55.6591 335.402 55.4738 335.486 55.2423C335.572 55.0108 335.615 54.7558 335.615 54.4773C335.615 54.2007 335.572 53.9466 335.486 53.7152C335.402 53.4818 335.273 53.2946 335.097 53.1535C334.922 53.0124 334.701 52.9418 334.434 52.9418C334.165 52.9418 333.942 53.0124 333.765 53.1535C333.59 53.2946 333.459 53.4818 333.374 53.7152C333.29 53.9466 333.248 54.2007 333.248 54.4773C333.248 54.7558 333.29 55.0108 333.374 55.2423C333.459 55.4738 333.59 55.6591 333.765 55.7983C333.942 55.9376 334.165 56.0072 334.434 56.0072ZM338.045 54.0539V56.6282H337.19V52.2926H338.011V52.9982H338.065C338.166 52.7686 338.324 52.5842 338.54 52.445C338.757 52.3058 339.03 52.2361 339.36 52.2361C339.659 52.2361 339.921 52.2982 340.146 52.4224C340.371 52.5447 340.546 52.7273 340.669 52.97C340.793 53.2127 340.855 53.5129 340.855 53.8705V56.6282H340.001V53.9721C340.001 53.6578 339.918 53.4122 339.752 53.2354C339.586 53.0566 339.358 52.9672 339.069 52.9672C338.87 52.9672 338.694 53.0095 338.54 53.0942C338.387 53.1789 338.266 53.3031 338.177 53.4668C338.089 53.6287 338.045 53.8244 338.045 54.0539ZM343.809 52.2926V52.97H341.411V52.2926H343.809ZM342.055 51.2538H342.909V55.3552C342.909 55.5189 342.934 55.6421 342.984 55.725C343.033 55.8059 343.097 55.8614 343.175 55.8915C343.255 55.9197 343.342 55.9338 343.435 55.9338C343.504 55.9338 343.564 55.9291 343.615 55.9197C343.667 55.9103 343.707 55.9028 343.735 55.8971L343.89 56.5944C343.84 56.6132 343.77 56.632 343.678 56.6508C343.586 56.6715 343.472 56.6828 343.335 56.6847C343.11 56.6884 342.901 56.6489 342.706 56.5661C342.512 56.4833 342.354 56.3553 342.234 56.1822C342.115 56.0091 342.055 55.7918 342.055 55.5302V51.2538ZM345.462 54.0539V56.6282H344.608V50.8473H345.451V52.9982H345.506C345.609 52.7649 345.766 52.5795 345.977 52.4422C346.189 52.3048 346.465 52.2361 346.806 52.2361C347.107 52.2361 347.37 52.2972 347.595 52.4196C347.822 52.5419 347.997 52.7245 348.121 52.9672C348.247 53.2081 348.31 53.5091 348.31 53.8705V56.6282H347.455V53.9721C347.455 53.6541 347.372 53.4075 347.206 53.2325C347.041 53.0556 346.81 52.9672 346.515 52.9672C346.313 52.9672 346.131 53.0095 345.972 53.0942C345.813 53.1789 345.689 53.3031 345.597 53.4668C345.508 53.6287 345.462 53.8244 345.462 54.0539ZM351.167 56.6282V50.8473H353.253C353.707 50.8473 354.083 50.9245 354.382 51.0788C354.683 51.2331 354.908 51.4467 355.057 51.7195C355.206 51.9905 355.28 52.3038 355.28 52.6595C355.28 53.0133 355.205 53.3247 355.054 53.5938C354.905 53.861 354.681 54.069 354.38 54.2177C354.08 54.3663 353.704 54.4406 353.25 54.4406H351.67V53.6898H353.17C353.456 53.6898 353.689 53.6493 353.868 53.5684C354.049 53.4875 354.181 53.3699 354.265 53.2156C354.349 53.0613 354.391 52.8759 354.391 52.6595C354.391 52.4412 354.348 52.2521 354.262 52.0921C354.178 51.9322 354.046 51.8099 353.865 51.7252C353.686 51.6386 353.45 51.5953 353.159 51.5953H352.05V56.6282H351.167ZM354.056 54.0201L355.503 56.6282H354.497L353.079 54.0201H354.056ZM357.882 56.7157C357.449 56.7157 357.077 56.6244 356.764 56.4419C356.454 56.2575 356.213 55.9988 356.044 55.6657C355.876 55.3307 355.792 54.9384 355.792 54.4886C355.792 54.0445 355.876 53.6531 356.044 53.3144C356.213 52.9757 356.45 52.7113 356.753 52.5212C357.058 52.3311 357.414 52.2361 357.822 52.2361C358.07 52.2361 358.31 52.2766 358.542 52.3575C358.775 52.4384 358.983 52.5654 359.168 52.7386C359.353 52.9117 359.499 53.1366 359.606 53.4132C359.713 53.6879 359.766 54.0219 359.766 54.4152V54.7145H356.275V54.0822H358.928C358.928 53.8601 358.883 53.6634 358.791 53.4922C358.7 53.3191 358.571 53.1827 358.405 53.0829C358.241 52.9832 358.049 52.9333 357.828 52.9333C357.587 52.9333 357.378 52.9916 357.199 53.1083C357.022 53.2231 356.884 53.3737 356.787 53.5599C356.692 53.7444 356.644 53.9448 356.644 54.1612V54.6552C356.644 54.945 356.696 55.1915 356.799 55.3947C356.903 55.598 357.049 55.7532 357.236 55.8605C357.423 55.9658 357.641 56.0185 357.891 56.0185C358.053 56.0185 358.2 55.9959 358.334 55.9508C358.467 55.9037 358.582 55.8341 358.679 55.7419C358.777 55.6497 358.851 55.5358 358.902 55.4003L359.711 55.5443C359.647 55.7795 359.53 55.9856 359.363 56.1625C359.197 56.3375 358.988 56.4739 358.737 56.5718C358.487 56.6677 358.202 56.7157 357.882 56.7157ZM360.472 58.2541V52.2926H361.307V52.9954H361.379C361.428 52.9051 361.5 52.8006 361.593 52.6821C361.686 52.5635 361.816 52.46 361.982 52.3716C362.148 52.2813 362.367 52.2361 362.64 52.2361C362.994 52.2361 363.31 52.3246 363.589 52.5014C363.867 52.6783 364.085 52.9333 364.243 53.2664C364.403 53.5995 364.483 54.0003 364.483 54.4689C364.483 54.9374 364.404 55.3392 364.246 55.6741C364.088 56.0072 363.871 56.2641 363.594 56.4448C363.318 56.6235 363.003 56.7129 362.648 56.7129C362.381 56.7129 362.163 56.6687 361.993 56.5803C361.826 56.4918 361.694 56.3883 361.599 56.2697C361.504 56.1512 361.43 56.0458 361.379 55.9536H361.327V58.2541H360.472ZM361.31 54.4604C361.31 54.7652 361.355 55.0324 361.445 55.262C361.534 55.4916 361.664 55.6713 361.833 55.8012C362.003 55.9291 362.21 55.9931 362.456 55.9931C362.712 55.9931 362.925 55.9263 363.097 55.7927C363.268 55.6572 363.398 55.4738 363.486 55.2423C363.575 55.0108 363.62 54.7502 363.62 54.4604C363.62 54.1744 363.576 53.9175 363.488 53.6898C363.403 53.4621 363.273 53.2824 363.1 53.1507C362.928 53.019 362.714 52.9531 362.456 52.9531C362.209 52.9531 361.999 53.0161 361.828 53.1422C361.658 53.2683 361.529 53.4442 361.442 53.67C361.354 53.8959 361.31 54.1593 361.31 54.4604ZM367.049 56.7157C366.637 56.7157 366.278 56.6226 365.971 56.4363C365.664 56.25 365.426 55.9893 365.256 55.6544C365.087 55.3194 365.002 54.928 365.002 54.4802C365.002 54.0304 365.087 53.6371 365.256 53.3003C365.426 52.9634 365.664 52.7018 365.971 52.5156C366.278 52.3292 366.637 52.2361 367.049 52.2361C367.461 52.2361 367.82 52.3292 368.127 52.5156C368.433 52.7018 368.672 52.9634 368.841 53.3003C369.011 53.6371 369.095 54.0304 369.095 54.4802C369.095 54.928 369.011 55.3194 368.841 55.6544C368.672 55.9893 368.433 56.25 368.127 56.4363C367.82 56.6226 367.461 56.7157 367.049 56.7157ZM367.052 56.0072C367.318 56.0072 367.539 55.9376 367.715 55.7983C367.89 55.6591 368.02 55.4738 368.104 55.2423C368.189 55.0108 368.233 54.7558 368.233 54.4773C368.233 54.2007 368.189 53.9466 368.104 53.7152C368.02 53.4818 367.89 53.2946 367.715 53.1535C367.539 53.0124 367.318 52.9418 367.052 52.9418C366.783 52.9418 366.56 53.0124 366.383 53.1535C366.208 53.2946 366.077 53.4818 365.991 53.7152C365.907 53.9466 365.865 54.2007 365.865 54.4773C365.865 54.7558 365.907 55.0108 365.991 55.2423C366.077 55.4738 366.208 55.6591 366.383 55.7983C366.56 55.9376 366.783 56.0072 367.052 56.0072ZM369.808 56.6282V52.2926H370.634V52.9813H370.68C370.76 52.7479 370.901 52.5645 371.103 52.4309C371.307 52.2954 371.538 52.2277 371.795 52.2277C371.848 52.2277 371.911 52.2295 371.984 52.2333C372.058 52.237 372.116 52.2418 372.158 52.2474V53.0547C372.124 53.0453 372.063 53.0349 371.975 53.0236C371.887 53.0105 371.8 53.0039 371.712 53.0039C371.51 53.0039 371.33 53.0462 371.172 53.1309C371.015 53.2137 370.892 53.3294 370.8 53.4781C370.709 53.6249 370.663 53.7924 370.663 53.9805V56.6282H369.808ZM374.965 52.2926V52.97H372.567V52.2926H374.965ZM373.21 51.2538H374.065V55.3552C374.065 55.5189 374.09 55.6421 374.139 55.725C374.189 55.8059 374.253 55.8614 374.331 55.8915C374.411 55.9197 374.497 55.9338 374.591 55.9338C374.659 55.9338 374.719 55.9291 374.771 55.9197C374.822 55.9103 374.862 55.9028 374.891 55.8971L375.045 56.5944C374.996 56.6132 374.925 56.632 374.834 56.6508C374.742 56.6715 374.628 56.6828 374.491 56.6847C374.266 56.6884 374.056 56.6489 373.862 56.5661C373.667 56.4833 373.51 56.3553 373.39 56.1822C373.27 56.0091 373.21 55.7918 373.21 55.5302V51.2538Z" fill="#06789C"/>
<path d="M232.05 87.0321H46.0997C44.4326 87.0321 43.0811 88.3666 43.0811 90.0129V138.103C43.0811 139.749 44.4326 141.083 46.0997 141.083H232.05C233.717 141.083 235.069 139.749 235.069 138.103V90.0129C235.069 88.3666 233.717 87.0321 232.05 87.0321Z" fill="#81A3BE" fill-opacity="0.15"/>
<path d="M232.05 87.0321H46.0997C44.4326 87.0321 43.0811 88.3666 43.0811 90.0129V138.103C43.0811 139.749 44.4326 141.083 46.0997 141.083H232.05C233.717 141.083 235.069 139.749 235.069 138.103V90.0129C235.069 88.3666 233.717 87.0321 232.05 87.0321Z" stroke="#00B0E8"/>
<mask id="mask0_342_7029" style="mask-type:luminance" maskUnits="userSpaceOnUse" x="52" y="93" width="75" height="42">
<path d="M52.5391 93.9872H126.597V134.128H52.5391V93.9872Z" fill="white"/>
</mask>
<g mask="url(#mask0_342_7029)">
<path d="M126.194 93.9872V134.128H126.999V93.9872H126.194Z" fill="#81A3BE"/>
</g>
<path d="M66.4648 101.322H67.5368L69.4006 105.815H69.4692L71.333 101.322H72.4052V107.103H71.5644V102.919H71.5105L69.7837 107.094H69.0862L67.3596 102.916H67.3053V107.103H66.4648V101.322ZM74.6567 107.198C74.3786 107.198 74.127 107.148 73.902 107.046C73.6775 106.943 73.4992 106.793 73.3675 106.597C73.2379 106.401 73.1731 106.162 73.1731 105.878C73.1731 105.633 73.221 105.431 73.3164 105.273C73.4114 105.115 73.5402 104.99 73.702 104.898C73.8642 104.806 74.0453 104.736 74.2454 104.689C74.4454 104.642 74.6495 104.606 74.8572 104.582C75.12 104.552 75.3333 104.527 75.4975 104.508C75.6613 104.488 75.7805 104.455 75.8545 104.409C75.929 104.365 75.966 104.291 75.966 104.189V104.17C75.966 103.923 75.8956 103.732 75.7547 103.597C75.6154 103.461 75.4078 103.394 75.1312 103.394C74.8439 103.394 74.6169 103.456 74.451 103.582C74.2872 103.707 74.1737 103.845 74.1109 103.998L73.3076 103.817C73.403 103.553 73.5422 103.341 73.725 103.179C73.9097 103.015 74.1222 102.897 74.3625 102.823C74.6028 102.748 74.8551 102.71 75.12 102.71C75.2955 102.71 75.481 102.731 75.6774 102.772C75.8755 102.812 76.0606 102.885 76.2321 102.993C76.4055 103.1 76.5472 103.253 76.6579 103.453C76.7686 103.65 76.8237 103.907 76.8237 104.223V107.103H75.989V106.51H75.9547C75.8996 106.619 75.8167 106.726 75.706 106.831C75.5953 106.937 75.4536 107.025 75.2802 107.094C75.1067 107.164 74.899 107.198 74.6567 107.198ZM74.8427 106.521C75.0789 106.521 75.281 106.475 75.4488 106.383C75.6183 106.291 75.7471 106.17 75.8348 106.021C75.9242 105.871 75.9688 105.71 75.9688 105.539V104.98C75.9386 105.01 75.8795 105.038 75.7917 105.064C75.706 105.089 75.6078 105.111 75.4975 105.13C75.3868 105.146 75.279 105.162 75.1743 105.177C75.0697 105.19 74.9819 105.202 74.9115 105.211C74.7457 105.232 74.5939 105.267 74.4567 105.316C74.3214 105.365 74.2128 105.435 74.1311 105.527C74.051 105.618 74.0107 105.738 74.0107 105.889C74.0107 106.098 74.0892 106.256 74.2454 106.363C74.4015 106.468 74.6008 106.521 74.8427 106.521ZM77.7205 107.103V102.767H78.5754V107.103H77.7205ZM78.1523 102.098C78.0038 102.098 77.8758 102.049 77.7692 101.951C77.6645 101.851 77.6122 101.733 77.6122 101.595C77.6122 101.456 77.6645 101.338 77.7692 101.24C77.8758 101.14 78.0038 101.09 78.1523 101.09C78.3009 101.09 78.4276 101.14 78.5327 101.24C78.6393 101.338 78.6925 101.456 78.6925 101.595C78.6925 101.733 78.6393 101.851 78.5327 101.951C78.4276 102.049 78.3009 102.098 78.1523 102.098ZM80.3387 104.528V107.103H79.4838V102.767H80.304V103.472H80.3584C80.4594 103.243 80.6176 103.059 80.8329 102.919C81.0503 102.78 81.3236 102.71 81.6536 102.71C81.9526 102.71 82.2147 102.772 82.4397 102.897C82.6642 103.019 82.8389 103.202 82.9625 103.444C83.0865 103.687 83.1484 103.987 83.1484 104.345V107.103H82.2936V104.446C82.2936 104.132 82.211 103.886 82.0452 103.71C81.8794 103.531 81.6516 103.441 81.3618 103.441C81.1638 103.441 80.9875 103.484 80.8329 103.569C80.6804 103.653 80.5596 103.778 80.4699 103.941C80.3821 104.103 80.3387 104.299 80.3387 104.528ZM86.1027 102.767V103.444H83.7047V102.767H86.1027ZM84.3479 101.728H85.2023V105.83C85.2023 105.993 85.2273 106.116 85.2768 106.199C85.3263 106.28 85.3903 106.336 85.4684 106.366C85.5485 106.394 85.635 106.408 85.7284 106.408C85.7968 106.408 85.8572 106.403 85.9083 106.394C85.9598 106.385 86.0001 106.377 86.0287 106.372L86.1828 107.069C86.1333 107.087 86.0629 107.106 85.9715 107.125C85.8797 107.146 85.7654 107.157 85.6282 107.159C85.4036 107.163 85.1939 107.123 84.9995 107.04C84.8051 106.957 84.6477 106.829 84.5278 106.657C84.4078 106.483 84.3479 106.266 84.3479 106.004V101.728ZM88.6521 107.19C88.2194 107.19 87.8471 107.099 87.5344 106.916C87.2236 106.732 86.9838 106.473 86.8139 106.14C86.6465 105.805 86.5624 105.413 86.5624 104.963C86.5624 104.519 86.6465 104.127 86.8139 103.789C86.9838 103.45 87.22 103.185 87.5231 102.995C87.8278 102.805 88.1844 102.71 88.5921 102.71C88.8396 102.71 89.0799 102.751 89.3126 102.832C89.5448 102.913 89.7537 103.04 89.9384 103.213C90.1232 103.386 90.2693 103.611 90.3759 103.888C90.4826 104.162 90.5357 104.496 90.5357 104.89V105.189H87.0457V104.557H89.6982C89.6982 104.334 89.6527 104.138 89.5613 103.966C89.4695 103.793 89.3411 103.657 89.1753 103.557C89.0115 103.458 88.8187 103.408 88.5977 103.408C88.3575 103.408 88.1482 103.466 87.9691 103.582C87.7916 103.697 87.6543 103.848 87.5573 104.034C87.4619 104.219 87.4144 104.419 87.4144 104.636V105.13C87.4144 105.419 87.4659 105.666 87.5686 105.869C87.6736 106.072 87.8193 106.227 88.0061 106.335C88.1928 106.44 88.411 106.493 88.6605 106.493C88.8227 106.493 88.9705 106.47 89.1037 106.425C89.2373 106.378 89.3524 106.308 89.4498 106.216C89.5468 106.124 89.6213 106.01 89.6728 105.875L90.4814 106.019C90.4166 106.254 90.3007 106.46 90.1328 106.637C89.967 106.812 89.7585 106.948 89.507 107.046C89.257 107.142 88.9721 107.19 88.6521 107.19ZM92.0974 104.528V107.103H91.2429V102.767H92.0632V103.472H92.1175C92.2185 103.243 92.3767 103.059 92.5921 102.919C92.8094 102.78 93.0827 102.71 93.4123 102.71C93.7118 102.71 93.9738 102.772 94.1984 102.897C94.4234 103.019 94.5977 103.202 94.7216 103.444C94.8456 103.687 94.9076 103.987 94.9076 104.345V107.103H94.0527V104.446C94.0527 104.132 93.9698 103.886 93.8039 103.71C93.6381 103.531 93.4103 103.441 93.1209 103.441C92.9225 103.441 92.7462 103.484 92.5921 103.569C92.4395 103.653 92.3184 103.778 92.229 103.941C92.1413 104.103 92.0974 104.299 92.0974 104.528ZM97.0899 107.198C96.8118 107.198 96.5602 107.148 96.3352 107.046C96.1106 106.943 95.9323 106.793 95.8007 106.597C95.6711 106.401 95.6063 106.162 95.6063 105.878C95.6063 105.633 95.6542 105.431 95.7492 105.273C95.8446 105.115 95.9734 104.99 96.1352 104.898C96.2974 104.806 96.4785 104.736 96.6785 104.689C96.8786 104.642 97.0822 104.606 97.2903 104.582C97.5531 104.552 97.7665 104.527 97.9307 104.508C98.0945 104.488 98.2136 104.455 98.2877 104.409C98.3621 104.365 98.3992 104.291 98.3992 104.189V104.17C98.3992 103.923 98.3287 103.732 98.1879 103.597C98.0486 103.461 97.8409 103.394 97.5644 103.394C97.2766 103.394 97.05 103.456 96.8842 103.582C96.7204 103.707 96.6069 103.845 96.5441 103.998L95.7407 103.817C95.8361 103.553 95.9754 103.341 96.1581 103.179C96.3429 103.015 96.5554 102.897 96.7957 102.823C97.0355 102.748 97.2883 102.71 97.5531 102.71C97.7286 102.71 97.9142 102.731 98.1106 102.772C98.3086 102.812 98.4938 102.885 98.6652 102.993C98.8387 103.1 98.9804 103.253 99.0911 103.453C99.2017 103.65 99.2569 103.907 99.2569 104.223V107.103H98.4221V106.51H98.3879C98.3328 106.619 98.2499 106.726 98.1392 106.831C98.0285 106.937 97.8868 107.025 97.7133 107.094C97.5399 107.164 97.3322 107.198 97.0899 107.198ZM97.2758 106.521C97.5121 106.521 97.7141 106.475 97.882 106.383C98.0514 106.291 98.1802 106.17 98.268 106.021C98.3573 105.871 98.402 105.71 98.402 105.539V104.98C98.3718 105.01 98.3126 105.038 98.2249 105.064C98.1392 105.089 98.041 105.111 97.9307 105.13C97.82 105.146 97.7121 105.162 97.6075 105.177C97.5028 105.19 97.4151 105.202 97.3447 105.211C97.1788 105.232 97.0271 105.267 96.8898 105.316C96.7546 105.365 96.6459 105.435 96.5642 105.527C96.4841 105.618 96.4439 105.738 96.4439 105.889C96.4439 106.098 96.522 106.256 96.6785 106.363C96.8347 106.468 97.0339 106.521 97.2758 106.521ZM101.009 104.528V107.103H100.154V102.767H100.974V103.472H101.029C101.13 103.243 101.288 103.059 101.503 102.919C101.72 102.78 101.994 102.71 102.323 102.71C102.622 102.71 102.885 102.772 103.11 102.897C103.335 103.019 103.509 103.202 103.633 103.444C103.757 103.687 103.819 103.987 103.819 104.345V107.103H102.964V104.446C102.964 104.132 102.881 103.886 102.715 103.71C102.549 103.531 102.321 103.441 102.032 103.441C101.834 103.441 101.657 103.484 101.503 103.569C101.351 103.653 101.229 103.778 101.14 103.941C101.052 104.103 101.009 104.299 101.009 104.528ZM106.573 107.19C106.148 107.19 105.782 107.095 105.475 106.905C105.17 106.713 104.936 106.449 104.772 106.112C104.608 105.775 104.526 105.389 104.526 104.954C104.526 104.514 104.61 104.125 104.777 103.789C104.945 103.45 105.182 103.185 105.487 102.995C105.791 102.805 106.151 102.71 106.564 102.71C106.898 102.71 107.195 102.772 107.456 102.894C107.717 103.014 107.928 103.184 108.088 103.402C108.25 103.62 108.346 103.875 108.376 104.167H107.545C107.499 103.964 107.394 103.789 107.23 103.642C107.068 103.495 106.851 103.422 106.579 103.422C106.34 103.422 106.132 103.484 105.953 103.608C105.775 103.73 105.637 103.905 105.538 104.133C105.439 104.359 105.389 104.626 105.389 104.934C105.389 105.251 105.438 105.523 105.535 105.753C105.632 105.983 105.77 106.161 105.947 106.287C106.126 106.413 106.337 106.476 106.579 106.476C106.74 106.476 106.887 106.447 107.019 106.388C107.152 106.328 107.264 106.242 107.353 106.132C107.445 106.02 107.509 105.887 107.545 105.731H108.376C108.346 106.011 108.254 106.262 108.099 106.482C107.945 106.701 107.738 106.875 107.479 107.001C107.222 107.127 106.919 107.19 106.573 107.19ZM110.942 107.19C110.509 107.19 110.136 107.099 109.824 106.916C109.513 106.732 109.273 106.473 109.103 106.14C108.936 105.805 108.852 105.413 108.852 104.963C108.852 104.519 108.936 104.127 109.103 103.789C109.273 103.45 109.509 103.185 109.813 102.995C110.117 102.805 110.474 102.71 110.882 102.71C111.129 102.71 111.369 102.751 111.602 102.832C111.834 102.913 112.043 103.04 112.228 103.213C112.413 103.386 112.558 103.611 112.665 103.888C112.772 104.162 112.825 104.496 112.825 104.89V105.189H109.335V104.557H111.988C111.988 104.334 111.942 104.138 111.85 103.966C111.759 103.793 111.631 103.657 111.465 103.557C111.301 103.458 111.108 103.408 110.887 103.408C110.647 103.408 110.438 103.466 110.258 103.582C110.081 103.697 109.944 103.848 109.847 104.034C109.751 104.219 109.704 104.419 109.704 104.636V105.13C109.704 105.419 109.755 105.666 109.858 105.869C109.963 106.072 110.109 106.227 110.296 106.335C110.482 106.44 110.7 106.493 110.95 106.493C111.112 106.493 111.26 106.47 111.393 106.425C111.527 106.378 111.642 106.308 111.739 106.216C111.836 106.124 111.911 106.01 111.962 105.875L112.771 106.019C112.706 106.254 112.59 106.46 112.422 106.637C112.256 106.812 112.048 106.948 111.796 107.046C111.547 107.142 111.262 107.19 110.942 107.19Z" fill="#999999"/>
<path d="M60.708 125.385V116.135H64.2206C64.9402 116.135 65.544 116.259 66.0318 116.505C66.5227 116.752 66.8932 117.099 67.1433 117.544C67.3963 117.987 67.5229 118.503 67.5229 119.093C67.5229 119.687 67.3948 120.201 67.1387 120.638C66.8856 121.072 66.5121 121.407 66.0181 121.645C65.5242 121.88 64.9174 121.997 64.1978 121.997H61.6959V120.606H63.9691C64.3899 120.606 64.7344 120.549 65.0027 120.435C65.2711 120.317 65.4693 120.147 65.5973 119.924C65.7284 119.698 65.794 119.421 65.794 119.093C65.794 118.765 65.7284 118.485 65.5973 118.253C65.4662 118.019 65.2665 117.841 64.9981 117.72C64.7298 117.597 64.3837 117.535 63.9599 117.535H62.4049V125.385H60.708ZM65.547 121.194L67.8659 125.385H65.9724L63.6946 121.194H65.547ZM71.9687 125.511C71.3102 125.511 70.7246 125.4 70.2123 125.177C69.7031 124.954 69.3006 124.644 69.0048 124.246C68.7091 123.849 68.552 123.39 68.5338 122.869H70.2537C70.2685 123.119 70.3527 123.337 70.5052 123.524C70.6573 123.707 70.8602 123.85 71.1134 123.953C71.3665 124.055 71.6499 124.106 71.9642 124.106C72.2995 124.106 72.5969 124.049 72.8561 123.935C73.115 123.817 73.3178 123.655 73.4643 123.447C73.6108 123.239 73.6825 123 73.6792 122.729C73.6825 122.449 73.6092 122.202 73.4599 121.988C73.3102 121.775 73.0936 121.607 72.8103 121.487C72.5297 121.366 72.1912 121.306 71.7948 121.306H70.9669V120.015H71.7948C72.1212 120.015 72.4062 119.959 72.6501 119.847C72.8972 119.736 73.0908 119.58 73.2309 119.378C73.3713 119.173 73.4398 118.937 73.4369 118.669C73.4398 118.407 73.3806 118.179 73.2586 117.987C73.1395 117.791 72.9705 117.639 72.7507 117.531C72.5342 117.422 72.2798 117.368 71.9868 117.368C71.7002 117.368 71.435 117.419 71.1911 117.522C70.9471 117.624 70.7503 117.77 70.601 117.96C70.4517 118.146 70.3724 118.369 70.3631 118.628H68.7304C68.7426 118.11 68.8936 117.656 69.1832 117.264C69.476 116.87 69.8663 116.563 70.3543 116.343C70.8421 116.12 71.3895 116.009 71.996 116.009C72.6211 116.009 73.1641 116.125 73.6245 116.356C74.0878 116.585 74.446 116.894 74.6992 117.282C74.9523 117.671 75.0787 118.1 75.0787 118.569C75.0819 119.09 74.9262 119.527 74.6122 119.879C74.3011 120.231 73.8926 120.462 73.3866 120.57V120.642C74.0451 120.733 74.5498 120.974 74.9004 121.365C75.2542 121.754 75.4293 122.237 75.4264 122.815C75.4264 123.333 75.2771 123.796 74.9781 124.206C74.6822 124.612 74.2737 124.931 73.7525 125.163C73.2341 125.395 72.6396 125.511 71.9687 125.511ZM80.0402 125.511C79.5922 125.508 79.1543 125.431 78.7277 125.281C78.3006 125.127 77.9167 124.879 77.5749 124.536C77.2336 124.189 76.9619 123.73 76.7607 123.158C76.5595 122.583 76.4604 121.871 76.4637 121.022C76.4637 120.23 76.549 119.524 76.7197 118.904C76.8903 118.284 77.1358 117.759 77.4562 117.332C77.7762 116.901 78.1618 116.573 78.6134 116.347C79.0674 116.122 79.5753 116.009 80.1364 116.009C80.7248 116.009 81.246 116.123 81.7005 116.352C82.1581 116.581 82.5268 116.894 82.8073 117.291C83.0878 117.686 83.2617 118.131 83.3289 118.628H81.6594C81.5741 118.273 81.3986 117.99 81.1334 117.779C80.8713 117.565 80.5389 117.459 80.1364 117.459C79.4868 117.459 78.9869 117.737 78.6363 118.294C78.2886 118.851 78.1131 119.616 78.1102 120.588H78.1742C78.3236 120.323 78.5172 120.096 78.755 119.906C78.9929 119.717 79.2614 119.57 79.56 119.468C79.8619 119.363 80.1807 119.31 80.5159 119.31C81.0649 119.31 81.5572 119.44 81.9931 119.698C82.4322 119.958 82.7799 120.314 83.0359 120.769C83.2923 121.221 83.4187 121.739 83.4159 122.322C83.4187 122.931 83.2786 123.477 82.9949 123.962C82.7115 124.444 82.3163 124.823 81.8103 125.1C81.304 125.377 80.714 125.514 80.0402 125.511ZM80.0309 124.156C80.3634 124.156 80.6608 124.076 80.9228 123.917C81.1853 123.757 81.3926 123.542 81.5451 123.271C81.6976 123 81.7721 122.696 81.7693 122.359C81.7721 122.027 81.6988 121.728 81.5495 121.46C81.4034 121.192 81.2006 120.98 80.9414 120.823C80.6822 120.667 80.3863 120.588 80.0539 120.588C79.8071 120.588 79.5769 120.635 79.3632 120.728C79.1499 120.822 78.9639 120.951 78.8054 121.117C78.6468 121.279 78.5216 121.469 78.4302 121.686C78.3417 121.899 78.2962 122.128 78.293 122.372C78.2962 122.694 78.3723 122.991 78.5216 123.262C78.6713 123.533 78.877 123.75 79.1394 123.912C79.4014 124.075 79.6989 124.156 80.0309 124.156ZM88.0055 125.511C87.5575 125.508 87.1196 125.431 86.6929 125.281C86.2659 125.127 85.8819 124.879 85.5402 124.536C85.1989 124.189 84.9272 123.73 84.726 123.158C84.5247 122.583 84.4257 121.871 84.4289 121.022C84.4289 120.23 84.5143 119.524 84.6849 118.904C84.8556 118.284 85.1011 117.759 85.4215 117.332C85.7415 116.901 86.127 116.573 86.5786 116.347C87.0326 116.122 87.5406 116.009 88.1017 116.009C88.6901 116.009 89.2113 116.123 89.6657 116.352C90.1234 116.581 90.492 116.894 90.7726 117.291C91.0531 117.686 91.227 118.131 91.2942 118.628H89.6247C89.5393 118.273 89.3639 117.99 89.0986 117.779C88.8366 117.565 88.5041 117.459 88.1017 117.459C87.452 117.459 86.9521 117.737 86.6016 118.294C86.2538 118.851 86.0783 119.616 86.0755 120.588H86.1395C86.2888 120.323 86.4824 120.096 86.7203 119.906C86.9582 119.717 87.2266 119.57 87.5253 119.468C87.8272 119.363 88.1459 119.31 88.4812 119.31C89.0302 119.31 89.5224 119.44 89.9583 119.698C90.3975 119.958 90.7452 120.314 91.0012 120.769C91.2576 121.221 91.384 121.739 91.3811 122.322C91.384 122.931 91.2439 123.477 90.9601 123.962C90.6768 124.444 90.2815 124.823 89.7756 125.1C89.2693 125.377 88.6792 125.514 88.0055 125.511ZM87.9962 124.156C88.3287 124.156 88.6261 124.076 88.8881 123.917C89.1505 123.757 89.3578 123.542 89.5104 123.271C89.6629 123 89.7374 122.696 89.7346 122.359C89.7374 122.027 89.6641 121.728 89.5148 121.46C89.3687 121.192 89.1658 120.98 88.9066 120.823C88.6474 120.667 88.3516 120.588 88.0191 120.588C87.7724 120.588 87.5422 120.635 87.3285 120.728C87.1152 120.822 86.9292 120.951 86.7706 121.117C86.612 121.279 86.4869 121.469 86.3955 121.686C86.307 121.899 86.2615 122.128 86.2583 122.372C86.2615 122.694 86.3375 122.991 86.4869 123.262C86.6366 123.533 86.8423 123.75 87.1047 123.912C87.3667 124.075 87.6641 124.156 87.9962 124.156ZM94.1 124.12L94.0408 124.617C93.9981 124.996 93.9217 125.381 93.8122 125.773C93.7051 126.168 93.5924 126.53 93.4737 126.861C93.3545 127.193 93.2588 127.453 93.1855 127.643H92.0694C92.1121 127.459 92.17 127.209 92.2433 126.893C92.3193 126.577 92.3926 126.222 92.4626 125.827C92.5327 125.433 92.5802 125.032 92.6047 124.626L92.6365 124.12H94.1ZM98.6477 125.561C97.8946 125.561 97.2482 125.373 96.7085 124.996C96.1716 124.617 95.7586 124.07 95.4688 123.357C95.1823 122.64 95.039 121.777 95.039 120.769C95.0422 119.76 95.1867 118.902 95.4737 118.195C95.763 117.484 96.1764 116.942 96.7129 116.569C97.2527 116.195 97.8974 116.009 98.6477 116.009C99.3979 116.009 100.043 116.195 100.582 116.569C101.122 116.942 101.535 117.484 101.822 118.195C102.112 118.905 102.256 119.763 102.256 120.769C102.256 121.781 102.112 122.645 101.822 123.361C101.535 124.075 101.122 124.62 100.582 124.996C100.046 125.373 99.4007 125.561 98.6477 125.561ZM98.6477 124.147C99.2329 124.147 99.695 123.862 100.033 123.294C100.375 122.721 100.546 121.88 100.546 120.769C100.546 120.034 100.468 119.417 100.312 118.917C100.157 118.418 99.9373 118.041 99.6539 117.788C99.3702 117.532 99.0349 117.404 98.6477 117.404C98.0653 117.404 97.6048 117.69 97.2663 118.263C96.9279 118.831 96.7572 119.667 96.754 120.769C96.7512 121.506 96.8256 122.127 96.9782 122.63C97.1339 123.132 97.3533 123.512 97.637 123.768C97.9204 124.021 98.2573 124.147 98.6477 124.147ZM106.852 125.561C106.099 125.561 105.452 125.373 104.913 124.996C104.376 124.617 103.963 124.07 103.673 123.357C103.387 122.64 103.243 121.777 103.243 120.769C103.246 119.76 103.391 118.902 103.678 118.195C103.967 117.484 104.381 116.942 104.917 116.569C105.457 116.195 106.102 116.009 106.852 116.009C107.602 116.009 108.247 116.195 108.787 116.569C109.326 116.942 109.739 117.484 110.026 118.195C110.316 118.905 110.461 119.763 110.461 120.769C110.461 121.781 110.316 122.645 110.026 123.361C109.739 124.075 109.326 124.62 108.787 124.996C108.25 125.373 107.605 125.561 106.852 125.561ZM106.852 124.147C107.437 124.147 107.899 123.862 108.238 123.294C108.579 122.721 108.75 121.88 108.75 120.769C108.75 120.034 108.672 119.417 108.517 118.917C108.361 118.418 108.142 118.041 107.858 117.788C107.575 117.532 107.239 117.404 106.852 117.404C106.27 117.404 105.809 117.69 105.471 118.263C105.132 118.831 104.962 119.667 104.958 120.769C104.956 121.506 105.03 122.127 105.183 122.63C105.338 123.132 105.558 123.512 105.841 123.768C106.125 124.021 106.462 124.147 106.852 124.147ZM115.056 125.561C114.303 125.561 113.657 125.373 113.117 124.996C112.58 124.617 112.167 124.07 111.878 123.357C111.591 122.64 111.448 121.777 111.448 120.769C111.45 119.76 111.595 118.902 111.882 118.195C112.172 117.484 112.585 116.942 113.122 116.569C113.661 116.195 114.306 116.009 115.056 116.009C115.806 116.009 116.451 116.195 116.991 116.569C117.53 116.942 117.944 117.484 118.23 118.195C118.52 118.905 118.665 119.763 118.665 120.769C118.665 121.781 118.52 122.645 118.23 123.361C117.944 124.075 117.53 124.62 116.991 124.996C116.454 125.373 115.809 125.561 115.056 125.561ZM115.056 124.147C115.642 124.147 116.104 123.862 116.442 123.294C116.783 122.721 116.954 121.88 116.954 120.769C116.954 120.034 116.876 119.417 116.721 118.917C116.565 118.418 116.346 118.041 116.062 117.788C115.779 117.532 115.444 117.404 115.056 117.404C114.474 117.404 114.014 117.69 113.675 118.263C113.337 118.831 113.165 119.667 113.163 120.769C113.159 121.506 113.234 122.127 113.387 122.63C113.542 123.132 113.762 123.512 114.045 123.768C114.329 124.021 114.666 124.147 115.056 124.147Z" fill="#06789C"/>
<path d="M139.348 103.202H138.456C138.422 103.013 138.358 102.848 138.265 102.705C138.171 102.562 138.057 102.44 137.922 102.34C137.786 102.241 137.635 102.166 137.467 102.115C137.301 102.064 137.125 102.039 136.938 102.039C136.601 102.039 136.299 102.122 136.032 102.29C135.767 102.457 135.557 102.703 135.403 103.026C135.251 103.35 135.175 103.745 135.175 104.212C135.175 104.683 135.251 105.08 135.403 105.403C135.557 105.727 135.768 105.971 136.035 106.137C136.302 106.303 136.602 106.386 136.936 106.386C137.12 106.386 137.296 106.361 137.461 106.312C137.629 106.262 137.781 106.187 137.916 106.089C138.051 105.991 138.166 105.872 138.259 105.731C138.354 105.587 138.42 105.424 138.456 105.239L139.348 105.243C139.301 105.527 139.208 105.788 139.071 106.027C138.936 106.264 138.761 106.469 138.548 106.642C138.336 106.814 138.094 106.946 137.821 107.04C137.549 107.134 137.252 107.182 136.93 107.182C136.423 107.182 135.971 107.063 135.575 106.826C135.178 106.587 134.866 106.245 134.637 105.801C134.41 105.357 134.297 104.828 134.297 104.212C134.297 103.595 134.411 103.065 134.64 102.623C134.869 102.179 135.181 101.838 135.578 101.601C135.974 101.362 136.425 101.243 136.93 101.243C137.24 101.243 137.53 101.287 137.799 101.375C138.069 101.462 138.313 101.59 138.528 101.759C138.743 101.927 138.921 102.132 139.062 102.375C139.203 102.615 139.299 102.891 139.348 103.202ZM142.876 105.304V102.767H143.734V107.103H142.894V106.352H142.848C142.747 106.583 142.585 106.776 142.362 106.93C142.141 107.083 141.865 107.159 141.536 107.159C141.254 107.159 141.004 107.098 140.787 106.975C140.571 106.851 140.402 106.668 140.278 106.425C140.156 106.182 140.095 105.882 140.095 105.525V102.767H140.95V105.423C140.95 105.719 141.033 105.954 141.198 106.129C141.364 106.304 141.58 106.391 141.844 106.391C142.005 106.391 142.164 106.352 142.322 106.273C142.482 106.194 142.614 106.074 142.719 105.914C142.826 105.754 142.878 105.551 142.876 105.304ZM144.641 107.103V102.767H145.467V103.456H145.513C145.593 103.222 145.734 103.039 145.936 102.905C146.14 102.77 146.37 102.702 146.628 102.702C146.681 102.702 146.744 102.704 146.816 102.708C146.891 102.711 146.949 102.716 146.991 102.722V103.529C146.956 103.52 146.895 103.509 146.808 103.498C146.72 103.485 146.632 103.478 146.545 103.478C146.343 103.478 146.163 103.52 146.004 103.605C145.848 103.688 145.724 103.804 145.633 103.952C145.541 104.099 145.496 104.267 145.496 104.455V107.103H144.641ZM147.489 107.103V102.767H148.315V103.456H148.361C148.441 103.222 148.582 103.039 148.784 102.905C148.988 102.77 149.218 102.702 149.476 102.702C149.529 102.702 149.592 102.704 149.664 102.708C149.738 102.711 149.797 102.716 149.839 102.722V103.529C149.804 103.52 149.743 103.509 149.655 103.498C149.568 103.485 149.48 103.478 149.393 103.478C149.191 103.478 149.011 103.52 148.853 103.605C148.696 103.688 148.572 103.804 148.481 103.952C148.389 104.099 148.343 104.267 148.343 104.455V107.103H147.489ZM154.19 107.103H152.294V101.322H154.249C154.823 101.322 155.316 101.437 155.727 101.669C156.139 101.898 156.454 102.229 156.674 102.66C156.895 103.089 157.005 103.603 157.005 104.204C157.005 104.806 156.894 105.323 156.671 105.756C156.449 106.189 156.13 106.522 155.71 106.755C155.291 106.987 154.784 107.103 154.19 107.103ZM153.178 106.34H154.141C154.587 106.34 154.957 106.258 155.253 106.092C155.548 105.925 155.769 105.683 155.916 105.367C156.063 105.049 156.136 104.661 156.136 104.204C156.136 103.75 156.063 103.365 155.916 103.049C155.771 102.733 155.555 102.493 155.267 102.329C154.98 102.166 154.622 102.084 154.195 102.084H153.178V106.34ZM159.686 107.19C159.253 107.19 158.881 107.099 158.568 106.916C158.257 106.732 158.018 106.473 157.848 106.14C157.68 105.805 157.596 105.413 157.596 104.963C157.596 104.519 157.68 104.127 157.848 103.789C158.018 103.45 158.254 103.185 158.557 102.995C158.862 102.805 159.218 102.71 159.626 102.71C159.873 102.71 160.114 102.751 160.346 102.832C160.579 102.913 160.788 103.04 160.972 103.213C161.157 103.386 161.303 103.611 161.41 103.888C161.516 104.162 161.57 104.496 161.57 104.89V105.189H158.079V104.557H160.732C160.732 104.334 160.687 104.138 160.595 103.966C160.503 103.793 160.375 103.657 160.209 103.557C160.045 103.458 159.853 103.408 159.632 103.408C159.391 103.408 159.182 103.466 159.003 103.582C158.825 103.697 158.688 103.848 158.591 104.034C158.496 104.219 158.448 104.419 158.448 104.636V105.13C158.448 105.419 158.5 105.666 158.602 105.869C158.707 106.072 158.853 106.227 159.04 106.335C159.227 106.44 159.445 106.493 159.694 106.493C159.857 106.493 160.004 106.47 160.138 106.425C160.271 106.378 160.386 106.308 160.483 106.216C160.581 106.124 160.655 106.01 160.706 105.875L161.515 106.019C161.45 106.254 161.335 106.46 161.167 106.637C161.001 106.812 160.792 106.948 160.541 107.046C160.291 107.142 160.006 107.19 159.686 107.19ZM162.277 108.728V102.767H163.111V103.47H163.183C163.232 103.379 163.304 103.275 163.397 103.156C163.491 103.038 163.62 102.934 163.786 102.846C163.952 102.755 164.171 102.71 164.443 102.71C164.798 102.71 165.114 102.799 165.392 102.976C165.671 103.153 165.889 103.408 166.047 103.741C166.207 104.074 166.287 104.475 166.287 104.943C166.287 105.412 166.208 105.814 166.05 106.148C165.892 106.481 165.675 106.738 165.398 106.919C165.122 107.098 164.806 107.187 164.452 107.187C164.185 107.187 163.967 107.143 163.797 107.054C163.63 106.966 163.498 106.862 163.403 106.744C163.308 106.626 163.234 106.52 163.183 106.428H163.131V108.728H162.277ZM163.114 104.934C163.114 105.239 163.159 105.507 163.248 105.736C163.338 105.966 163.468 106.145 163.637 106.275C163.807 106.403 164.015 106.467 164.261 106.467C164.516 106.467 164.729 106.401 164.901 106.267C165.072 106.132 165.202 105.948 165.289 105.717C165.379 105.485 165.424 105.225 165.424 104.934C165.424 104.649 165.38 104.392 165.292 104.164C165.206 103.937 165.077 103.756 164.904 103.625C164.732 103.493 164.518 103.427 164.261 103.427C164.013 103.427 163.803 103.49 163.632 103.617C163.462 103.743 163.333 103.919 163.246 104.144C163.158 104.37 163.114 104.634 163.114 104.934ZM167.003 107.103V102.767H167.829V103.456H167.875C167.955 103.222 168.096 103.039 168.298 102.905C168.502 102.77 168.733 102.702 168.99 102.702C169.043 102.702 169.106 102.704 169.179 102.708C169.253 102.711 169.311 102.716 169.353 102.722V103.529C169.319 103.52 169.258 103.509 169.17 103.498C169.082 103.485 168.995 103.478 168.907 103.478C168.705 103.478 168.525 103.52 168.367 103.605C168.211 103.688 168.087 103.804 167.995 103.952C167.904 104.099 167.858 104.267 167.858 104.455V107.103H167.003ZM171.586 107.19C171.154 107.19 170.781 107.099 170.469 106.916C170.158 106.732 169.918 106.473 169.748 106.14C169.581 105.805 169.497 105.413 169.497 104.963C169.497 104.519 169.581 104.127 169.748 103.789C169.918 103.45 170.154 103.185 170.457 102.995C170.762 102.805 171.119 102.71 171.526 102.71C171.774 102.71 172.014 102.751 172.247 102.832C172.479 102.913 172.688 103.04 172.873 103.213C173.057 103.386 173.204 103.611 173.31 103.888C173.417 104.162 173.47 104.496 173.47 104.89V105.189H169.98V104.557H172.633C172.633 104.334 172.587 104.138 172.496 103.966C172.404 103.793 172.275 103.657 172.11 103.557C171.946 103.458 171.753 103.408 171.532 103.408C171.292 103.408 171.082 103.466 170.903 103.582C170.726 103.697 170.589 103.848 170.492 104.034C170.396 104.219 170.349 104.419 170.349 104.636V105.13C170.349 105.419 170.4 105.666 170.503 105.869C170.608 106.072 170.754 106.227 170.94 106.335C171.127 106.44 171.345 106.493 171.595 106.493C171.757 106.493 171.905 106.47 172.038 106.425C172.172 106.378 172.287 106.308 172.384 106.216C172.481 106.124 172.556 106.01 172.607 105.875L173.416 106.019C173.351 106.254 173.235 106.46 173.067 106.637C172.901 106.812 172.693 106.948 172.441 107.046C172.191 107.142 171.907 107.19 171.586 107.19ZM176.027 107.19C175.602 107.19 175.236 107.095 174.929 106.905C174.624 106.713 174.39 106.449 174.225 106.112C174.062 105.775 173.98 105.389 173.98 104.954C173.98 104.514 174.064 104.125 174.231 103.789C174.399 103.45 174.635 103.185 174.94 102.995C175.245 102.805 175.604 102.71 176.018 102.71C176.351 102.71 176.649 102.772 176.91 102.894C177.171 103.014 177.381 103.184 177.542 103.402C177.704 103.62 177.8 103.875 177.83 104.167H176.999C176.953 103.964 176.848 103.789 176.684 103.642C176.522 103.495 176.305 103.422 176.032 103.422C175.794 103.422 175.585 103.484 175.406 103.608C175.229 103.73 175.091 103.905 174.992 104.133C174.893 104.359 174.843 104.626 174.843 104.934C174.843 105.251 174.892 105.523 174.989 105.753C175.086 105.983 175.223 106.161 175.4 106.287C175.58 106.413 175.79 106.476 176.032 106.476C176.194 106.476 176.341 106.447 176.473 106.388C176.606 106.328 176.717 106.242 176.807 106.132C176.898 106.02 176.962 105.887 176.999 105.731H177.83C177.8 106.011 177.707 106.262 177.553 106.482C177.399 106.701 177.192 106.875 176.933 107.001C176.675 107.127 176.374 107.19 176.027 107.19ZM178.503 107.103V102.767H179.358V107.103H178.503ZM178.935 102.098C178.786 102.098 178.658 102.049 178.551 101.951C178.447 101.851 178.394 101.733 178.394 101.595C178.394 101.456 178.447 101.338 178.551 101.24C178.658 101.14 178.786 101.09 178.935 101.09C179.083 101.09 179.21 101.14 179.315 101.24C179.422 101.338 179.475 101.456 179.475 101.595C179.475 101.733 179.422 101.851 179.315 101.951C179.21 102.049 179.083 102.098 178.935 102.098ZM181.544 107.198C181.265 107.198 181.014 107.148 180.789 107.046C180.564 106.943 180.386 106.793 180.254 106.597C180.125 106.401 180.06 106.162 180.06 105.878C180.06 105.633 180.108 105.431 180.203 105.273C180.298 105.115 180.427 104.99 180.589 104.898C180.751 104.806 180.932 104.736 181.132 104.689C181.332 104.642 181.536 104.606 181.744 104.582C182.007 104.552 182.22 104.527 182.384 104.508C182.548 104.488 182.667 104.455 182.741 104.409C182.816 104.365 182.853 104.291 182.853 104.189V104.17C182.853 103.923 182.782 103.732 182.642 103.597C182.502 103.461 182.295 103.394 182.018 103.394C181.731 103.394 181.504 103.456 181.338 103.582C181.174 103.707 181.061 103.845 180.998 103.998L180.194 103.817C180.29 103.553 180.429 103.341 180.612 103.179C180.797 103.015 181.009 102.897 181.249 102.823C181.49 102.748 181.742 102.71 182.007 102.71C182.182 102.71 182.368 102.731 182.564 102.772C182.762 102.812 182.947 102.885 183.119 102.993C183.292 103.1 183.434 103.253 183.545 103.453C183.655 103.65 183.711 103.907 183.711 104.223V107.103H182.876V106.51H182.842C182.786 106.619 182.704 106.726 182.593 106.831C182.482 106.937 182.34 107.025 182.167 107.094C181.994 107.164 181.786 107.198 181.544 107.198ZM181.729 106.521C181.966 106.521 182.168 106.475 182.336 106.383C182.505 106.291 182.634 106.17 182.722 106.021C182.811 105.871 182.856 105.71 182.856 105.539V104.98C182.825 105.01 182.766 105.038 182.679 105.064C182.593 105.089 182.495 105.111 182.384 105.13C182.274 105.146 182.166 105.162 182.061 105.177C181.956 105.19 181.869 105.202 181.798 105.211C181.632 105.232 181.481 105.267 181.343 105.316C181.208 105.365 181.1 105.435 181.018 105.527C180.938 105.618 180.898 105.738 180.898 105.889C180.898 106.098 180.976 106.256 181.132 106.363C181.288 106.468 181.488 106.521 181.729 106.521ZM186.657 102.767V103.444H184.259V102.767H186.657ZM184.902 101.728H185.757V105.83C185.757 105.993 185.781 106.116 185.831 106.199C185.88 106.28 185.944 106.336 186.022 106.366C186.103 106.394 186.189 106.408 186.282 106.408C186.351 106.408 186.411 106.403 186.463 106.394C186.514 106.385 186.554 106.377 186.583 106.372L186.737 107.069C186.688 107.087 186.617 107.106 186.526 107.125C186.434 107.146 186.32 107.157 186.183 107.159C185.958 107.163 185.748 107.123 185.554 107.04C185.359 106.957 185.202 106.829 185.082 106.657C184.962 106.483 184.902 106.266 184.902 106.004V101.728ZM189.206 107.19C188.774 107.19 188.401 107.099 188.088 106.916C187.778 106.732 187.538 106.473 187.368 106.14C187.201 105.805 187.117 105.413 187.117 104.963C187.117 104.519 187.201 104.127 187.368 103.789C187.538 103.45 187.774 103.185 188.077 102.995C188.382 102.805 188.738 102.71 189.146 102.71C189.394 102.71 189.634 102.751 189.867 102.832C190.099 102.913 190.308 103.04 190.493 103.213C190.678 103.386 190.823 103.611 190.93 103.888C191.037 104.162 191.09 104.496 191.09 104.89V105.189H187.6V104.557H190.253C190.253 104.334 190.207 104.138 190.115 103.966C190.024 103.793 189.895 103.657 189.729 103.557C189.566 103.458 189.373 103.408 189.152 103.408C188.912 103.408 188.702 103.466 188.523 103.582C188.346 103.697 188.209 103.848 188.111 104.034C188.016 104.219 187.968 104.419 187.968 104.636V105.13C187.968 105.419 188.02 105.666 188.123 105.869C188.228 106.072 188.373 106.227 188.56 106.335C188.747 106.44 188.965 106.493 189.215 106.493C189.377 106.493 189.524 106.47 189.658 106.425C189.791 106.378 189.907 106.308 190.004 106.216C190.101 106.124 190.175 106.01 190.227 105.875L191.036 106.019C190.971 106.254 190.855 106.46 190.687 106.637C190.521 106.812 190.313 106.948 190.061 107.046C189.811 107.142 189.527 107.19 189.206 107.19ZM193.441 107.187C193.086 107.187 192.77 107.098 192.492 106.919C192.215 106.738 191.998 106.481 191.84 106.148C191.683 105.814 191.605 105.412 191.605 104.943C191.605 104.475 191.685 104.074 191.843 103.741C192.003 103.408 192.222 103.153 192.5 102.976C192.779 102.799 193.094 102.71 193.446 102.71C193.719 102.71 193.938 102.755 194.104 102.846C194.271 102.934 194.401 103.038 194.493 103.156C194.586 103.275 194.658 103.379 194.71 103.47H194.761V101.322H195.616V107.103H194.781V106.428H194.71C194.658 106.52 194.584 106.626 194.487 106.744C194.392 106.862 194.26 106.966 194.092 107.054C193.925 107.143 193.708 107.187 193.441 107.187ZM193.629 106.467C193.875 106.467 194.083 106.403 194.253 106.275C194.424 106.145 194.554 105.966 194.641 105.736C194.731 105.507 194.776 105.239 194.776 104.934C194.776 104.634 194.732 104.37 194.644 104.144C194.556 103.919 194.428 103.743 194.258 103.617C194.089 103.49 193.879 103.427 193.629 103.427C193.372 103.427 193.158 103.493 192.986 103.625C192.814 103.756 192.685 103.937 192.597 104.164C192.512 104.392 192.469 104.649 192.469 104.934C192.469 105.225 192.513 105.485 192.6 105.717C192.688 105.948 192.818 106.132 192.989 106.267C193.163 106.401 193.376 106.467 193.629 106.467ZM199.063 101.322L200.693 106.03H200.759L202.388 101.322H203.343L201.236 107.103H200.216L198.109 101.322H199.063ZM204.724 107.198C204.446 107.198 204.194 107.148 203.969 107.046C203.744 106.943 203.566 106.793 203.435 106.597C203.305 106.401 203.24 106.162 203.24 105.878C203.24 105.633 203.288 105.431 203.383 105.273C203.478 105.115 203.607 104.99 203.769 104.898C203.931 104.806 204.112 104.736 204.312 104.689C204.512 104.642 204.716 104.606 204.924 104.582C205.187 104.552 205.4 104.527 205.564 104.508C205.728 104.488 205.847 104.455 205.922 104.409C205.996 104.365 206.033 104.291 206.033 104.189V104.17C206.033 103.923 205.963 103.732 205.821 103.597C205.682 103.461 205.474 103.394 205.198 103.394C204.91 103.394 204.684 103.456 204.518 103.582C204.354 103.707 204.241 103.845 204.178 103.998L203.375 103.817C203.47 103.553 203.609 103.341 203.792 103.179C203.977 103.015 204.189 102.897 204.429 102.823C204.669 102.748 204.922 102.71 205.187 102.71C205.362 102.71 205.548 102.731 205.744 102.772C205.942 102.812 206.127 102.885 206.299 102.993C206.472 103.1 206.614 103.253 206.725 103.453C206.835 103.65 206.89 103.907 206.89 104.223V107.103H206.056V106.51H206.021C205.966 106.619 205.883 106.726 205.773 106.831C205.662 106.937 205.52 107.025 205.347 107.094C205.173 107.164 204.966 107.198 204.724 107.198ZM204.91 106.521C205.146 106.521 205.348 106.475 205.515 106.383C205.685 106.291 205.814 106.17 205.901 106.021C205.991 105.871 206.036 105.71 206.036 105.539V104.98C206.005 105.01 205.946 105.038 205.859 105.064C205.773 105.089 205.675 105.111 205.564 105.13C205.453 105.146 205.346 105.162 205.241 105.177C205.136 105.19 205.049 105.202 204.978 105.211C204.812 105.232 204.661 105.267 204.524 105.316C204.388 105.365 204.28 105.435 204.198 105.527C204.118 105.618 204.078 105.738 204.078 105.889C204.078 106.098 204.156 106.256 204.312 106.363C204.468 106.468 204.667 106.521 204.91 106.521ZM208.642 101.322V107.103H207.787V101.322H208.642ZM212.332 105.304V102.767H213.19V107.103H212.349V106.352H212.303C212.202 106.583 212.041 106.776 211.818 106.93C211.596 107.083 211.321 107.159 210.991 107.159C210.709 107.159 210.46 107.098 210.242 106.975C210.027 106.851 209.857 106.668 209.733 106.425C209.612 106.182 209.55 105.882 209.55 105.525V102.767H210.405V105.423C210.405 105.719 210.488 105.954 210.654 106.129C210.82 106.304 211.035 106.391 211.3 106.391C211.46 106.391 211.619 106.352 211.777 106.273C211.938 106.194 212.07 106.074 212.175 105.914C212.281 105.754 212.334 105.551 212.332 105.304ZM215.989 107.19C215.556 107.19 215.184 107.099 214.871 106.916C214.561 106.732 214.32 106.473 214.151 106.14C213.983 105.805 213.899 105.413 213.899 104.963C213.899 104.519 213.983 104.127 214.151 103.789C214.32 103.45 214.557 103.185 214.86 102.995C215.165 102.805 215.521 102.71 215.929 102.71C216.177 102.71 216.417 102.751 216.649 102.832C216.882 102.913 217.09 103.04 217.275 103.213C217.46 103.386 217.606 103.611 217.712 103.888C217.819 104.162 217.873 104.496 217.873 104.89V105.189H214.382V104.557H217.035C217.035 104.334 216.989 104.138 216.898 103.966C216.806 103.793 216.678 103.657 216.512 103.557C216.348 103.458 216.156 103.408 215.935 103.408C215.694 103.408 215.485 103.466 215.306 103.582C215.128 103.697 214.991 103.848 214.894 104.034C214.799 104.219 214.751 104.419 214.751 104.636V105.13C214.751 105.419 214.802 105.666 214.905 105.869C215.01 106.072 215.156 106.227 215.343 106.335C215.53 106.44 215.748 106.493 215.997 106.493C216.159 106.493 216.307 106.47 216.441 106.425C216.574 106.378 216.689 106.308 216.786 106.216C216.884 106.124 216.958 106.01 217.009 105.875L217.818 106.019C217.754 106.254 217.637 106.46 217.47 106.637C217.304 106.812 217.095 106.948 216.843 107.046C216.594 107.142 216.309 107.19 215.989 107.19Z" fill="#999999"/>
<path d="M160.324 125.385V116.135H163.837C164.557 116.135 165.161 116.259 165.648 116.506C166.139 116.752 166.51 117.099 166.76 117.544C167.013 117.987 167.139 118.503 167.139 119.093C167.139 119.687 167.011 120.201 166.755 120.638C166.502 121.072 166.129 121.407 165.635 121.645C165.14 121.88 164.534 121.997 163.814 121.997H161.312V120.606H163.586C164.006 120.606 164.351 120.549 164.619 120.435C164.888 120.317 165.086 120.147 165.214 119.924C165.345 119.699 165.41 119.422 165.41 119.093C165.41 118.765 165.345 118.485 165.214 118.253C165.082 118.019 164.883 117.841 164.615 117.721C164.346 117.597 164 117.535 163.576 117.535H162.021V125.385H160.324ZM165.163 121.194L167.482 125.385H165.589L163.311 121.194H165.163ZM172.033 116.135V125.385H170.337V117.766H170.281L168.091 119.148V117.612L170.419 116.135H172.033ZM177.282 125.511C176.672 125.511 176.126 125.398 175.644 125.172C175.162 124.944 174.78 124.63 174.496 124.233C174.216 123.835 174.066 123.381 174.048 122.869H175.694C175.725 123.248 175.891 123.558 176.193 123.799C176.495 124.037 176.858 124.156 177.282 124.156C177.614 124.156 177.91 124.081 178.169 123.93C178.428 123.78 178.633 123.571 178.782 123.302C178.931 123.035 179.005 122.729 179.001 122.386C179.005 122.037 178.93 121.726 178.778 121.456C178.625 121.185 178.416 120.972 178.151 120.819C177.886 120.662 177.581 120.584 177.236 120.584C176.955 120.581 176.679 120.632 176.408 120.737C176.137 120.843 175.922 120.981 175.763 121.153L174.231 120.904L174.72 116.135H180.154V117.535H176.125L175.855 119.987H175.91C176.083 119.786 176.329 119.619 176.646 119.486C176.963 119.351 177.311 119.283 177.689 119.283C178.256 119.283 178.762 119.416 179.207 119.681C179.653 119.943 180.003 120.304 180.259 120.764C180.516 121.225 180.643 121.752 180.643 122.345C180.643 122.956 180.5 123.501 180.214 123.98C179.93 124.456 179.535 124.831 179.029 125.104C178.526 125.376 177.944 125.511 177.282 125.511ZM181.807 125.385V118.447H183.39V119.626H183.472C183.619 119.229 183.861 118.919 184.2 118.696C184.538 118.47 184.942 118.357 185.412 118.357C185.887 118.357 186.288 118.472 186.614 118.701C186.944 118.926 187.176 119.235 187.31 119.626H187.383C187.539 119.241 187.801 118.934 188.17 118.705C188.542 118.473 188.982 118.357 189.491 118.357C190.138 118.357 190.665 118.559 191.074 118.962C191.483 119.366 191.687 119.954 191.687 120.728V125.385H190.027V120.981C190.027 120.551 189.911 120.236 189.679 120.037C189.447 119.836 189.164 119.735 188.828 119.735C188.429 119.735 188.116 119.858 187.891 120.105C187.668 120.349 187.557 120.667 187.557 121.058V125.385H185.933V120.914C185.933 120.555 185.823 120.269 185.604 120.055C185.387 119.842 185.104 119.735 184.753 119.735C184.515 119.735 184.299 119.795 184.104 119.916C183.908 120.033 183.753 120.2 183.637 120.417C183.521 120.631 183.463 120.881 183.463 121.166V125.385H181.807Z" fill="#06789C"/>
<path d="M301.278 111.872H293.631V141.282H301.278V111.872Z" fill="#06789C"/>
<path d="M334.282 111.872H326.635V141.282H334.282V111.872Z" fill="#06789C"/>
<path d="M345.149 128.564H337.502V141.282H345.149V128.564Z" fill="#06789C"/>
<path d="M312.145 120.615H304.498V141.282H312.145V120.615Z" fill="#06789C"/>
<path d="M323.012 100.346H315.768V141.282H323.012V100.346Z" fill="#06789C"/>
<path d="M356.016 109.487H348.369V141.282H356.016V109.487Z" fill="#06789C"/>
<path d="M286.989 93.5897V141.282" stroke="#06789C"/>
<path d="M368.091 141.481H286.788" stroke="#06789C"/>
<path d="M401.901 98.4584H382.581C381.081 98.4584 379.864 99.6595 379.864 101.141V138.103C379.864 139.584 381.081 140.785 382.581 140.785H401.901C403.401 140.785 404.617 139.584 404.617 138.103V101.141C404.617 99.6595 403.401 98.4584 401.901 98.4584Z" fill="#FFA500" fill-opacity="0.2"/>
<path d="M401.901 98.4584H382.581C381.081 98.4584 379.864 99.6595 379.864 101.141V138.103C379.864 139.584 381.081 140.785 382.581 140.785H401.901C403.401 140.785 404.617 139.584 404.617 138.103V101.141C404.617 99.6595 403.401 98.4584 401.901 98.4584Z" stroke="#FFA500" stroke-width="2.5"/>
<path d="M387.166 123H386.041L388.569 116.063H389.793L392.322 123H391.197L389.211 117.323H389.155L387.166 123ZM387.355 120.283H391.005V121.164H387.355V120.283ZM395.396 123.095C394.925 123.095 394.504 123.015 394.134 122.855C393.766 122.694 393.474 122.471 393.259 122.187C393.046 121.9 392.932 121.568 392.916 121.191H393.993C394.007 121.397 394.077 121.575 394.202 121.726C394.331 121.875 394.497 121.99 394.703 122.072C394.909 122.153 395.138 122.194 395.389 122.194C395.666 122.194 395.911 122.146 396.123 122.052C396.338 121.957 396.507 121.825 396.628 121.655C396.749 121.484 396.81 121.286 396.81 121.062C396.81 120.83 396.749 120.626 396.628 120.449C396.509 120.271 396.334 120.131 396.103 120.03C395.874 119.928 395.597 119.877 395.273 119.877H394.679V119.023H395.273C395.533 119.023 395.762 118.977 395.959 118.885C396.158 118.792 396.313 118.663 396.425 118.498C396.538 118.331 396.593 118.136 396.593 117.912C396.593 117.698 396.544 117.511 396.446 117.354C396.35 117.193 396.213 117.068 396.034 116.978C395.858 116.887 395.65 116.842 395.41 116.842C395.181 116.842 394.967 116.884 394.769 116.967C394.572 117.049 394.412 117.166 394.288 117.319C394.165 117.471 394.098 117.652 394.089 117.865H393.064C393.075 117.49 393.187 117.16 393.4 116.876C393.615 116.591 393.898 116.369 394.251 116.209C394.603 116.048 394.994 115.968 395.424 115.968C395.874 115.968 396.263 116.055 396.59 116.229C396.919 116.401 397.173 116.63 397.351 116.916C397.532 117.203 397.621 117.517 397.619 117.858C397.621 118.247 397.512 118.576 397.29 118.847C397.07 119.118 396.777 119.3 396.412 119.392V119.447C396.878 119.517 397.24 119.7 397.495 119.995C397.754 120.291 397.882 120.658 397.88 121.096C397.882 121.478 397.774 121.82 397.557 122.123C397.343 122.425 397.048 122.663 396.676 122.837C396.303 123.009 395.877 123.095 395.396 123.095Z" fill="#FFA500"/>
</g>
<defs>
<filter id="filter0_d_342_7029" x="0" y="0" width="448" height="184" filterUnits="userSpaceOnUse" color-interpolation-filters="sRGB">
<feFlood flood-opacity="0" result="BackgroundImageFix"/>
<feColorMatrix in="SourceAlpha" type="matrix" values="0 0 0 0 0 0 0 0 0 0 0 0 0 0 0 0 0 0 127 0" result="hardAlpha"/>
<feOffset/>
<feGaussianBlur stdDeviation="15"/>
<feComposite in2="hardAlpha" operator="out"/>
<feColorMatrix type="matrix" values="0 0 0 0 0 0 0 0 0 0 0 0 0 0 0 0 0 0 0.08 0"/>
<feBlend mode="normal" in2="BackgroundImageFix" result="effect1_dropShadow_342_7029"/>
<feBlend mode="normal" in="SourceGraphic" in2="effect1_dropShadow_342_7029" result="shape"/>
</filter>
<filter id="filter1_b_342_7029" x="26" y="26" width="396" height="132" filterUnits="userSpaceOnUse" color-interpolation-filters="sRGB">
<feFlood flood-opacity="0" result="BackgroundImageFix"/>
<feGaussianBlur in="BackgroundImageFix" stdDeviation="2"/>
<feComposite in2="SourceAlpha" operator="in" result="effect1_backgroundBlur_342_7029"/>
<feBlend mode="normal" in="SourceGraphic" in2="effect1_backgroundBlur_342_7029" result="shape"/>
</filter>
<clipPath id="clip0_342_7029">
<rect width="388" height="124" fill="white" transform="translate(30 30)"/>
</clipPath>
</defs>
</svg>
