<svg width="860" height="820" viewBox="0 0 860 820" fill="none" xmlns="http://www.w3.org/2000/svg">
<rect width="860" height="820" fill="#13293D"/>
<path fill-rule="evenodd" clip-rule="evenodd" d="M93 501.038C93 631.101 198.437 736.538 328.5 736.538C458.563 736.538 564 631.101 564 501.038C564 370.975 458.563 265.538 328.5 265.538C198.437 265.538 93 370.975 93 501.038ZM172.615 501.239C172.615 587.221 242.317 656.923 328.299 656.923C414.281 656.923 483.983 587.221 483.983 501.239C483.983 415.257 414.281 345.555 328.299 345.555C242.317 345.555 172.615 415.257 172.615 501.239Z" fill="url(#paint0_linear_328_6793)" fill-opacity="0.3"/>
<g filter="url(#filter0_f_328_6793)">
<path d="M217.52 607.011L282.381 513.04C292.933 497.752 309.971 488.214 328.52 487.211L381.47 484.347C393.603 483.691 405.252 479.366 414.874 471.944L487.589 415.859C496.101 409.294 506.22 405.136 516.89 403.82L562.242 398.227C577.525 396.342 591.499 388.653 601.271 376.751L668.139 295.306" stroke="#06789C" stroke-width="2" stroke-linecap="round" stroke-linejoin="round"/>
</g>
<path d="M216.66 607.746L282.375 512.945C292.933 497.713 309.939 488.216 328.445 487.215L381.47 484.347C393.603 483.691 405.252 479.366 414.874 471.944L487.589 415.859C496.101 409.294 506.22 405.136 516.89 403.82L562.242 398.227C577.525 396.342 591.499 388.653 601.271 376.751L668.139 295.307" stroke="#06789C" stroke-width="2" stroke-linecap="round" stroke-linejoin="round"/>
<path d="M217.583 611.806C220.548 611.144 222.414 608.204 221.752 605.24C221.09 602.275 218.15 600.409 215.186 601.071C212.221 601.733 210.355 604.673 211.017 607.637C211.679 610.602 214.619 612.468 217.583 611.806Z" fill="white" stroke="#06789C" stroke-width="2"/>
<path d="M305.46 498.222C308.424 497.56 310.291 494.62 309.629 491.655C308.967 488.691 306.027 486.824 303.062 487.486C300.098 488.148 298.231 491.088 298.893 494.053C299.555 497.017 302.495 498.884 305.46 498.222Z" fill="white" stroke="#06789C" stroke-width="2"/>
<path d="M402.251 484.605C405.216 483.943 407.082 481.003 406.42 478.038C405.758 475.074 402.818 473.207 399.854 473.869C396.889 474.531 395.023 477.471 395.685 480.436C396.347 483.4 399.287 485.267 402.251 484.605Z" fill="white" stroke="#06789C" stroke-width="2"/>
<path d="M591.681 393.59C594.646 392.928 596.512 389.988 595.85 387.024C595.188 384.059 592.248 382.193 589.284 382.855C586.319 383.517 584.453 386.457 585.115 389.421C585.777 392.386 588.717 394.252 591.681 393.59Z" fill="white" stroke="#06789C" stroke-width="2"/>
<path d="M500.867 413.919C503.832 413.257 505.698 410.317 505.036 407.352C504.374 404.388 501.434 402.521 498.47 403.183C495.505 403.845 493.638 406.785 494.301 409.75C494.963 412.714 497.902 414.581 500.867 413.919Z" fill="white" stroke="#06789C" stroke-width="2"/>
<path d="M668.28 301.872C671.244 301.21 673.111 298.27 672.449 295.305C671.787 292.341 668.847 290.474 665.882 291.136C662.918 291.798 661.051 294.738 661.713 297.703C662.375 300.667 665.315 302.534 668.28 301.872Z" fill="white" stroke="#06789C" stroke-width="2"/>
<g filter="url(#filter1_f_328_6793)">
<path d="M221.677 625.623L298.016 558.246C311.217 546.595 328.868 541.331 346.294 543.847L371.367 547.467C386.892 549.708 402.677 545.781 415.342 536.526L459.121 504.533C468.532 497.656 479.742 493.668 491.381 493.058L522.293 491.438C533.775 490.836 544.843 486.947 554.178 480.235L609.804 440.24C619.197 433.487 630.342 429.593 641.897 429.027L650.282 428.616C661.707 428.057 672.734 424.244 682.063 417.626L712.445 396.074" stroke="#EB6234" stroke-width="2"/>
</g>
<path d="M221.677 625.623L298.016 558.246C311.217 546.595 328.868 541.331 346.294 543.847L371.45 547.479C386.926 549.713 402.662 545.818 415.309 536.622L458.989 504.862C468.241 498.135 479.224 494.193 490.643 493.501L522.567 491.565C533.877 490.88 544.762 487.005 553.963 480.39L609.804 440.24C619.197 433.487 630.342 429.593 641.897 429.027L650.282 428.616C661.707 428.057 672.734 424.244 682.063 417.626L712.445 396.074" stroke="#EB6234" stroke-width="2"/>
<path d="M222.994 631.447C225.958 630.785 227.825 627.845 227.163 624.881C226.501 621.916 223.561 620.049 220.596 620.711C217.632 621.373 215.765 624.313 216.427 627.278C217.089 630.242 220.029 632.109 222.994 631.447Z" fill="white" stroke="#EB6234" stroke-width="2"/>
<path d="M321.626 552.386C324.59 551.724 326.457 548.784 325.795 545.819C325.133 542.855 322.193 540.988 319.228 541.65C316.264 542.312 314.397 545.252 315.059 548.217C315.721 551.181 318.661 553.048 321.626 552.386Z" fill="white" stroke="#EB6234" stroke-width="2"/>
<path d="M395.772 551.836C398.737 551.174 400.603 548.234 399.941 545.269C399.279 542.305 396.339 540.438 393.375 541.1C390.41 541.762 388.544 544.702 389.206 547.667C389.868 550.631 392.808 552.498 395.772 551.836Z" fill="white" stroke="#EB6234" stroke-width="2"/>
<path d="M475.475 502.385C478.439 501.723 480.306 498.783 479.644 495.819C478.982 492.854 476.042 490.987 473.077 491.649C470.113 492.311 468.246 495.251 468.908 498.216C469.57 501.18 472.51 503.047 475.475 502.385Z" fill="white" stroke="#EB6234" stroke-width="2"/>
<path d="M538.384 493.149C541.349 492.487 543.215 489.547 542.553 486.582C541.891 483.618 538.951 481.751 535.987 482.413C533.022 483.075 531.156 486.015 531.818 488.98C532.48 491.944 535.42 493.811 538.384 493.149Z" fill="white" stroke="#EB6234" stroke-width="2"/>
<path d="M628.529 435.758C631.493 435.096 633.36 432.156 632.698 429.192C632.036 426.227 629.096 424.36 626.131 425.022C623.167 425.685 621.3 428.624 621.962 431.589C622.624 434.554 625.564 436.42 628.529 435.758Z" fill="white" stroke="#EB6234" stroke-width="2"/>
<path d="M711.877 400.415C714.842 399.753 716.709 396.813 716.047 393.849C715.385 390.884 712.445 389.018 709.48 389.68C706.516 390.342 704.649 393.282 705.311 396.246C705.973 399.211 708.913 401.077 711.877 400.415Z" fill="white" stroke="#EB6234" stroke-width="2"/>
<g filter="url(#filter2_f_328_6793)">
<path d="M211.412 588.835L266.569 464.462C275.96 443.286 296.702 429.408 319.859 428.806L336.352 428.378C354.162 427.915 370.845 419.562 381.885 405.578L407.96 372.553C416.505 361.73 428.517 354.18 441.975 351.175L475.491 343.69C483.122 341.986 490.346 338.808 496.757 334.332L557.332 292.05C563.028 288.074 567.991 283.138 571.999 277.463L654.688 160.38" stroke="#89C3F1" stroke-width="2"/>
</g>
<path d="M211.412 588.835L266.569 464.462C275.96 443.286 296.702 429.408 319.859 428.806L336.352 428.378C354.162 427.915 370.845 419.562 381.885 405.578L407.96 372.553C416.505 361.73 428.517 354.18 441.975 351.175L475.491 343.69C483.122 341.986 490.346 338.808 496.757 334.332L557.332 292.05C563.028 288.074 567.991 283.138 571.999 277.463L654.688 160.38" stroke="#89C3F1" stroke-width="2"/>
<path d="M294.612 440.851C297.576 440.189 299.443 437.249 298.781 434.285C298.119 431.32 295.179 429.454 292.214 430.116C289.25 430.778 287.383 433.718 288.045 436.682C288.707 439.647 291.647 441.513 294.612 440.851Z" fill="white" stroke="#89C3F1" stroke-width="2"/>
<path d="M212.267 592.591C215.232 591.929 217.098 588.989 216.436 586.025C215.774 583.06 212.835 581.194 209.87 581.856C206.905 582.518 205.039 585.458 205.701 588.422C206.363 591.387 209.303 593.253 212.267 592.591Z" fill="white" stroke="#89C3F1" stroke-width="2"/>
<path d="M361.001 428.249C363.965 427.587 365.832 424.647 365.17 421.683C364.508 418.718 361.568 416.851 358.604 417.513C355.639 418.175 353.772 421.115 354.434 424.08C355.096 427.044 358.036 428.911 361.001 428.249Z" fill="white" stroke="#89C3F1" stroke-width="2"/>
<path d="M428.552 363.122C431.517 362.46 433.384 359.52 432.722 356.555C432.059 353.591 429.12 351.724 426.155 352.386C423.19 353.048 421.324 355.988 421.986 358.953C422.648 361.917 425.588 363.784 428.552 363.122Z" fill="white" stroke="#89C3F1" stroke-width="2"/>
<path d="M493.765 343.934C496.73 343.272 498.596 340.332 497.934 337.368C497.272 334.403 494.332 332.537 491.368 333.199C488.403 333.861 486.537 336.801 487.199 339.765C487.861 342.73 490.801 344.596 493.765 343.934Z" fill="white" stroke="#89C3F1" stroke-width="2"/>
<path d="M566.98 288.395C569.944 287.733 571.811 284.793 571.149 281.828C570.487 278.864 567.547 276.997 564.582 277.659C561.618 278.321 559.751 281.261 560.413 284.226C561.075 287.19 564.015 289.057 566.98 288.395Z" fill="white" stroke="#89C3F1" stroke-width="2"/>
<path d="M655.765 164.934C658.73 164.272 660.596 161.332 659.934 158.368C659.272 155.403 656.332 153.537 653.368 154.199C650.403 154.861 648.537 157.801 649.199 160.765C649.861 163.73 652.801 165.596 655.765 164.934Z" fill="white" stroke="#89C3F1" stroke-width="2"/>
<defs>
<filter id="filter0_f_328_6793" x="206.52" y="284.306" width="472.619" height="333.705" filterUnits="userSpaceOnUse" color-interpolation-filters="sRGB">
<feFlood flood-opacity="0" result="BackgroundImageFix"/>
<feBlend mode="normal" in="SourceGraphic" in2="BackgroundImageFix" result="shape"/>
<feGaussianBlur stdDeviation="5" result="effect1_foregroundBlur_328_6793"/>
</filter>
<filter id="filter1_f_328_6793" x="211.015" y="385.258" width="512.009" height="251.115" filterUnits="userSpaceOnUse" color-interpolation-filters="sRGB">
<feFlood flood-opacity="0" result="BackgroundImageFix"/>
<feBlend mode="normal" in="SourceGraphic" in2="BackgroundImageFix" result="shape"/>
<feGaussianBlur stdDeviation="5" result="effect1_foregroundBlur_328_6793"/>
</filter>
<filter id="filter2_f_328_6793" x="200.498" y="149.803" width="465.007" height="449.437" filterUnits="userSpaceOnUse" color-interpolation-filters="sRGB">
<feFlood flood-opacity="0" result="BackgroundImageFix"/>
<feBlend mode="normal" in="SourceGraphic" in2="BackgroundImageFix" result="shape"/>
<feGaussianBlur stdDeviation="5" result="effect1_foregroundBlur_328_6793"/>
</filter>
<linearGradient id="paint0_linear_328_6793" x1="564" y1="348.831" x2="93" y2="653.245" gradientUnits="userSpaceOnUse">
<stop stop-color="#06789C"/>
<stop offset="0.526012" stop-color="#13293D"/>
</linearGradient>
</defs>
</svg>
