<svg width="32" height="32" viewBox="0 0 32 32" fill="none" xmlns="http://www.w3.org/2000/svg">
<circle cx="16.1973" cy="15.9865" r="15.5" fill="#13293D"/>
<circle cx="17.4042" cy="26.3746" r="1.05852" fill="white"/>
<circle cx="17.4042" cy="23.9359" r="1.05852" fill="white"/>
<circle cx="17.4042" cy="21.4855" r="1.05852" fill="white"/>
<circle cx="17.4042" cy="16.46" r="1.05852" fill="white"/>
<circle cx="17.4042" cy="11.4345" r="1.05852" fill="white"/>
<circle cx="10.0043" cy="11.4345" r="1.05852" fill="white"/>
<circle cx="10.0043" cy="13.9561" r="1.05852" fill="white"/>
<circle cx="14.9396" cy="16.46" r="1.05852" fill="white"/>
<circle cx="14.9396" cy="11.4345" r="1.05852" fill="white"/>
<circle cx="7.53972" cy="11.4345" r="1.05852" fill="white"/>
<circle cx="17.4042" cy="13.9473" r="1.05852" fill="white"/>
<circle cx="17.4042" cy="8.9218" r="1.05852" fill="white"/>
<circle cx="10.0043" cy="8.9218" r="1.05852" fill="white"/>
<circle cx="17.4042" cy="18.9727" r="1.05852" fill="white"/>
<circle cx="14.9396" cy="13.9473" r="1.05852" fill="white"/>
<circle cx="14.9396" cy="8.9218" r="1.05852" fill="white"/>
<circle cx="19.8749" cy="23.9359" r="1.05852" fill="white"/>
<circle cx="19.8749" cy="21.4855" r="1.05852" fill="white"/>
<circle cx="19.8749" cy="16.46" r="1.05852" fill="white"/>
<circle cx="19.8749" cy="11.4345" r="1.05852" fill="white"/>
<circle cx="22.4413" cy="11.4345" r="1.05852" fill="white"/>
<circle cx="12.475" cy="11.4345" r="1.05852" fill="white"/>
<circle cx="12.475" cy="13.9561" r="1.05852" fill="white"/>
<circle cx="19.8749" cy="18.9727" r="1.05852" fill="white"/>
<circle cx="19.8749" cy="13.9473" r="1.05852" fill="white"/>
<circle cx="19.8749" cy="8.9218" r="1.05852" fill="white"/>
<circle cx="12.475" cy="8.9218" r="1.05852" fill="white"/>
<circle cx="12.4749" cy="6.71191" r="0.755669" fill="white"/>
<circle cx="14.9398" cy="18.9727" r="0.755669" fill="white"/>
<circle cx="24.5074" cy="16.1572" r="0.755669" fill="white"/>
<circle cx="14.9398" cy="21.4855" r="0.755669" fill="white"/>
<circle cx="22.1385" cy="21.4855" r="0.755669" fill="white"/>
<circle cx="14.9398" cy="23.633" r="0.755669" fill="white"/>
<circle cx="17.4044" cy="6.71191" r="0.755669" fill="white"/>
<circle cx="22.4413" cy="16.46" r="1.05852" fill="white"/>
<circle cx="22.4413" cy="18.9727" r="1.05852" fill="white"/>
<circle cx="22.4413" cy="13.9473" r="1.05852" fill="white"/>
<circle cx="24.8549" cy="13.9473" r="1.05852" fill="white"/>
</svg>
