<svg width="51" height="51" viewBox="0 0 51 51" fill="none" xmlns="http://www.w3.org/2000/svg">
<path d="M29.2675 42.7008C29.2675 43.0381 28.9941 43.3116 28.6567 43.3116C28.3194 43.3116 28.0459 43.0381 28.0459 42.7008C28.0459 42.3634 28.3194 42.09 28.6567 42.09C28.9941 42.09 29.2675 42.3634 29.2675 42.7008Z" fill="#13293D"/>
<path d="M29.2675 40.7474C29.2675 41.0848 28.9941 41.3582 28.6567 41.3582C28.3194 41.3582 28.0459 41.0848 28.0459 40.7474C28.0459 40.4101 28.3194 40.1366 28.6567 40.1366C28.9941 40.1366 29.2675 40.4101 29.2675 40.7474Z" fill="#13293D"/>
<path d="M29.2675 38.7944C29.2675 39.1318 28.9941 39.4052 28.6567 39.4052C28.3194 39.4052 28.0459 39.1318 28.0459 38.7944C28.0459 38.4571 28.3194 38.1836 28.6567 38.1836C28.9941 38.1836 29.2675 38.4571 29.2675 38.7944Z" fill="#13293D"/>
<path d="M29.2675 36.8409C29.2675 37.1783 28.9941 37.4517 28.6567 37.4517C28.3194 37.4517 28.0459 37.1783 28.0459 36.8409C28.0459 36.5036 28.3194 36.2301 28.6567 36.2301C28.9941 36.2301 29.2675 36.5036 29.2675 36.8409Z" fill="#13293D"/>
<path d="M29.2675 34.815C29.2675 35.1524 28.9941 35.4259 28.6567 35.4259C28.3194 35.4259 28.0459 35.1524 28.0459 34.815C28.0459 34.4777 28.3194 34.2042 28.6567 34.2042C28.9941 34.2042 29.2675 34.4777 29.2675 34.815Z" fill="#13293D"/>
<path d="M29.2675 32.8622C29.2675 33.1995 28.9941 33.473 28.6567 33.473C28.3194 33.473 28.0459 33.1995 28.0459 32.8622C28.0459 32.5248 28.3194 32.2513 28.6567 32.2513C28.9941 32.2513 29.2675 32.5248 29.2675 32.8622Z" fill="#13293D"/>
<path d="M29.2675 30.9092C29.2675 31.2465 28.9941 31.52 28.6567 31.52C28.3194 31.52 28.0459 31.2465 28.0459 30.9092C28.0459 30.5718 28.3194 30.2983 28.6567 30.2983C28.9941 30.2983 29.2675 30.5718 29.2675 30.9092Z" fill="#13293D"/>
<path d="M29.2675 28.956C29.2675 29.2934 28.9941 29.5669 28.6567 29.5669C28.3194 29.5669 28.0459 29.2934 28.0459 28.956C28.0459 28.6187 28.3194 28.3452 28.6567 28.3452C28.9941 28.3452 29.2675 28.6187 29.2675 28.956Z" fill="#13293D"/>
<path d="M29.2675 23.0636C29.2675 23.4009 28.9941 23.6744 28.6567 23.6744C28.3194 23.6744 28.0459 23.4009 28.0459 23.0636C28.0459 22.7262 28.3194 22.4528 28.6567 22.4528C28.9941 22.4528 29.2675 22.7262 29.2675 23.0636Z" fill="#13293D"/>
<path d="M17.0764 23.0636C17.0764 23.4009 16.8029 23.6744 16.4656 23.6744C16.1282 23.6744 15.8547 23.4009 15.8547 23.0636C15.8547 22.7262 16.1282 22.4528 16.4656 22.4528C16.8029 22.4528 17.0764 22.7262 17.0764 23.0636Z" fill="#13293D"/>
<path d="M29.2675 17.1711C29.2675 17.5085 28.9941 17.7819 28.6567 17.7819C28.3194 17.7819 28.0459 17.5085 28.0459 17.1711C28.0459 16.8338 28.3194 16.5603 28.6567 16.5603C28.9941 16.5603 29.2675 16.8338 29.2675 17.1711Z" fill="#13293D"/>
<path d="M35.3634 23.0636C35.3634 23.4009 35.0899 23.6744 34.7525 23.6744C34.4152 23.6744 34.1417 23.4009 34.1417 23.0636C34.1417 22.7262 34.4152 22.4528 34.7525 22.4528C35.0899 22.4528 35.3634 22.7262 35.3634 23.0636Z" fill="#13293D"/>
<path d="M39.4301 23.0636C39.4301 23.4009 39.1567 23.6744 38.8193 23.6744C38.482 23.6744 38.2085 23.4009 38.2085 23.0636C38.2085 22.7262 38.482 22.4528 38.8193 22.4528C39.1567 22.4528 39.4301 22.7262 39.4301 23.0636Z" fill="#13293D"/>
<path d="M39.4301 25.0167C39.4301 25.3541 39.1567 25.6275 38.8193 25.6275C38.482 25.6275 38.2085 25.3541 38.2085 25.0167C38.2085 24.6794 38.482 24.4059 38.8193 24.4059C39.1567 24.4059 39.4301 24.6794 39.4301 25.0167Z" fill="#13293D"/>
<path d="M23.172 23.0636C23.172 23.4009 22.8985 23.6744 22.5611 23.6744C22.2238 23.6744 21.9503 23.4009 21.9503 23.0636C21.9503 22.7262 22.2238 22.4528 22.5611 22.4528C22.8985 22.4528 23.172 22.7262 23.172 23.0636Z" fill="#13293D"/>
<path d="M23.172 26.9697C23.172 27.3071 22.8985 27.5805 22.5611 27.5805C22.2238 27.5805 21.9503 27.3071 21.9503 26.9697C21.9503 26.6324 22.2238 26.3589 22.5611 26.3589C22.8985 26.3589 23.172 26.6324 23.172 26.9697Z" fill="#13293D"/>
<path d="M17.0764 17.1711C17.0764 17.5085 16.8029 17.7819 16.4656 17.7819C16.1282 17.7819 15.8547 17.5085 15.8547 17.1711C15.8547 16.8338 16.1282 16.5603 16.4656 16.5603C16.8029 16.5603 17.0764 16.8338 17.0764 17.1711Z" fill="#13293D"/>
<path d="M29.2675 21.1107C29.2675 21.448 28.9941 21.7215 28.6567 21.7215C28.3194 21.7215 28.0459 21.448 28.0459 21.1107C28.0459 20.7734 28.3194 20.4999 28.6567 20.4999C28.9941 20.4999 29.2675 20.7734 29.2675 21.1107Z" fill="#13293D"/>
<path d="M17.0764 21.1107C17.0764 21.448 16.8029 21.7215 16.4656 21.7215C16.1282 21.7215 15.8547 21.448 15.8547 21.1107C15.8547 20.7734 16.1282 20.4999 16.4656 20.4999C16.8029 20.4999 17.0764 20.7734 17.0764 21.1107Z" fill="#13293D"/>
<path d="M35.3634 28.956C35.3634 29.2934 35.0899 29.5669 34.7525 29.5669C34.4152 29.5669 34.1417 29.2934 34.1417 28.956C34.1417 28.6187 34.4152 28.3452 34.7525 28.3452C35.0899 28.3452 35.3634 28.6187 35.3634 28.956Z" fill="#13293D"/>
<path d="M35.3634 34.815C35.3634 35.1524 35.0899 35.4259 34.7525 35.4259C34.4152 35.4259 34.1417 35.1524 34.1417 34.815C34.1417 34.4777 34.4152 34.2042 34.7525 34.2042C35.0899 34.2042 35.3634 34.4777 35.3634 34.815Z" fill="#13293D"/>
<path d="M35.3634 21.1107C35.3634 21.448 35.0899 21.7215 34.7525 21.7215C34.4152 21.7215 34.1417 21.448 34.1417 21.1107C34.1417 20.7734 34.4152 20.4999 34.7525 20.4999C35.0899 20.4999 35.3634 20.7734 35.3634 21.1107Z" fill="#13293D"/>
<path d="M39.4301 21.1107C39.4301 21.448 39.1567 21.7215 38.8193 21.7215C38.482 21.7215 38.2085 21.448 38.2085 21.1107C38.2085 20.7734 38.482 20.4999 38.8193 20.4999C39.1567 20.4999 39.4301 20.7734 39.4301 21.1107Z" fill="#13293D"/>
<path d="M23.172 21.1107C23.172 21.448 22.8985 21.7215 22.5611 21.7215C22.2238 21.7215 21.9503 21.448 21.9503 21.1107C21.9503 20.7734 22.2238 20.4999 22.5611 20.4999C22.8985 20.4999 23.172 20.7734 23.172 21.1107Z" fill="#13293D"/>
<path d="M23.172 25.0167C23.172 25.3541 22.8985 25.6275 22.5611 25.6275C22.2238 25.6275 21.9503 25.3541 21.9503 25.0167C21.9503 24.6794 22.2238 24.4059 22.5611 24.4059C22.8985 24.4059 23.172 24.6794 23.172 25.0167Z" fill="#13293D"/>
<path d="M35.3634 17.1711C35.3634 17.5085 35.0899 17.7819 34.7525 17.7819C34.4152 17.7819 34.1417 17.5085 34.1417 17.1711C34.1417 16.8338 34.4152 16.5603 34.7525 16.5603C35.0899 16.5603 35.3634 16.8338 35.3634 17.1711Z" fill="#13293D"/>
<path d="M29.2675 19.1244C29.2675 19.4617 28.9941 19.7352 28.6567 19.7352C28.3194 19.7352 28.0459 19.4617 28.0459 19.1244C28.0459 18.787 28.3194 18.5135 28.6567 18.5135C28.9941 18.5135 29.2675 18.787 29.2675 19.1244Z" fill="#13293D"/>
<path d="M17.0764 19.1244C17.0764 19.4617 16.8029 19.7352 16.4656 19.7352C16.1282 19.7352 15.8547 19.4617 15.8547 19.1244C15.8547 18.787 16.1282 18.5135 16.4656 18.5135C16.8029 18.5135 17.0764 18.787 17.0764 19.1244Z" fill="#13293D"/>
<path d="M23.172 17.1711C23.172 17.5085 22.8985 17.7819 22.5611 17.7819C22.2238 17.7819 21.9503 17.5085 21.9503 17.1711C21.9503 16.8338 22.2238 16.5603 22.5611 16.5603C22.8985 16.5603 23.172 16.8338 23.172 17.1711Z" fill="#13293D"/>
<path d="M35.3634 19.1244C35.3634 19.4617 35.0899 19.7352 34.7525 19.7352C34.4152 19.7352 34.1417 19.4617 34.1417 19.1244C34.1417 18.787 34.4152 18.5135 34.7525 18.5135C35.0899 18.5135 35.3634 18.787 35.3634 19.1244Z" fill="#13293D"/>
<path d="M23.172 19.1244C23.172 19.4617 22.8985 19.7352 22.5611 19.7352C22.2238 19.7352 21.9503 19.4617 21.9503 19.1244C21.9503 18.787 22.2238 18.5135 22.5611 18.5135C22.8985 18.5135 23.172 18.787 23.172 19.1244Z" fill="#13293D"/>
<path d="M29.2675 27.0032C29.2675 27.3405 28.9941 27.614 28.6567 27.614C28.3194 27.614 28.0459 27.3405 28.0459 27.0032C28.0459 26.6658 28.3194 26.3923 28.6567 26.3923C28.9941 26.3923 29.2675 26.6658 29.2675 27.0032Z" fill="#13293D"/>
<path d="M29.2675 15.2182C29.2675 15.5556 28.9941 15.8291 28.6567 15.8291C28.3194 15.8291 28.0459 15.5556 28.0459 15.2182C28.0459 14.8809 28.3194 14.6074 28.6567 14.6074C28.9941 14.6074 29.2675 14.8809 29.2675 15.2182Z" fill="#13293D"/>
<path d="M17.0764 15.2182C17.0764 15.5556 16.8029 15.8291 16.4656 15.8291C16.1282 15.8291 15.8547 15.5556 15.8547 15.2182C15.8547 14.8809 16.1282 14.6074 16.4656 14.6074C16.8029 14.6074 17.0764 14.8809 17.0764 15.2182Z" fill="#13293D"/>
<path d="M35.3634 27.0032C35.3634 27.3405 35.0899 27.614 34.7525 27.614C34.4152 27.614 34.1417 27.3405 34.1417 27.0032C34.1417 26.6658 34.4152 26.3923 34.7525 26.3923C35.0899 26.3923 35.3634 26.6658 35.3634 27.0032Z" fill="#13293D"/>
<path d="M35.3634 32.8622C35.3634 33.1995 35.0899 33.473 34.7525 33.473C34.4152 33.473 34.1417 33.1995 34.1417 32.8622C34.1417 32.5248 34.4152 32.2513 34.7525 32.2513C35.0899 32.2513 35.3634 32.5248 35.3634 32.8622Z" fill="#13293D"/>
<path d="M35.3634 15.2182C35.3634 15.5556 35.0899 15.8291 34.7525 15.8291C34.4152 15.8291 34.1417 15.5556 34.1417 15.2182C34.1417 14.8809 34.4152 14.6074 34.7525 14.6074C35.0899 14.6074 35.3634 14.8809 35.3634 15.2182Z" fill="#13293D"/>
<path d="M23.172 15.2182C23.172 15.5556 22.8985 15.8291 22.5611 15.8291C22.2238 15.8291 21.9503 15.5556 21.9503 15.2182C21.9503 14.8809 22.2238 14.6074 22.5611 14.6074C22.8985 14.6074 23.172 14.8809 23.172 15.2182Z" fill="#13293D"/>
<path d="M29.2675 25.0167C29.2675 25.3541 28.9941 25.6275 28.6567 25.6275C28.3194 25.6275 28.0459 25.3541 28.0459 25.0167C28.0459 24.6794 28.3194 24.4059 28.6567 24.4059C28.9941 24.4059 29.2675 24.6794 29.2675 25.0167Z" fill="#13293D"/>
<path d="M31.3059 23.0636C31.3059 23.4009 31.0324 23.6744 30.695 23.6744C30.3577 23.6744 30.0842 23.4009 30.0842 23.0636C30.0842 22.7262 30.3577 22.4528 30.695 22.4528C31.0324 22.4528 31.3059 22.7262 31.3059 23.0636Z" fill="#13293D"/>
<path d="M19.1147 23.0636C19.1147 23.4009 18.8412 23.6744 18.5039 23.6744C18.1665 23.6744 17.8931 23.4009 17.8931 23.0636C17.8931 22.7262 18.1665 22.4528 18.5039 22.4528C18.8412 22.4528 19.1147 22.7262 19.1147 23.0636Z" fill="#13293D"/>
<path d="M29.2675 13.2315C29.2675 13.5689 28.9941 13.8424 28.6567 13.8424C28.3194 13.8424 28.0459 13.5689 28.0459 13.2315C28.0459 12.8942 28.3194 12.6207 28.6567 12.6207C28.9941 12.6207 29.2675 12.8942 29.2675 13.2315Z" fill="#13293D"/>
<path d="M29.2675 11.2787C29.2675 11.616 28.9941 11.8895 28.6567 11.8895C28.3194 11.8895 28.0459 11.616 28.0459 11.2787C28.0459 10.9413 28.3194 10.6678 28.6567 10.6678C28.9941 10.6678 29.2675 10.9413 29.2675 11.2787Z" fill="#13293D"/>
<path d="M17.0764 13.2315C17.0764 13.5689 16.8029 13.8424 16.4656 13.8424C16.1282 13.8424 15.8547 13.5689 15.8547 13.2315C15.8547 12.8942 16.1282 12.6207 16.4656 12.6207C16.8029 12.6207 17.0764 12.8942 17.0764 13.2315Z" fill="#13293D"/>
<path d="M17.0764 11.2787C17.0764 11.616 16.8029 11.8895 16.4656 11.8895C16.1282 11.8895 15.8547 11.616 15.8547 11.2787C15.8547 10.9413 16.1282 10.6678 16.4656 10.6678C16.8029 10.6678 17.0764 10.9413 17.0764 11.2787Z" fill="#13293D"/>
<path d="M25.2104 23.0636C25.2104 23.4009 24.9369 23.6744 24.5996 23.6744C24.2622 23.6744 23.9888 23.4009 23.9888 23.0636C23.9888 22.7262 24.2622 22.4528 24.5996 22.4528C24.9369 22.4528 25.2104 22.7262 25.2104 23.0636Z" fill="#13293D"/>
<path d="M25.2104 26.9697C25.2104 27.3071 24.9369 27.5805 24.5996 27.5805C24.2622 27.5805 23.9888 27.3071 23.9888 26.9697C23.9888 26.6324 24.2622 26.3589 24.5996 26.3589C24.9369 26.3589 25.2104 26.6324 25.2104 26.9697Z" fill="#13293D"/>
<path d="M35.3634 25.0167C35.3634 25.3541 35.0899 25.6275 34.7525 25.6275C34.4152 25.6275 34.1417 25.3541 34.1417 25.0167C34.1417 24.6794 34.4152 24.4059 34.7525 24.4059C35.0899 24.4059 35.3634 24.6794 35.3634 25.0167Z" fill="#13293D"/>
<path d="M35.3634 30.8756C35.3634 31.2129 35.0899 31.4864 34.7525 31.4864C34.4152 31.4864 34.1417 31.2129 34.1417 30.8756C34.1417 30.5382 34.4152 30.2648 34.7525 30.2648C35.0899 30.2648 35.3634 30.5382 35.3634 30.8756Z" fill="#13293D"/>
<path d="M31.3059 21.1107C31.3059 21.448 31.0324 21.7215 30.695 21.7215C30.3577 21.7215 30.0842 21.448 30.0842 21.1107C30.0842 20.7734 30.3577 20.4999 30.695 20.4999C31.0324 20.4999 31.3059 20.7734 31.3059 21.1107Z" fill="#13293D"/>
<path d="M23.172 13.2315C23.172 13.5689 22.8985 13.8424 22.5611 13.8424C22.2238 13.8424 21.9503 13.5689 21.9503 13.2315C21.9503 12.8942 22.2238 12.6207 22.5611 12.6207C22.8985 12.6207 23.172 12.8942 23.172 13.2315Z" fill="#13293D"/>
<path d="M19.1147 21.1107C19.1147 21.448 18.8412 21.7215 18.5039 21.7215C18.1665 21.7215 17.8931 21.448 17.8931 21.1107C17.8931 20.7734 18.1665 20.4999 18.5039 20.4999C18.8412 20.4999 19.1147 20.7734 19.1147 21.1107Z" fill="#13293D"/>
<path d="M23.172 11.2787C23.172 11.616 22.8985 11.8895 22.5611 11.8895C22.2238 11.8895 21.9503 11.616 21.9503 11.2787C21.9503 10.9413 22.2238 10.6678 22.5611 10.6678C22.8985 10.6678 23.172 10.9413 23.172 11.2787Z" fill="#13293D"/>
<path d="M23.172 9.32566C23.172 9.66301 22.8985 9.93649 22.5611 9.93649C22.2238 9.93649 21.9503 9.66301 21.9503 9.32566C21.9503 8.98832 22.2238 8.71484 22.5611 8.71484C22.8985 8.71484 23.172 8.98832 23.172 9.32566Z" fill="#13293D"/>
<path d="M25.2104 21.1107C25.2104 21.448 24.9369 21.7215 24.5996 21.7215C24.2622 21.7215 23.9888 21.448 23.9888 21.1107C23.9888 20.7734 24.2622 20.4999 24.5996 20.4999C24.9369 20.4999 25.2104 20.7734 25.2104 21.1107Z" fill="#13293D"/>
<path d="M25.2104 25.0167C25.2104 25.3541 24.9369 25.6275 24.5996 25.6275C24.2622 25.6275 23.9888 25.3541 23.9888 25.0167C23.9888 24.6794 24.2622 24.4059 24.5996 24.4059C24.9369 24.4059 25.2104 24.6794 25.2104 25.0167Z" fill="#13293D"/>
<path d="M31.3059 40.7474C31.3059 41.0848 31.0324 41.3582 30.695 41.3582C30.3577 41.3582 30.0842 41.0848 30.0842 40.7474C30.0842 40.4101 30.3577 40.1366 30.695 40.1366C31.0324 40.1366 31.3059 40.4101 31.3059 40.7474Z" fill="#13293D"/>
<path d="M31.3059 19.1244C31.3059 19.4617 31.0324 19.7352 30.695 19.7352C30.3577 19.7352 30.0842 19.4617 30.0842 19.1244C30.0842 18.787 30.3577 18.5135 30.695 18.5135C31.0324 18.5135 31.3059 18.787 31.3059 19.1244Z" fill="#13293D"/>
<path d="M19.1147 19.1244C19.1147 19.4617 18.8412 19.7352 18.5039 19.7352C18.1665 19.7352 17.8931 19.4617 17.8931 19.1244C17.8931 18.787 18.1665 18.5135 18.5039 18.5135C18.8412 18.5135 19.1147 18.787 19.1147 19.1244Z" fill="#13293D"/>
<path d="M31.3059 38.7944C31.3059 39.1318 31.0324 39.4052 30.695 39.4052C30.3577 39.4052 30.0842 39.1318 30.0842 38.7944C30.0842 38.4571 30.3577 38.1836 30.695 38.1836C31.0324 38.1836 31.3059 38.4571 31.3059 38.7944Z" fill="#13293D"/>
<path d="M31.3059 36.8409C31.3059 37.1783 31.0324 37.4517 30.695 37.4517C30.3577 37.4517 30.0842 37.1783 30.0842 36.8409C30.0842 36.5036 30.3577 36.2301 30.695 36.2301C31.0324 36.2301 31.3059 36.5036 31.3059 36.8409Z" fill="#13293D"/>
<path d="M25.2104 19.1244C25.2104 19.4617 24.9369 19.7352 24.5996 19.7352C24.2622 19.7352 23.9888 19.4617 23.9888 19.1244C23.9888 18.787 24.2622 18.5135 24.5996 18.5135C24.9369 18.5135 25.2104 18.787 25.2104 19.1244Z" fill="#13293D"/>
<path d="M31.3059 34.815C31.3059 35.1524 31.0324 35.4259 30.695 35.4259C30.3577 35.4259 30.0842 35.1524 30.0842 34.815C30.0842 34.4777 30.3577 34.2042 30.695 34.2042C31.0324 34.2042 31.3059 34.4777 31.3059 34.815Z" fill="#13293D"/>
<path d="M31.3059 32.8622C31.3059 33.1995 31.0324 33.473 30.695 33.473C30.3577 33.473 30.0842 33.1995 30.0842 32.8622C30.0842 32.5248 30.3577 32.2513 30.695 32.2513C31.0324 32.2513 31.3059 32.5248 31.3059 32.8622Z" fill="#13293D"/>
<path d="M31.3059 30.9092C31.3059 31.2465 31.0324 31.52 30.695 31.52C30.3577 31.52 30.0842 31.2465 30.0842 30.9092C30.0842 30.5718 30.3577 30.2983 30.695 30.2983C31.0324 30.2983 31.3059 30.5718 31.3059 30.9092Z" fill="#13293D"/>
<path d="M31.3059 28.956C31.3059 29.2934 31.0324 29.5669 30.695 29.5669C30.3577 29.5669 30.0842 29.2934 30.0842 28.956C30.0842 28.6187 30.3577 28.3452 30.695 28.3452C31.0324 28.3452 31.3059 28.6187 31.3059 28.956Z" fill="#13293D"/>
<path d="M31.3059 17.1711C31.3059 17.5085 31.0324 17.7819 30.695 17.7819C30.3577 17.7819 30.0842 17.5085 30.0842 17.1711C30.0842 16.8338 30.3577 16.5603 30.695 16.5603C31.0324 16.5603 31.3059 16.8338 31.3059 17.1711Z" fill="#13293D"/>
<path d="M19.1147 17.1711C19.1147 17.5085 18.8412 17.7819 18.5039 17.7819C18.1665 17.7819 17.8931 17.5085 17.8931 17.1711C17.8931 16.8338 18.1665 16.5603 18.5039 16.5603C18.8412 16.5603 19.1147 16.8338 19.1147 17.1711Z" fill="#13293D"/>
<path d="M37.4013 28.956C37.4013 29.2934 37.1279 29.5669 36.7905 29.5669C36.4532 29.5669 36.1797 29.2934 36.1797 28.956C36.1797 28.6187 36.4532 28.3452 36.7905 28.3452C37.1279 28.3452 37.4013 28.6187 37.4013 28.956Z" fill="#13293D"/>
<path d="M37.4013 34.815C37.4013 35.1524 37.1279 35.4259 36.7905 35.4259C36.4532 35.4259 36.1797 35.1524 36.1797 34.815C36.1797 34.4777 36.4532 34.2042 36.7905 34.2042C37.1279 34.2042 37.4013 34.4777 37.4013 34.815Z" fill="#13293D"/>
<path d="M37.4013 23.0636C37.4013 23.4009 37.1279 23.6744 36.7905 23.6744C36.4532 23.6744 36.1797 23.4009 36.1797 23.0636C36.1797 22.7262 36.4532 22.4528 36.7905 22.4528C37.1279 22.4528 37.4013 22.7262 37.4013 23.0636Z" fill="#13293D"/>
<path d="M41.4683 23.0636C41.4683 23.4009 41.1949 23.6744 40.8575 23.6744C40.5202 23.6744 40.2467 23.4009 40.2467 23.0636C40.2467 22.7262 40.5202 22.4528 40.8575 22.4528C41.1949 22.4528 41.4683 22.7262 41.4683 23.0636Z" fill="#13293D"/>
<path d="M27.2389 23.0636C27.2389 23.4009 26.9654 23.6744 26.628 23.6744C26.2907 23.6744 26.0172 23.4009 26.0172 23.0636C26.0172 22.7262 26.2907 22.4528 26.628 22.4528C26.9654 22.4528 27.2389 22.7262 27.2389 23.0636Z" fill="#13293D"/>
<path d="M15.0479 23.0636C15.0479 23.4009 14.7745 23.6744 14.4371 23.6744C14.0998 23.6744 13.8263 23.4009 13.8263 23.0636C13.8263 22.7262 14.0998 22.4528 14.4371 22.4528C14.7745 22.4528 15.0479 22.7262 15.0479 23.0636Z" fill="#13293D"/>
<path d="M13.0189 23.0636C13.0189 23.4009 12.7454 23.6744 12.4081 23.6744C12.0707 23.6744 11.7972 23.4009 11.7972 23.0636C11.7972 22.7262 12.0707 22.4528 12.4081 22.4528C12.7454 22.4528 13.0189 22.7262 13.0189 23.0636Z" fill="#13293D"/>
<path d="M25.2104 17.1711C25.2104 17.5085 24.9369 17.7819 24.5996 17.7819C24.2622 17.7819 23.9888 17.5085 23.9888 17.1711C23.9888 16.8338 24.2622 16.5603 24.5996 16.5603C24.9369 16.5603 25.2104 16.8338 25.2104 17.1711Z" fill="#13293D"/>
<path d="M33.3346 23.0636C33.3346 23.4009 33.0611 23.6744 32.7237 23.6744C32.3864 23.6744 32.1129 23.4009 32.1129 23.0636C32.1129 22.7262 32.3864 22.4528 32.7237 22.4528C33.0611 22.4528 33.3346 22.7262 33.3346 23.0636Z" fill="#13293D"/>
<path d="M21.1434 23.0636C21.1434 23.4009 20.8699 23.6744 20.5326 23.6744C20.1952 23.6744 19.9218 23.4009 19.9218 23.0636C19.9218 22.7262 20.1952 22.4528 20.5326 22.4528C20.8699 22.4528 21.1434 22.7262 21.1434 23.0636Z" fill="#13293D"/>
<path d="M31.3059 27.0032C31.3059 27.3405 31.0324 27.614 30.695 27.614C30.3577 27.614 30.0842 27.3405 30.0842 27.0032C30.0842 26.6658 30.3577 26.3923 30.695 26.3923C31.0324 26.3923 31.3059 26.6658 31.3059 27.0032Z" fill="#13293D"/>
<path d="M27.2389 21.1107C27.2389 21.448 26.9654 21.7215 26.628 21.7215C26.2907 21.7215 26.0172 21.448 26.0172 21.1107C26.0172 20.7734 26.2907 20.4999 26.628 20.4999C26.9654 20.4999 27.2389 20.7734 27.2389 21.1107Z" fill="#13293D"/>
<path d="M15.0479 21.1107C15.0479 21.448 14.7745 21.7215 14.4371 21.7215C14.0998 21.7215 13.8263 21.448 13.8263 21.1107C13.8263 20.7734 14.0998 20.4999 14.4371 20.4999C14.7745 20.4999 15.0479 20.7734 15.0479 21.1107Z" fill="#13293D"/>
<path d="M13.0189 21.1107C13.0189 21.448 12.7454 21.7215 12.4081 21.7215C12.0707 21.7215 11.7972 21.448 11.7972 21.1107C11.7972 20.7734 12.0707 20.4999 12.4081 20.4999C12.7454 20.4999 13.0189 20.7734 13.0189 21.1107Z" fill="#13293D"/>
<path d="M33.3346 21.1107C33.3346 21.448 33.0611 21.7215 32.7237 21.7215C32.3864 21.7215 32.1129 21.448 32.1129 21.1107C32.1129 20.7734 32.3864 20.4999 32.7237 20.4999C33.0611 20.4999 33.3346 20.7734 33.3346 21.1107Z" fill="#13293D"/>
<path d="M31.3059 15.2182C31.3059 15.5556 31.0324 15.8291 30.695 15.8291C30.3577 15.8291 30.0842 15.5556 30.0842 15.2182C30.0842 14.8809 30.3577 14.6074 30.695 14.6074C31.0324 14.6074 31.3059 14.8809 31.3059 15.2182Z" fill="#13293D"/>
<path d="M21.1434 21.1107C21.1434 21.448 20.8699 21.7215 20.5326 21.7215C20.1952 21.7215 19.9218 21.448 19.9218 21.1107C19.9218 20.7734 20.1952 20.4999 20.5326 20.4999C20.8699 20.4999 21.1434 20.7734 21.1434 21.1107Z" fill="#13293D"/>
<path d="M19.1147 15.2182C19.1147 15.5556 18.8412 15.8291 18.5039 15.8291C18.1665 15.8291 17.8931 15.5556 17.8931 15.2182C17.8931 14.8809 18.1665 14.6074 18.5039 14.6074C18.8412 14.6074 19.1147 14.8809 19.1147 15.2182Z" fill="#13293D"/>
<path d="M27.2389 19.1244C27.2389 19.4617 26.9654 19.7352 26.628 19.7352C26.2907 19.7352 26.0172 19.4617 26.0172 19.1244C26.0172 18.787 26.2907 18.5135 26.628 18.5135C26.9654 18.5135 27.2389 18.787 27.2389 19.1244Z" fill="#13293D"/>
<path d="M15.0479 19.1244C15.0479 19.4617 14.7745 19.7352 14.4371 19.7352C14.0998 19.7352 13.8263 19.4617 13.8263 19.1244C13.8263 18.787 14.0998 18.5135 14.4371 18.5135C14.7745 18.5135 15.0479 18.787 15.0479 19.1244Z" fill="#13293D"/>
<path d="M13.0189 19.1244C13.0189 19.4617 12.7454 19.7352 12.4081 19.7352C12.0707 19.7352 11.7972 19.4617 11.7972 19.1244C11.7972 18.787 12.0707 18.5135 12.4081 18.5135C12.7454 18.5135 13.0189 18.787 13.0189 19.1244Z" fill="#13293D"/>
<path d="M11.0207 19.1244C11.0207 19.4617 10.7472 19.7352 10.4099 19.7352C10.0725 19.7352 9.79907 19.4617 9.79907 19.1244C9.79907 18.787 10.0725 18.5135 10.4099 18.5135C10.7472 18.5135 11.0207 18.787 11.0207 19.1244Z" fill="#13293D"/>
<path d="M37.4013 27.0032C37.4013 27.3405 37.1279 27.614 36.7905 27.614C36.4532 27.614 36.1797 27.3405 36.1797 27.0032C36.1797 26.6658 36.4532 26.3923 36.7905 26.3923C37.1279 26.3923 37.4013 26.6658 37.4013 27.0032Z" fill="#13293D"/>
<path d="M37.4013 32.8622C37.4013 33.1995 37.1279 33.473 36.7905 33.473C36.4532 33.473 36.1797 33.1995 36.1797 32.8622C36.1797 32.5248 36.4532 32.2513 36.7905 32.2513C37.1279 32.2513 37.4013 32.5248 37.4013 32.8622Z" fill="#13293D"/>
<path d="M33.3346 19.1244C33.3346 19.4617 33.0611 19.7352 32.7237 19.7352C32.3864 19.7352 32.1129 19.4617 32.1129 19.1244C32.1129 18.787 32.3864 18.5135 32.7237 18.5135C33.0611 18.5135 33.3346 18.787 33.3346 19.1244Z" fill="#13293D"/>
<path d="M21.1434 19.1244C21.1434 19.4617 20.8699 19.7352 20.5326 19.7352C20.1952 19.7352 19.9218 19.4617 19.9218 19.1244C19.9218 18.787 20.1952 18.5135 20.5326 18.5135C20.8699 18.5135 21.1434 18.787 21.1434 19.1244Z" fill="#13293D"/>
<path d="M37.4013 21.1107C37.4013 21.448 37.1279 21.7215 36.7905 21.7215C36.4532 21.7215 36.1797 21.448 36.1797 21.1107C36.1797 20.7734 36.4532 20.4999 36.7905 20.4999C37.1279 20.4999 37.4013 20.7734 37.4013 21.1107Z" fill="#13293D"/>
<path d="M41.4683 21.1107C41.4683 21.448 41.1949 21.7215 40.8575 21.7215C40.5202 21.7215 40.2467 21.448 40.2467 21.1107C40.2467 20.7734 40.5202 20.4999 40.8575 20.4999C41.1949 20.4999 41.4683 20.7734 41.4683 21.1107Z" fill="#13293D"/>
<path d="M25.2104 15.2182C25.2104 15.5556 24.9369 15.8291 24.5996 15.8291C24.2622 15.8291 23.9888 15.5556 23.9888 15.2182C23.9888 14.8809 24.2622 14.6074 24.5996 14.6074C24.9369 14.6074 25.2104 14.8809 25.2104 15.2182Z" fill="#13293D"/>
<path d="M19.1147 13.2315C19.1147 13.5689 18.8412 13.8424 18.5039 13.8424C18.1665 13.8424 17.8931 13.5689 17.8931 13.2315C17.8931 12.8942 18.1665 12.6207 18.5039 12.6207C18.8412 12.6207 19.1147 12.8942 19.1147 13.2315Z" fill="#13293D"/>
<path d="M31.3059 25.0167C31.3059 25.3541 31.0324 25.6275 30.695 25.6275C30.3577 25.6275 30.0842 25.3541 30.0842 25.0167C30.0842 24.6794 30.3577 24.4059 30.695 24.4059C31.0324 24.4059 31.3059 24.6794 31.3059 25.0167Z" fill="#13293D"/>
<path d="M31.3059 13.2315C31.3059 13.5689 31.0324 13.8424 30.695 13.8424C30.3577 13.8424 30.0842 13.5689 30.0842 13.2315C30.0842 12.8942 30.3577 12.6207 30.695 12.6207C31.0324 12.6207 31.3059 12.8942 31.3059 13.2315Z" fill="#13293D"/>
<path d="M31.3059 11.2787C31.3059 11.616 31.0324 11.8895 30.695 11.8895C30.3577 11.8895 30.0842 11.616 30.0842 11.2787C30.0842 10.9413 30.3577 10.6678 30.695 10.6678C31.0324 10.6678 31.3059 10.9413 31.3059 11.2787Z" fill="#13293D"/>
<path d="M19.1147 11.2787C19.1147 11.616 18.8412 11.8895 18.5039 11.8895C18.1665 11.8895 17.8931 11.616 17.8931 11.2787C17.8931 10.9413 18.1665 10.6678 18.5039 10.6678C18.8412 10.6678 19.1147 10.9413 19.1147 11.2787Z" fill="#13293D"/>
<path d="M19.1147 9.32566C19.1147 9.66301 18.8412 9.93649 18.5039 9.93649C18.1665 9.93649 17.8931 9.66301 17.8931 9.32566C17.8931 8.98832 18.1665 8.71484 18.5039 8.71484C18.8412 8.71484 19.1147 8.98832 19.1147 9.32566Z" fill="#13293D"/>
<path d="M25.2104 13.2315C25.2104 13.5689 24.9369 13.8424 24.5996 13.8424C24.2622 13.8424 23.9888 13.5689 23.9888 13.2315C23.9888 12.8942 24.2622 12.6207 24.5996 12.6207C24.9369 12.6207 25.2104 12.8942 25.2104 13.2315Z" fill="#13293D"/>
<path d="M37.4013 25.0167C37.4013 25.3541 37.1279 25.6275 36.7905 25.6275C36.4532 25.6275 36.1797 25.3541 36.1797 25.0167C36.1797 24.6794 36.4532 24.4059 36.7905 24.4059C37.1279 24.4059 37.4013 24.6794 37.4013 25.0167Z" fill="#13293D"/>
<path d="M37.4013 30.8756C37.4013 31.2129 37.1279 31.4864 36.7905 31.4864C36.4532 31.4864 36.1797 31.2129 36.1797 30.8756C36.1797 30.5382 36.4532 30.2648 36.7905 30.2648C37.1279 30.2648 37.4013 30.5382 37.4013 30.8756Z" fill="#13293D"/>
<path d="M37.4013 19.1244C37.4013 19.4617 37.1279 19.7352 36.7905 19.7352C36.4532 19.7352 36.1797 19.4617 36.1797 19.1244C36.1797 18.787 36.4532 18.5135 36.7905 18.5135C37.1279 18.5135 37.4013 18.787 37.4013 19.1244Z" fill="#13293D"/>
<path d="M25.2104 11.2787C25.2104 11.616 24.9369 11.8895 24.5996 11.8895C24.2622 11.8895 23.9888 11.616 23.9888 11.2787C23.9888 10.9413 24.2622 10.6678 24.5996 10.6678C24.9369 10.6678 25.2104 10.9413 25.2104 11.2787Z" fill="#13293D"/>
<path d="M27.2389 42.7008C27.2389 43.0381 26.9654 43.3116 26.628 43.3116C26.2907 43.3116 26.0172 43.0381 26.0172 42.7008C26.0172 42.3634 26.2907 42.09 26.628 42.09C26.9654 42.09 27.2389 42.3634 27.2389 42.7008Z" fill="#13293D"/>
<path d="M27.2389 40.7474C27.2389 41.0848 26.9654 41.3582 26.628 41.3582C26.2907 41.3582 26.0172 41.0848 26.0172 40.7474C26.0172 40.4101 26.2907 40.1366 26.628 40.1366C26.9654 40.1366 27.2389 40.4101 27.2389 40.7474Z" fill="#13293D"/>
<path d="M27.2389 38.7944C27.2389 39.1318 26.9654 39.4052 26.628 39.4052C26.2907 39.4052 26.0172 39.1318 26.0172 38.7944C26.0172 38.4571 26.2907 38.1836 26.628 38.1836C26.9654 38.1836 27.2389 38.4571 27.2389 38.7944Z" fill="#13293D"/>
<path d="M25.2107 38.7944C25.2107 39.1318 24.9372 39.4052 24.5998 39.4052C24.2625 39.4052 23.989 39.1318 23.989 38.7944C23.989 38.4571 24.2625 38.1836 24.5998 38.1836C24.9372 38.1836 25.2107 38.4571 25.2107 38.7944Z" fill="#13293D"/>
<path d="M27.2389 36.8409C27.2389 37.1783 26.9654 37.4517 26.628 37.4517C26.2907 37.4517 26.0172 37.1783 26.0172 36.8409C26.0172 36.5036 26.2907 36.2301 26.628 36.2301C26.9654 36.2301 27.2389 36.5036 27.2389 36.8409Z" fill="#13293D"/>
<path d="M25.2107 36.8409C25.2107 37.1783 24.9372 37.4517 24.5998 37.4517C24.2625 37.4517 23.989 37.1783 23.989 36.8409C23.989 36.5036 24.2625 36.2301 24.5998 36.2301C24.9372 36.2301 25.2107 36.5036 25.2107 36.8409Z" fill="#13293D"/>
<path d="M27.2389 34.815C27.2389 35.1524 26.9654 35.4259 26.628 35.4259C26.2907 35.4259 26.0172 35.1524 26.0172 34.815C26.0172 34.4777 26.2907 34.2042 26.628 34.2042C26.9654 34.2042 27.2389 34.4777 27.2389 34.815Z" fill="#13293D"/>
<path d="M25.2107 34.815C25.2107 35.1524 24.9372 35.4259 24.5998 35.4259C24.2625 35.4259 23.989 35.1524 23.989 34.815C23.989 34.4777 24.2625 34.2042 24.5998 34.2042C24.9372 34.2042 25.2107 34.4777 25.2107 34.815Z" fill="#13293D"/>
<path d="M27.2389 32.8622C27.2389 33.1995 26.9654 33.473 26.628 33.473C26.2907 33.473 26.0172 33.1995 26.0172 32.8622C26.0172 32.5248 26.2907 32.2513 26.628 32.2513C26.9654 32.2513 27.2389 32.5248 27.2389 32.8622Z" fill="#13293D"/>
<path d="M25.2107 32.8622C25.2107 33.1995 24.9372 33.473 24.5998 33.473C24.2625 33.473 23.989 33.1995 23.989 32.8622C23.989 32.5248 24.2625 32.2513 24.5998 32.2513C24.9372 32.2513 25.2107 32.5248 25.2107 32.8622Z" fill="#13293D"/>
<path d="M27.2389 30.9092C27.2389 31.2465 26.9654 31.52 26.628 31.52C26.2907 31.52 26.0172 31.2465 26.0172 30.9092C26.0172 30.5718 26.2907 30.2983 26.628 30.2983C26.9654 30.2983 27.2389 30.5718 27.2389 30.9092Z" fill="#13293D"/>
<path d="M25.2107 30.9092C25.2107 31.2465 24.9372 31.52 24.5998 31.52C24.2625 31.52 23.989 31.2465 23.989 30.9092C23.989 30.5718 24.2625 30.2983 24.5998 30.2983C24.9372 30.2983 25.2107 30.5718 25.2107 30.9092Z" fill="#13293D"/>
<path d="M27.2389 28.956C27.2389 29.2934 26.9654 29.5669 26.628 29.5669C26.2907 29.5669 26.0172 29.2934 26.0172 28.956C26.0172 28.6187 26.2907 28.3452 26.628 28.3452C26.9654 28.3452 27.2389 28.6187 27.2389 28.956Z" fill="#13293D"/>
<path d="M25.2107 28.956C25.2107 29.2934 24.9372 29.5669 24.5998 29.5669C24.2625 29.5669 23.989 29.2934 23.989 28.956C23.989 28.6187 24.2625 28.3452 24.5998 28.3452C24.9372 28.3452 25.2107 28.6187 25.2107 28.956Z" fill="#13293D"/>
<path d="M27.2389 17.1711C27.2389 17.5085 26.9654 17.7819 26.628 17.7819C26.2907 17.7819 26.0172 17.5085 26.0172 17.1711C26.0172 16.8338 26.2907 16.5603 26.628 16.5603C26.9654 16.5603 27.2389 16.8338 27.2389 17.1711Z" fill="#13293D"/>
<path d="M13.0189 17.1711C13.0189 17.5085 12.7454 17.7819 12.4081 17.7819C12.0707 17.7819 11.7972 17.5085 11.7972 17.1711C11.7972 16.8338 12.0707 16.5603 12.4081 16.5603C12.7454 16.5603 13.0189 16.8338 13.0189 17.1711Z" fill="#13293D"/>
<path d="M15.0479 17.1711C15.0479 17.5085 14.7745 17.7819 14.4371 17.7819C14.0998 17.7819 13.8263 17.5085 13.8263 17.1711C13.8263 16.8338 14.0998 16.5603 14.4371 16.5603C14.7745 16.5603 15.0479 16.8338 15.0479 17.1711Z" fill="#13293D"/>
<path d="M11.0207 17.1711C11.0207 17.5085 10.7472 17.7819 10.4099 17.7819C10.0725 17.7819 9.79907 17.5085 9.79907 17.1711C9.79907 16.8338 10.0725 16.5603 10.4099 16.5603C10.7472 16.5603 11.0207 16.8338 11.0207 17.1711Z" fill="#13293D"/>
<path d="M33.3346 28.956C33.3346 29.2934 33.0611 29.5669 32.7237 29.5669C32.3864 29.5669 32.1129 29.2934 32.1129 28.956C32.1129 28.6187 32.3864 28.3452 32.7237 28.3452C33.0611 28.3452 33.3346 28.6187 33.3346 28.956Z" fill="#13293D"/>
<path d="M33.3346 34.815C33.3346 35.1524 33.0611 35.4259 32.7237 35.4259C32.3864 35.4259 32.1129 35.1524 32.1129 34.815C32.1129 34.4777 32.3864 34.2042 32.7237 34.2042C33.0611 34.2042 33.3346 34.4777 33.3346 34.815Z" fill="#13293D"/>
<path d="M33.3346 38.7944C33.3346 39.1318 33.0611 39.4052 32.7237 39.4052C32.3864 39.4052 32.1129 39.1318 32.1129 38.7944C32.1129 38.4571 32.3864 38.1836 32.7237 38.1836C33.0611 38.1836 33.3346 38.4571 33.3346 38.7944Z" fill="#13293D"/>
<path d="M33.3346 17.1711C33.3346 17.5085 33.0611 17.7819 32.7237 17.7819C32.3864 17.7819 32.1129 17.5085 32.1129 17.1711C32.1129 16.8338 32.3864 16.5603 32.7237 16.5603C33.0611 16.5603 33.3346 16.8338 33.3346 17.1711Z" fill="#13293D"/>
<path d="M21.1434 17.1711C21.1434 17.5085 20.8699 17.7819 20.5326 17.7819C20.1952 17.7819 19.9218 17.5085 19.9218 17.1711C19.9218 16.8338 20.1952 16.5603 20.5326 16.5603C20.8699 16.5603 21.1434 16.8338 21.1434 17.1711Z" fill="#13293D"/>
<path d="M27.2389 27.0032C27.2389 27.3405 26.9654 27.614 26.628 27.614C26.2907 27.614 26.0172 27.3405 26.0172 27.0032C26.0172 26.6658 26.2907 26.3923 26.628 26.3923C26.9654 26.3923 27.2389 26.6658 27.2389 27.0032Z" fill="#13293D"/>
<path d="M27.2389 15.2182C27.2389 15.5556 26.9654 15.8291 26.628 15.8291C26.2907 15.8291 26.0172 15.5556 26.0172 15.2182C26.0172 14.8809 26.2907 14.6074 26.628 14.6074C26.9654 14.6074 27.2389 14.8809 27.2389 15.2182Z" fill="#13293D"/>
<path d="M15.0479 15.2182C15.0479 15.5556 14.7745 15.8291 14.4371 15.8291C14.0998 15.8291 13.8263 15.5556 13.8263 15.2182C13.8263 14.8809 14.0998 14.6074 14.4371 14.6074C14.7745 14.6074 15.0479 14.8809 15.0479 15.2182Z" fill="#13293D"/>
<path d="M13.0189 15.2182C13.0189 15.5556 12.7454 15.8291 12.4081 15.8291C12.0707 15.8291 11.7972 15.5556 11.7972 15.2182C11.7972 14.8809 12.0707 14.6074 12.4081 14.6074C12.7454 14.6074 13.0189 14.8809 13.0189 15.2182Z" fill="#13293D"/>
<path d="M33.3346 27.0032C33.3346 27.3405 33.0611 27.614 32.7237 27.614C32.3864 27.614 32.1129 27.3405 32.1129 27.0032C32.1129 26.6658 32.3864 26.3923 32.7237 26.3923C33.0611 26.3923 33.3346 26.6658 33.3346 27.0032Z" fill="#13293D"/>
<path d="M33.3346 32.8622C33.3346 33.1995 33.0611 33.473 32.7237 33.473C32.3864 33.473 32.1129 33.1995 32.1129 32.8622C32.1129 32.5248 32.3864 32.2513 32.7237 32.2513C33.0611 32.2513 33.3346 32.5248 33.3346 32.8622Z" fill="#13293D"/>
<path d="M33.3346 36.8413C33.3346 37.1786 33.0611 37.4521 32.7237 37.4521C32.3864 37.4521 32.1129 37.1786 32.1129 36.8413C32.1129 36.5039 32.3864 36.2305 32.7237 36.2305C33.0611 36.2305 33.3346 36.5039 33.3346 36.8413Z" fill="#13293D"/>
<path d="M15.0479 13.2315C15.0479 13.5689 14.7745 13.8424 14.4371 13.8424C14.0998 13.8424 13.8263 13.5689 13.8263 13.2315C13.8263 12.8942 14.0998 12.6207 14.4371 12.6207C14.7745 12.6207 15.0479 12.8942 15.0479 13.2315Z" fill="#13293D"/>
<path d="M33.3346 15.2182C33.3346 15.5556 33.0611 15.8291 32.7237 15.8291C32.3864 15.8291 32.1129 15.5556 32.1129 15.2182C32.1129 14.8809 32.3864 14.6074 32.7237 14.6074C33.0611 14.6074 33.3346 14.8809 33.3346 15.2182Z" fill="#13293D"/>
<path d="M21.1434 15.2182C21.1434 15.5556 20.8699 15.8291 20.5326 15.8291C20.1952 15.8291 19.9218 15.5556 19.9218 15.2182C19.9218 14.8809 20.1952 14.6074 20.5326 14.6074C20.8699 14.6074 21.1434 14.8809 21.1434 15.2182Z" fill="#13293D"/>
<path d="M27.2389 25.0167C27.2389 25.3541 26.9654 25.6275 26.628 25.6275C26.2907 25.6275 26.0172 25.3541 26.0172 25.0167C26.0172 24.6794 26.2907 24.4059 26.628 24.4059C26.9654 24.4059 27.2389 24.6794 27.2389 25.0167Z" fill="#13293D"/>
<path d="M27.2389 13.2315C27.2389 13.5689 26.9654 13.8424 26.628 13.8424C26.2907 13.8424 26.0172 13.5689 26.0172 13.2315C26.0172 12.8942 26.2907 12.6207 26.628 12.6207C26.9654 12.6207 27.2389 12.8942 27.2389 13.2315Z" fill="#13293D"/>
<path d="M21.1434 13.2315C21.1434 13.5689 20.8699 13.8424 20.5326 13.8424C20.1952 13.8424 19.9218 13.5689 19.9218 13.2315C19.9218 12.8942 20.1952 12.6207 20.5326 12.6207C20.8699 12.6207 21.1434 12.8942 21.1434 13.2315Z" fill="#13293D"/>
<path d="M15.0479 11.2787C15.0479 11.616 14.7745 11.8895 14.4371 11.8895C14.0998 11.8895 13.8263 11.616 13.8263 11.2787C13.8263 10.9413 14.0998 10.6678 14.4371 10.6678C14.7745 10.6678 15.0479 10.9413 15.0479 11.2787Z" fill="#13293D"/>
<path d="M13.0189 13.2315C13.0189 13.5689 12.7454 13.8424 12.4081 13.8424C12.0707 13.8424 11.7972 13.5689 11.7972 13.2315C11.7972 12.8942 12.0707 12.6207 12.4081 12.6207C12.7454 12.6207 13.0189 12.8942 13.0189 13.2315Z" fill="#13293D"/>
<path d="M33.3346 25.0167C33.3346 25.3541 33.0611 25.6275 32.7237 25.6275C32.3864 25.6275 32.1129 25.3541 32.1129 25.0167C32.1129 24.6794 32.3864 24.4059 32.7237 24.4059C33.0611 24.4059 33.3346 24.6794 33.3346 25.0167Z" fill="#13293D"/>
<path d="M33.3346 30.8756C33.3346 31.2129 33.0611 31.4864 32.7237 31.4864C32.3864 31.4864 32.1129 31.2129 32.1129 30.8756C32.1129 30.5382 32.3864 30.2648 32.7237 30.2648C33.0611 30.2648 33.3346 30.5382 33.3346 30.8756Z" fill="#13293D"/>
<path d="M33.3346 13.2315C33.3346 13.5689 33.0611 13.8424 32.7237 13.8424C32.3864 13.8424 32.1129 13.5689 32.1129 13.2315C32.1129 12.8942 32.3864 12.6207 32.7237 12.6207C33.0611 12.6207 33.3346 12.8942 33.3346 13.2315Z" fill="#13293D"/>
<path d="M33.3346 11.2787C33.3346 11.616 33.0611 11.8895 32.7237 11.8895C32.3864 11.8895 32.1129 11.616 32.1129 11.2787C32.1129 10.9413 32.3864 10.6678 32.7237 10.6678C33.0611 10.6678 33.3346 10.9413 33.3346 11.2787Z" fill="#13293D"/>
<path d="M21.1434 11.2787C21.1434 11.616 20.8699 11.8895 20.5326 11.8895C20.1952 11.8895 19.9218 11.616 19.9218 11.2787C19.9218 10.9413 20.1952 10.6678 20.5326 10.6678C20.8699 10.6678 21.1434 10.9413 21.1434 11.2787Z" fill="#13293D"/>
<path d="M21.1434 9.32566C21.1434 9.66301 20.8699 9.93649 20.5326 9.93649C20.1952 9.93649 19.9218 9.66301 19.9218 9.32566C19.9218 8.98832 20.1952 8.71484 20.5326 8.71484C20.8699 8.71484 21.1434 8.98832 21.1434 9.32566Z" fill="#13293D"/>
<path fill-rule="evenodd" clip-rule="evenodd" d="M25.6339 49.7315C39.1162 49.7315 50.0457 38.8019 50.0457 25.3197C50.0457 11.8375 39.1162 0.907937 25.6339 0.907937C12.1517 0.907937 1.22215 11.8375 1.22215 25.3197C1.22215 38.8019 12.1517 49.7315 25.6339 49.7315ZM25.6339 50.3197C39.441 50.3197 50.6339 39.1268 50.6339 25.3197C50.6339 11.5126 39.441 0.319702 25.6339 0.319702C11.8268 0.319702 0.633911 11.5126 0.633911 25.3197C0.633911 39.1268 11.8268 50.3197 25.6339 50.3197Z" fill="#13293D"/>
</svg>
