<svg width="64" height="64" viewBox="0 0 64 64" fill="none" xmlns="http://www.w3.org/2000/svg">
<g clip-path="url(#clip0_424_7192)">
<path d="M63.2187 63.2187C62.6987 63.7387 62.016 64 61.3333 64C60.6507 64 59.968 63.7387 59.448 63.2187L43.5307 47.3013C38.9307 51.0667 33.0587 53.3333 26.6667 53.3333C11.9627 53.3333 0 41.3707 0 26.6667C0 11.9627 11.9627 6.19702e-06 26.6667 6.19702e-06C31.3547 6.19702e-06 35.9653 1.23467 40.0027 3.56801C41.2773 4.30667 41.7147 5.93867 40.9733 7.21334C40.48 8.06667 39.584 8.54401 38.664 8.54401C38.2107 8.54401 37.752 8.42934 37.3307 8.18667C34.1067 6.32001 30.4187 5.33334 26.6667 5.33334C14.904 5.33334 5.33333 14.904 5.33333 26.6667C5.33333 29.7787 6.01867 32.7307 7.224 35.3973L17.3547 23.24C18.32 22.0773 19.744 21.3733 21.2533 21.304C22.752 21.2373 24.2453 21.8053 25.3173 22.88L30.4587 28.0213L53.9653 0.906673C54.9307 -0.21066 56.616 -0.325327 57.7253 0.632006C58.84 1.59467 58.9653 3.28001 58.0027 4.39467L34.5893 31.504C33.6133 32.6347 32.1973 33.3147 30.7013 33.3707C29.216 33.408 27.7467 32.8507 26.688 31.792L21.5467 26.6507L10.1787 40.184C14.0933 44.952 20.032 47.9973 26.6667 47.9973C38.4293 47.9973 48 38.4267 48 26.664C48 26.264 47.9867 25.8667 47.9653 25.472C47.888 24 49.0187 22.7467 50.488 22.6667C51.9467 22.56 53.2133 23.7173 53.2933 25.1867C53.32 25.6747 53.3333 26.168 53.3333 26.6613C53.3333 33.056 51.0667 38.928 47.3013 43.5253L63.2187 59.4427C64.2613 60.4853 64.2613 62.1707 63.2187 63.2133V63.2187Z" fill="#13293D"/>
</g>
<defs>
<clipPath id="clip0_424_7192">
<rect width="64" height="64" fill="white"/>
</clipPath>
</defs>
</svg>
