<svg width="28" height="23" viewBox="0 0 28 23" fill="none" xmlns="http://www.w3.org/2000/svg">
<path d="M27 2.81982H22V1.06982C22 0.932324 21.8875 0.819824 21.75 0.819824H20C19.8625 0.819824 19.75 0.932324 19.75 1.06982V2.81982H15.125V1.06982C15.125 0.932324 15.0125 0.819824 14.875 0.819824H13.125C12.9875 0.819824 12.875 0.932324 12.875 1.06982V2.81982H8.25V1.06982C8.25 0.932324 8.1375 0.819824 8 0.819824H6.25C6.1125 0.819824 6 0.932324 6 1.06982V2.81982H1C0.446875 2.81982 0 3.2667 0 3.81982V21.8198C0 22.3729 0.446875 22.8198 1 22.8198H27C27.5531 22.8198 28 22.3729 28 21.8198V3.81982C28 3.2667 27.5531 2.81982 27 2.81982ZM25.75 20.5698H2.25V5.06982H6V6.81982C6 6.95732 6.1125 7.06982 6.25 7.06982H8C8.1375 7.06982 8.25 6.95732 8.25 6.81982V5.06982H12.875V6.81982C12.875 6.95732 12.9875 7.06982 13.125 7.06982H14.875C15.0125 7.06982 15.125 6.95732 15.125 6.81982V5.06982H19.75V6.81982C19.75 6.95732 19.8625 7.06982 20 7.06982H21.75C21.8875 7.06982 22 6.95732 22 6.81982V5.06982H25.75V20.5698ZM11 11.3198H5.25C5.1125 11.3198 5 11.4323 5 11.5698V13.0698C5 13.2073 5.1125 13.3198 5.25 13.3198H11C11.1375 13.3198 11.25 13.2073 11.25 13.0698V11.5698C11.25 11.4323 11.1375 11.3198 11 11.3198ZM11 15.5698H5.25C5.1125 15.5698 5 15.6823 5 15.8198V17.3198C5 17.4573 5.1125 17.5698 5.25 17.5698H11C11.1375 17.5698 11.25 17.4573 11.25 17.3198V15.8198C11.25 15.6823 11.1375 15.5698 11 15.5698ZM20.6313 10.0261L17.3937 14.5167L15.7437 12.2323C15.65 12.1011 15.5 12.0261 15.3406 12.0261H13.625C13.4219 12.0261 13.3031 12.2573 13.4219 12.4229L16.9875 17.3667C17.0335 17.4306 17.0941 17.4826 17.1642 17.5185C17.2343 17.5544 17.3119 17.5731 17.3906 17.5731C17.4694 17.5731 17.547 17.5544 17.6171 17.5185C17.6872 17.4826 17.7477 17.4306 17.7938 17.3667L22.95 10.2198C23.0688 10.0542 22.95 9.82295 22.7469 9.82295H21.0312C20.875 9.81982 20.725 9.89795 20.6313 10.0261Z" fill="#13293D"/>
</svg>
