<svg width="224" height="206" viewBox="0 0 224 206" fill="none" xmlns="http://www.w3.org/2000/svg">
<g opacity="0.75">
<path d="M194.082 84L158.727 119.355" stroke="white" stroke-opacity="0.6" stroke-linecap="round"/>
<path d="M29 31.9203L1 59.9203" stroke="white" stroke-opacity="0.6" stroke-linecap="round"/>
<g filter="url(#filter0_b_481_8047)">
<circle cx="40.7776" cy="18.6936" r="18.6936" fill="#D9D9D9" fill-opacity="0.3"/>
<circle cx="40.7776" cy="18.6936" r="17.6936" stroke="white" stroke-width="2"/>
</g>
<g clip-path="url(#clip0_481_8047)">
<path d="M44.6023 8.4971C41.0284 8.4971 38.2294 10.177 38.2294 12.3208V14.519C37.8182 14.4706 37.3925 14.4451 36.9549 14.4451C33.381 14.4451 30.582 16.125 30.582 18.2688V25.0665C30.582 27.2103 33.381 28.8902 36.9549 28.8902C39.8575 28.8902 42.2494 27.7821 43.0447 26.217C43.552 26.2909 44.0703 26.341 44.6023 26.341C48.1761 26.341 50.9751 24.6612 50.9751 22.5173V12.3208C50.9751 10.177 48.1761 8.4971 44.6023 8.4971ZM44.6023 10.1965C47.2772 10.1965 49.2757 11.3181 49.2757 12.3208C49.2757 13.3235 47.2772 14.4451 44.6023 14.4451C41.9274 14.4451 39.9289 13.3235 39.9289 12.3208C39.9289 11.3181 41.9274 10.1965 44.6023 10.1965ZM36.9549 16.1445C39.6298 16.1445 41.6283 17.2661 41.6283 18.2688C41.6283 19.2714 39.6298 20.3931 36.9549 20.3931C34.28 20.3931 32.2815 19.2714 32.2815 18.2688C32.2815 17.2661 34.28 16.1445 36.9549 16.1445ZM32.2815 20.8876C33.4371 21.6311 35.088 22.0925 36.9549 22.0925C38.8217 22.0925 40.4727 21.6311 41.6283 20.8876V21.6676C41.6283 22.6703 39.6298 23.7919 36.9549 23.7919C34.28 23.7919 32.2815 22.6703 32.2815 21.6676V20.8876ZM36.9549 27.1907C34.28 27.1907 32.2815 26.0691 32.2815 25.0665V24.2864C33.4371 25.0299 35.088 25.4913 36.9549 25.4913C38.8217 25.4913 40.4727 25.0299 41.6283 24.2864V25.0665C41.6283 26.0691 39.6298 27.1907 36.9549 27.1907ZM44.6023 24.6416C44.1655 24.6416 43.7424 24.6017 43.3277 24.543V22.8606C43.7458 22.9099 44.1689 22.9422 44.6023 22.9422C46.4691 22.9422 48.1201 22.4808 49.2757 21.7373V22.5173C49.2757 23.52 47.2772 24.6416 44.6023 24.6416ZM44.6023 21.2428C44.1655 21.2428 43.7424 21.2028 43.3277 21.1442V19.4618C43.7458 19.5111 44.1689 19.5433 44.6023 19.5433C46.4691 19.5433 48.1201 19.082 49.2757 18.3385V19.1185C49.2757 20.1211 47.2772 21.2428 44.6023 21.2428ZM44.6023 17.8439C44.1417 17.8439 43.6965 17.8006 43.2614 17.736C43.0932 16.9823 42.574 16.3051 41.7991 15.7638C42.642 16.006 43.5886 16.1453 44.6023 16.1453C46.4691 16.1453 48.1201 15.684 49.2757 14.9405V15.7205C49.2757 16.7232 47.2772 17.8448 44.6023 17.8448V17.8439Z" fill="white"/>
</g>
<g filter="url(#filter1_b_481_8047)">
<circle cx="18.6936" cy="18.6936" r="18.6936" transform="matrix(-1 0 0 1 223.471 51)" fill="#D9D9D9" fill-opacity="0.3"/>
<circle cx="18.6936" cy="18.6936" r="17.6936" transform="matrix(-1 0 0 1 223.471 51)" stroke="white" stroke-width="2"/>
</g>
<g clip-path="url(#clip1_481_8047)">
<path d="M214.973 79.0405C214.973 79.5104 214.593 79.8902 214.123 79.8902H197.129C195.724 79.8902 194.58 78.7465 194.58 77.341V60.3468C194.58 59.8769 194.96 59.4971 195.43 59.4971C195.9 59.4971 196.28 59.8769 196.28 60.3468V77.341C196.28 77.8101 196.66 78.1908 197.129 78.1908H214.123C214.593 78.1908 214.973 78.5706 214.973 79.0405ZM213.274 61.1965H209.875C209.405 61.1965 209.025 61.5764 209.025 62.0462C209.025 62.5161 209.405 62.896 209.875 62.896H212.053L207.926 66.8955C207.594 67.2278 207.057 67.2278 206.725 66.8955C206.691 66.8616 205.672 66.1359 205.672 66.1359C204.674 65.1978 203.099 65.2174 202.137 66.1801L198.24 69.9307C197.902 70.2562 197.891 70.7949 198.217 71.1322C198.383 71.3055 198.606 71.3931 198.829 71.3931C199.042 71.3931 199.254 71.314 199.418 71.156L203.327 67.3935C203.659 67.0612 204.196 67.0612 204.528 67.3935C204.562 67.4275 205.581 68.1531 205.581 68.1531C206.55 69.064 208.194 69.0326 209.119 68.1064L213.275 64.0796V66.2948C213.275 66.7647 213.654 67.1445 214.124 67.1445C214.594 67.1445 214.974 66.7647 214.974 66.2948V62.896C214.974 61.9587 214.211 61.1965 213.274 61.1965ZM214.123 69.6936C213.654 69.6936 213.274 70.0735 213.274 70.5434V72.7654L210.325 69.9392C209.986 69.6146 209.449 69.6265 209.124 69.9639C208.798 70.3029 208.81 70.8408 209.148 71.1653L212.045 73.9431H209.874C209.404 73.9431 209.024 74.3229 209.024 74.7928C209.024 75.2627 209.404 75.6425 209.874 75.6425H213.273C214.21 75.6425 214.972 74.8803 214.972 73.9431V70.5442C214.972 70.0743 214.592 69.6945 214.123 69.6945L214.123 69.6936Z" fill="white"/>
</g>
<path d="M118.506 95.0058L90.8699 122.642" stroke="white" stroke-opacity="0.6" stroke-linecap="round"/>
<g filter="url(#filter2_b_481_8047)">
<circle cx="18.6936" cy="18.6936" r="18.6936" transform="matrix(-1 0 0 1 147.471 66)" fill="#D9D9D9" fill-opacity="0.3"/>
<circle cx="18.6936" cy="18.6936" r="17.6936" transform="matrix(-1 0 0 1 147.471 66)" stroke="white" stroke-width="2"/>
</g>
<g clip-path="url(#clip2_481_8047)">
<path d="M123.254 83.8439C124.894 83.8439 126.228 82.5099 126.228 80.8699C126.228 79.23 124.894 77.8959 123.254 77.8959C121.614 77.8959 120.28 79.23 120.28 80.8699C120.28 82.5099 121.614 83.8439 123.254 83.8439ZM123.254 79.5954C123.957 79.5954 124.529 80.1672 124.529 80.8699C124.529 81.5726 123.957 82.1445 123.254 82.1445C122.551 82.1445 121.979 81.5726 121.979 80.8699C121.979 80.1672 122.551 79.5954 123.254 79.5954ZM126.084 86.6599C125.822 87.0499 125.295 87.1544 124.905 86.8927C124.416 86.5647 123.845 86.3922 123.254 86.3922C121.736 86.3922 120.465 87.5283 120.298 89.0348C120.249 89.469 119.882 89.791 119.454 89.791C119.424 89.791 119.392 89.7893 119.36 89.786C118.893 89.7341 118.558 89.3135 118.609 88.8479C118.871 86.4797 120.868 84.6928 123.254 84.6928C124.184 84.6928 125.081 84.9647 125.852 85.4805C126.242 85.7422 126.346 86.2698 126.084 86.6599ZM131.751 80.4451C133.391 80.4451 134.725 79.111 134.725 77.4711C134.725 75.8311 133.391 74.4971 131.751 74.4971C130.111 74.4971 128.777 75.8311 128.777 77.4711C128.777 79.111 130.111 80.4451 131.751 80.4451ZM131.751 76.1965C132.454 76.1965 133.026 76.7684 133.026 77.4711C133.026 78.1738 132.454 78.7457 131.751 78.7457C131.048 78.7457 130.477 78.1738 130.477 77.4711C130.477 76.7684 131.048 76.1965 131.751 76.1965ZM133.026 82.9942C129.747 82.9942 127.078 85.6632 127.078 88.9422C127.078 92.2212 129.747 94.8902 133.026 94.8902C136.305 94.8902 138.974 92.2212 138.974 88.9422C138.974 85.6632 136.305 82.9942 133.026 82.9942ZM133.026 93.1907C130.683 93.1907 128.777 91.2848 128.777 88.9422C128.777 86.5995 130.683 84.6936 133.026 84.6936C135.368 84.6936 137.274 86.5995 137.274 88.9422C137.274 91.2848 135.368 93.1907 133.026 93.1907ZM135.763 87.9123C136.088 88.2505 136.077 88.7884 135.739 89.1138L133.858 90.9186C133.474 91.2976 132.965 91.4888 132.454 91.4888C131.943 91.4888 131.432 91.2976 131.041 90.9161L130.079 89.9737C129.743 89.6449 129.739 89.107 130.067 88.7722C130.395 88.4366 130.933 88.4315 131.268 88.7603L132.23 89.7018C132.352 89.8225 132.552 89.8199 132.673 89.7001L134.562 87.8868C134.899 87.5631 135.438 87.5725 135.763 87.9115V87.9123Z" fill="white"/>
</g>
<path d="M103.115 204.685L138.471 169.329" stroke="white" stroke-opacity="0.6" stroke-linecap="round"/>
<g filter="url(#filter3_b_481_8047)">
<circle cx="18.6936" cy="18.6936" r="18.6936" transform="matrix(-1 0 0 1 170.471 138)" fill="#D9D9D9" fill-opacity="0.3"/>
<circle cx="18.6936" cy="18.6936" r="17.6936" transform="matrix(-1 0 0 1 170.471 138)" stroke="white" stroke-width="2"/>
</g>
<g clip-path="url(#clip3_481_8047)">
<path d="M160.274 150.746V162.642C160.274 164.984 158.368 166.89 156.025 166.89H147.528C145.185 166.89 143.279 164.984 143.279 162.642V150.746C143.279 148.403 145.185 146.497 147.528 146.497H148.378C148.847 146.497 149.227 146.878 149.227 147.347C149.227 147.816 148.847 148.197 148.378 148.197H147.528C146.122 148.197 144.979 149.34 144.979 150.746V162.642C144.979 164.047 146.122 165.191 147.528 165.191H156.025C157.43 165.191 158.574 164.047 158.574 162.642V150.746C158.574 150.16 158.38 149.609 158.015 149.152C157.722 148.786 157.78 148.252 158.147 147.958C158.512 147.664 159.047 147.722 159.341 148.089C159.943 148.839 160.274 149.784 160.274 150.746ZM148.378 162.642H155.175C155.644 162.642 156.025 162.261 156.025 161.792C156.025 161.323 155.644 160.942 155.175 160.942H148.378C147.909 160.942 147.528 161.323 147.528 161.792C147.528 162.261 147.909 162.642 148.378 162.642ZM150.927 155.844C151.396 155.844 151.776 155.463 151.776 154.994V149.896C151.776 148.959 152.539 148.197 153.476 148.197C154.413 148.197 155.175 148.959 155.175 149.896V156.269C155.175 156.503 154.985 156.694 154.75 156.694C154.516 156.694 154.326 156.503 154.326 156.269V150.746C154.326 150.277 153.945 149.896 153.476 149.896C153.007 149.896 152.626 150.277 152.626 150.746V156.269C152.626 157.44 153.579 158.393 154.75 158.393C155.921 158.393 156.875 157.44 156.875 156.269V149.896C156.875 148.021 155.35 146.497 153.476 146.497C151.601 146.497 150.077 148.021 150.077 149.896V154.994C150.077 155.463 150.458 155.844 150.927 155.844ZM148.378 159.243H150.502C150.971 159.243 151.352 158.862 151.352 158.393C151.352 157.924 150.971 157.543 150.502 157.543H148.378C147.909 157.543 147.528 157.924 147.528 158.393C147.528 158.862 147.909 159.243 148.378 159.243Z" fill="white"/>
</g>
<path d="M43.6621 96.157L16.6621 123.157" stroke="white" stroke-opacity="0.6" stroke-linecap="round"/>
<g filter="url(#filter4_b_481_8047)">
<circle cx="18.6936" cy="18.6936" r="18.6936" transform="matrix(-1 0 0 1 75.4707 65)" fill="#D9D9D9" fill-opacity="0.3"/>
<circle cx="18.6936" cy="18.6936" r="17.6936" transform="matrix(-1 0 0 1 75.4707 65)" stroke="white" stroke-width="2"/>
</g>
<g clip-path="url(#clip4_481_8047)">
<path d="M58.5665 87.9821C58.8138 87.9558 59.0662 87.9422 59.3253 87.9422C62.4981 87.9422 64.8909 90.0333 65.2801 93.1458C65.3336 93.5758 65.6998 93.8902 66.1222 93.8902C66.1578 93.8902 66.1927 93.8876 66.2284 93.8834C66.694 93.8256 67.0245 93.4007 66.9659 92.9351C66.4731 88.9941 63.3317 86.2428 59.3253 86.2428C59.0041 86.2428 58.6897 86.2598 58.3847 86.2929C57.9182 86.3439 57.5809 86.7628 57.631 87.2293C57.6811 87.6966 58.106 88.0272 58.5674 87.983L58.5665 87.9821ZM65.6981 79.4451C65.6981 78.9752 65.3175 78.5954 64.8484 78.5954H64.4236V78.1705C64.4236 75.5942 62.3273 73.4971 59.7502 73.4971H58.9005C56.3233 73.4971 54.2271 75.5942 54.2271 78.1705V78.5954H53.8022C53.3323 78.5954 52.9525 78.9752 52.9525 79.4451C52.9525 79.915 53.3323 80.2948 53.8022 80.2948H54.2271C54.2271 83.1065 56.5136 85.3931 59.3253 85.3931C62.137 85.3931 64.4236 83.1065 64.4236 80.2948H64.8484C65.3175 80.2948 65.6981 79.915 65.6981 79.4451ZM55.9265 80.2948H62.7242C62.7242 82.1693 61.1998 83.6936 59.3253 83.6936C57.4509 83.6936 55.9265 82.1693 55.9265 80.2948ZM62.7242 78.5954H55.9265V78.1705C55.9265 76.6767 57.0379 75.4481 58.4756 75.2399V76.896C58.4756 77.3659 58.8563 77.7457 59.3253 77.7457C59.7944 77.7457 60.175 77.3659 60.175 76.896V75.2399C61.6127 75.4481 62.7242 76.6767 62.7242 78.1705V78.5954ZM47.8542 91.341H50.4034C51.1069 91.341 51.6779 91.9121 51.6779 92.6156C51.6779 93.3192 51.1069 93.8902 50.4034 93.8902H47.8542C47.1507 93.8902 46.5797 93.3192 46.5797 92.6156C46.5797 91.9121 47.1507 91.341 47.8542 91.341ZM50.4034 85.3931H47.8542C47.1507 85.3931 46.5797 84.8221 46.5797 84.1185C46.5797 83.4149 47.1507 82.8439 47.8542 82.8439H50.4034C51.1069 82.8439 51.6779 83.4149 51.6779 84.1185C51.6779 84.8221 51.1069 85.3931 50.4034 85.3931ZM54.6519 91.341H57.201C57.9054 91.341 58.4756 91.9121 58.4756 92.6156C58.4756 93.3192 57.9054 93.8902 57.201 93.8902H54.6519C53.9483 93.8902 53.3773 93.3192 53.3773 92.6156C53.3773 91.9121 53.9483 91.341 54.6519 91.341ZM52.9525 87.0925H54.6519C55.3555 87.0925 55.9265 87.6635 55.9265 88.3671C55.9265 89.0706 55.3555 89.6416 54.6519 89.6416H52.9525C52.2489 89.6416 51.6779 89.0706 51.6779 88.3671C51.6779 87.6635 52.2489 87.0925 52.9525 87.0925ZM47.8542 87.0925H48.7039C49.4075 87.0925 49.9785 87.6635 49.9785 88.3671C49.9785 89.0706 49.4075 89.6416 48.7039 89.6416H47.8542C47.1507 89.6416 46.5797 89.0706 46.5797 88.3671C46.5797 87.6635 47.1507 87.0925 47.8542 87.0925Z" fill="white"/>
</g>
</g>
<defs>
<filter id="filter0_b_481_8047" x="12.084" y="-10" width="57.3867" height="57.3873" filterUnits="userSpaceOnUse" color-interpolation-filters="sRGB">
<feFlood flood-opacity="0" result="BackgroundImageFix"/>
<feGaussianBlur in="BackgroundImageFix" stdDeviation="5"/>
<feComposite in2="SourceAlpha" operator="in" result="effect1_backgroundBlur_481_8047"/>
<feBlend mode="normal" in="SourceGraphic" in2="effect1_backgroundBlur_481_8047" result="shape"/>
</filter>
<filter id="filter1_b_481_8047" x="176.084" y="41" width="57.3867" height="57.3873" filterUnits="userSpaceOnUse" color-interpolation-filters="sRGB">
<feFlood flood-opacity="0" result="BackgroundImageFix"/>
<feGaussianBlur in="BackgroundImageFix" stdDeviation="5"/>
<feComposite in2="SourceAlpha" operator="in" result="effect1_backgroundBlur_481_8047"/>
<feBlend mode="normal" in="SourceGraphic" in2="effect1_backgroundBlur_481_8047" result="shape"/>
</filter>
<filter id="filter2_b_481_8047" x="100.084" y="56" width="57.3867" height="57.3873" filterUnits="userSpaceOnUse" color-interpolation-filters="sRGB">
<feFlood flood-opacity="0" result="BackgroundImageFix"/>
<feGaussianBlur in="BackgroundImageFix" stdDeviation="5"/>
<feComposite in2="SourceAlpha" operator="in" result="effect1_backgroundBlur_481_8047"/>
<feBlend mode="normal" in="SourceGraphic" in2="effect1_backgroundBlur_481_8047" result="shape"/>
</filter>
<filter id="filter3_b_481_8047" x="123.084" y="128" width="57.3867" height="57.3873" filterUnits="userSpaceOnUse" color-interpolation-filters="sRGB">
<feFlood flood-opacity="0" result="BackgroundImageFix"/>
<feGaussianBlur in="BackgroundImageFix" stdDeviation="5"/>
<feComposite in2="SourceAlpha" operator="in" result="effect1_backgroundBlur_481_8047"/>
<feBlend mode="normal" in="SourceGraphic" in2="effect1_backgroundBlur_481_8047" result="shape"/>
</filter>
<filter id="filter4_b_481_8047" x="28.084" y="55" width="57.3867" height="57.3873" filterUnits="userSpaceOnUse" color-interpolation-filters="sRGB">
<feFlood flood-opacity="0" result="BackgroundImageFix"/>
<feGaussianBlur in="BackgroundImageFix" stdDeviation="5"/>
<feComposite in2="SourceAlpha" operator="in" result="effect1_backgroundBlur_481_8047"/>
<feBlend mode="normal" in="SourceGraphic" in2="effect1_backgroundBlur_481_8047" result="shape"/>
</filter>
<clipPath id="clip0_481_8047">
<rect width="20.3931" height="20.3931" fill="white" transform="translate(30.582 8.4971)"/>
</clipPath>
<clipPath id="clip1_481_8047">
<rect width="20.3931" height="20.3931" fill="white" transform="translate(194.58 59.4971)"/>
</clipPath>
<clipPath id="clip2_481_8047">
<rect width="20.3931" height="20.3931" fill="white" transform="translate(118.58 74.4971)"/>
</clipPath>
<clipPath id="clip3_481_8047">
<rect width="20.3931" height="20.3931" fill="white" transform="translate(141.58 146.497)"/>
</clipPath>
<clipPath id="clip4_481_8047">
<rect width="20.3931" height="20.3931" fill="white" transform="matrix(-1 0 0 1 66.9727 73.4971)"/>
</clipPath>
</defs>
</svg>
