<svg width="150" height="36" viewBox="0 0 150 36" fill="none" xmlns="http://www.w3.org/2000/svg">
<path d="M148.527 34.6775L145.082 24.9095H144.946L141.501 34.6775H140.028L144.289 23.0738H145.739L150 34.6775H148.527Z" fill="#13293D"/>
<path d="M131.256 26.7H129.851C129.768 26.2958 129.622 25.9407 129.414 25.6348C129.21 25.3288 128.961 25.072 128.667 24.8642C128.376 24.6527 128.053 24.494 127.698 24.3883C127.343 24.2825 126.972 24.2296 126.587 24.2296C125.885 24.2296 125.248 24.4072 124.678 24.7622C124.111 25.1173 123.66 25.6404 123.324 26.3317C122.991 27.0229 122.825 27.8709 122.825 28.8756C122.825 29.8804 122.991 30.7284 123.324 31.4196C123.66 32.1108 124.111 32.634 124.678 32.9891C125.248 33.3441 125.885 33.5216 126.587 33.5216C126.972 33.5216 127.343 33.4688 127.698 33.363C128.053 33.2572 128.376 33.1005 128.667 32.8927C128.961 32.6812 129.21 32.4225 129.414 32.1165C129.622 31.8068 129.768 31.4517 129.851 31.0513H131.256C131.15 31.6444 130.957 32.1751 130.678 32.6434C130.398 33.1118 130.051 33.5103 129.635 33.8389C129.22 34.1638 128.753 34.4112 128.236 34.5812C127.722 34.7511 127.173 34.8361 126.587 34.8361C125.598 34.8361 124.717 34.5944 123.947 34.1109C123.176 33.6274 122.57 32.9399 122.128 32.0485C121.686 31.1571 121.465 30.0995 121.465 28.8756C121.465 27.6518 121.686 26.5942 122.128 25.7028C122.57 24.8113 123.176 24.1239 123.947 23.6404C124.717 23.1569 125.598 22.9152 126.587 22.9152C127.173 22.9152 127.722 23.0002 128.236 23.1701C128.753 23.3401 129.22 23.5894 129.635 23.918C130.051 24.2429 130.398 24.6395 130.678 25.1078C130.957 25.5724 131.15 26.1031 131.256 26.7Z" fill="#13293D"/>
<path d="M109.608 23.0739V34.6776H108.203V23.0739H109.608Z" fill="#13293D"/>
<path d="M88.5039 34.6776V23.0739H92.4247C93.3312 23.0739 94.0753 23.2288 94.657 23.5385C95.2387 23.8445 95.6693 24.2656 95.9488 24.802C96.2283 25.3384 96.3681 25.9484 96.3681 26.6321C96.3681 27.3157 96.2283 27.922 95.9488 28.4508C95.6693 28.9796 95.2406 29.3951 94.6627 29.6973C94.0848 29.9957 93.3463 30.1449 92.4473 30.1449H89.2745V28.8757H92.402C93.0215 28.8757 93.5201 28.7851 93.8978 28.6038C94.2793 28.4225 94.555 28.1656 94.725 27.8332C94.8988 27.4971 94.9856 27.0967 94.9856 26.6321C94.9856 26.1675 94.8988 25.7614 94.725 25.4139C94.5513 25.0664 94.2736 24.7982 93.8921 24.6094C93.5106 24.4167 93.0064 24.3204 92.3793 24.3204H89.909V34.6776H88.5039ZM93.9658 29.465L96.8214 34.6776H95.1896L92.3793 29.465H93.9658Z" fill="#13293D"/>
<path d="M69.6463 34.6776V23.0739H76.604V24.3204H71.0514V28.2412H76.0827V29.4877H71.0514V34.6776H69.6463Z" fill="#13293D"/>
<path d="M56.8725 34.6775L53.4276 24.9095H53.2916L49.8468 34.6775H48.3737L52.6344 23.0738H54.0849L58.3456 34.6775H56.8725Z" fill="#13293D"/>
<path d="M149.623 10.0199C149.623 11.935 149.255 13.5583 148.518 14.8897C147.782 16.2212 146.785 17.2326 145.527 17.9238C144.275 18.615 142.869 18.9607 141.311 18.9607C139.748 18.9607 138.34 18.6122 137.087 17.9153C135.835 17.2184 134.841 16.2071 134.104 14.8812C133.374 13.5498 133.008 11.9293 133.008 10.0199C133.008 8.10488 133.374 6.48161 134.104 5.15014C134.841 3.81866 135.835 2.80731 137.087 2.11607C138.34 1.42484 139.748 1.07922 141.311 1.07922C142.869 1.07922 144.275 1.42484 145.527 2.11607C146.785 2.80731 147.782 3.81866 148.518 5.15014C149.255 6.48161 149.623 8.10488 149.623 10.0199ZM145.323 10.0199C145.323 8.88677 145.161 7.92924 144.838 7.14735C144.521 6.36546 144.062 5.77338 143.462 5.37111C142.867 4.96883 142.15 4.76769 141.311 4.76769C140.478 4.76769 139.762 4.96883 139.161 5.37111C138.561 5.77338 138.099 6.36546 137.776 7.14735C137.459 7.92924 137.3 8.88677 137.3 10.0199C137.3 11.1531 137.459 12.1106 137.776 12.8925C138.099 13.6744 138.561 14.2665 139.161 14.6688C139.762 15.071 140.478 15.2722 141.311 15.2722C142.15 15.2722 142.867 15.071 143.462 14.6688C144.062 14.2665 144.521 13.6744 144.838 12.8925C145.161 12.1106 145.323 11.1531 145.323 10.0199Z" fill="#13293D"/>
<path d="M124.276 7.00287C124.18 6.64592 124.038 6.33147 123.851 6.05951C123.664 5.78188 123.435 5.54675 123.163 5.35411C122.891 5.16147 122.579 5.01699 122.228 4.92067C121.877 4.81869 121.491 4.76769 121.072 4.76769C120.228 4.76769 119.497 4.97166 118.879 5.37961C118.268 5.78755 117.794 6.38246 117.46 7.16435C117.126 7.94057 116.959 8.88394 116.959 9.99444C116.959 11.1106 117.12 12.0625 117.443 12.85C117.766 13.6376 118.234 14.2382 118.845 14.6518C119.457 15.0654 120.2 15.2722 121.072 15.2722C121.843 15.2722 122.494 15.1475 123.027 14.8982C123.565 14.6433 123.973 14.2835 124.251 13.8189C124.528 13.3543 124.667 12.8075 124.667 12.1786L125.449 12.2721H121.217V9.20406H128.721V11.5072C128.721 13.0653 128.39 14.3996 127.727 15.5101C127.069 16.6207 126.163 17.4734 125.007 18.0683C123.857 18.6632 122.534 18.9607 121.038 18.9607C119.378 18.9607 117.919 18.6009 116.661 17.8813C115.403 17.1617 114.423 16.1362 113.721 14.8048C113.018 13.4676 112.667 11.8812 112.667 10.0454C112.667 8.61764 112.879 7.35132 113.304 6.24648C113.729 5.13597 114.321 4.19544 115.08 3.42489C115.845 2.65433 116.729 2.07075 117.732 1.67414C118.741 1.27753 119.826 1.07922 120.987 1.07922C121.996 1.07922 122.933 1.2237 123.8 1.51266C124.673 1.80162 125.443 2.20956 126.112 2.73649C126.786 3.26341 127.333 3.88949 127.752 4.61472C128.171 5.33994 128.432 6.136 128.534 7.00287H124.276Z" fill="#13293D"/>
<path d="M96.9788 18.7226H92.4575L98.3301 1.31714H103.931L109.803 18.7226H105.282L101.194 5.70251H101.058L96.9788 18.7226ZM96.3754 11.8726H105.826V15.0682H96.3754V11.8726Z" fill="#13293D"/>
<path d="M89.7917 10.0199C89.7917 11.935 89.4234 13.5583 88.6868 14.8897C87.9503 16.2212 86.9531 17.2326 85.6953 17.9238C84.4431 18.615 83.038 18.9607 81.4799 18.9607C79.9161 18.9607 78.5081 18.6122 77.256 17.9153C76.0038 17.2184 75.0095 16.2071 74.2729 14.8812C73.542 13.5498 73.1766 11.9293 73.1766 10.0199C73.1766 8.10488 73.542 6.48161 74.2729 5.15014C75.0095 3.81866 76.0038 2.80731 77.256 2.11607C78.5081 1.42484 79.9161 1.07922 81.4799 1.07922C83.038 1.07922 84.4431 1.42484 85.6953 2.11607C86.9531 2.80731 87.9503 3.81866 88.6868 5.15014C89.4234 6.48161 89.7917 8.10488 89.7917 10.0199ZM85.4913 10.0199C85.4913 8.88677 85.3298 7.92924 85.0069 7.14735C84.6896 6.36546 84.2307 5.77338 83.6301 5.37111C83.0352 4.96883 82.3184 4.76769 81.4799 4.76769C80.647 4.76769 79.9303 4.96883 79.3297 5.37111C78.7291 5.77338 78.2673 6.36546 77.9444 7.14735C77.6271 7.92924 77.4685 8.88677 77.4685 10.0199C77.4685 11.1531 77.6271 12.1106 77.9444 12.8925C78.2673 13.6744 78.7291 14.2665 79.3297 14.6688C79.9303 15.071 80.647 15.2722 81.4799 15.2722C82.3184 15.2722 83.0352 15.071 83.6301 14.6688C84.2307 14.2665 84.6896 13.6744 85.0069 12.8925C85.3298 12.1106 85.4913 11.1531 85.4913 10.0199Z" fill="#13293D"/>
<path d="M49.2833 1.31714H54.493L58.9124 12.0936H59.1163L63.5357 1.31714H68.7455V18.7226H64.6491V8.03117H64.5046L60.3232 18.6122H57.7056L53.5242 7.97168H53.3797V18.7226H49.2833V1.31714Z" fill="#13293D"/>
<line x1="38.574" y1="1.2287" x2="38.574" y2="35.1924" stroke="#13293D" stroke-width="0.5"/>
<ellipse cx="18.7241" cy="34.5528" rx="0.606494" ry="0.606495" fill="#13293D"/>
<circle cx="18.7241" cy="32.6133" r="0.606494" fill="#13293D"/>
<circle cx="18.7241" cy="30.6742" r="0.606494" fill="#13293D"/>
<circle cx="18.7241" cy="28.7344" r="0.606494" fill="#13293D"/>
<circle cx="18.7241" cy="26.723" r="0.606494" fill="#13293D"/>
<circle cx="18.7241" cy="24.7839" r="0.606494" fill="#13293D"/>
<circle cx="18.7241" cy="22.8448" r="0.606494" fill="#13293D"/>
<circle cx="18.7241" cy="20.9055" r="0.606494" fill="#13293D"/>
<circle cx="18.7241" cy="15.0548" r="0.606494" fill="#13293D"/>
<circle cx="6.61931" cy="15.0548" r="0.606494" fill="#13293D"/>
<ellipse cx="18.7241" cy="9.20403" rx="0.606494" ry="0.606494" fill="#13293D"/>
<circle cx="24.7766" cy="15.0548" r="0.606494" fill="#13293D"/>
<circle cx="28.8147" cy="15.0548" r="0.606494" fill="#13293D"/>
<ellipse cx="28.8147" cy="16.9941" rx="0.606494" ry="0.606494" fill="#13293D"/>
<circle cx="12.6716" cy="15.0548" r="0.606494" fill="#13293D"/>
<circle cx="12.6716" cy="18.9332" r="0.606494" fill="#13293D"/>
<ellipse cx="6.61931" cy="9.20403" rx="0.606494" ry="0.606494" fill="#13293D"/>
<circle cx="18.7241" cy="13.1156" r="0.606494" fill="#13293D"/>
<circle cx="6.61931" cy="13.1156" r="0.606494" fill="#13293D"/>
<circle cx="24.7766" cy="20.9055" r="0.606494" fill="#13293D"/>
<circle cx="24.7766" cy="26.723" r="0.606494" fill="#13293D"/>
<circle cx="24.7766" cy="13.1156" r="0.606494" fill="#13293D"/>
<circle cx="28.8147" cy="13.1156" r="0.606494" fill="#13293D"/>
<circle cx="12.6716" cy="13.1156" r="0.606494" fill="#13293D"/>
<ellipse cx="12.6716" cy="16.9941" rx="0.606494" ry="0.606494" fill="#13293D"/>
<ellipse cx="24.7766" cy="9.20403" rx="0.606494" ry="0.606494" fill="#13293D"/>
<circle cx="18.7241" cy="11.1434" r="0.606494" fill="#13293D"/>
<circle cx="6.61931" cy="11.1434" r="0.606494" fill="#13293D"/>
<ellipse cx="12.6716" cy="9.20403" rx="0.606494" ry="0.606494" fill="#13293D"/>
<circle cx="24.7766" cy="11.1434" r="0.606494" fill="#13293D"/>
<circle cx="12.6716" cy="11.1434" r="0.606494" fill="#13293D"/>
<circle cx="18.7241" cy="18.9664" r="0.606494" fill="#13293D"/>
<circle cx="18.7241" cy="7.26491" r="0.606494" fill="#13293D"/>
<circle cx="6.61931" cy="7.26491" r="0.606494" fill="#13293D"/>
<circle cx="24.7766" cy="18.9664" r="0.606494" fill="#13293D"/>
<circle cx="24.7766" cy="24.7839" r="0.606494" fill="#13293D"/>
<circle cx="24.7766" cy="7.26491" r="0.606494" fill="#13293D"/>
<circle cx="12.6716" cy="7.26491" r="0.606494" fill="#13293D"/>
<ellipse cx="18.7241" cy="16.9941" rx="0.606494" ry="0.606494" fill="#13293D"/>
<circle cx="20.7479" cy="15.0548" r="0.606494" fill="#13293D"/>
<circle cx="8.64312" cy="15.0548" r="0.606494" fill="#13293D"/>
<ellipse cx="18.7241" cy="5.29241" rx="0.606494" ry="0.606494" fill="#13293D"/>
<ellipse cx="18.7241" cy="3.35329" rx="0.606494" ry="0.606494" fill="#13293D"/>
<ellipse cx="6.61931" cy="5.29241" rx="0.606494" ry="0.606494" fill="#13293D"/>
<ellipse cx="6.61931" cy="3.35329" rx="0.606494" ry="0.606494" fill="#13293D"/>
<circle cx="14.6956" cy="15.0548" r="0.606494" fill="#13293D"/>
<circle cx="14.6956" cy="18.9332" r="0.606494" fill="#13293D"/>
<ellipse cx="24.7766" cy="16.9941" rx="0.606494" ry="0.606494" fill="#13293D"/>
<circle cx="24.7766" cy="22.8115" r="0.606494" fill="#13293D"/>
<circle cx="20.7479" cy="13.1156" r="0.606494" fill="#13293D"/>
<ellipse cx="12.6716" cy="5.29241" rx="0.606494" ry="0.606494" fill="#13293D"/>
<circle cx="8.64312" cy="13.1156" r="0.606494" fill="#13293D"/>
<ellipse cx="12.6716" cy="3.35329" rx="0.606494" ry="0.606494" fill="#13293D"/>
<ellipse cx="12.6716" cy="1.41417" rx="0.606494" ry="0.606494" fill="#13293D"/>
<circle cx="14.6956" cy="13.1156" r="0.606494" fill="#13293D"/>
<ellipse cx="14.6956" cy="16.9941" rx="0.606494" ry="0.606494" fill="#13293D"/>
<circle cx="20.7479" cy="32.6133" r="0.606494" fill="#13293D"/>
<circle cx="20.7479" cy="11.1434" r="0.606494" fill="#13293D"/>
<circle cx="8.64312" cy="11.1434" r="0.606494" fill="#13293D"/>
<circle cx="20.7479" cy="30.6742" r="0.606494" fill="#13293D"/>
<circle cx="20.7479" cy="28.7344" r="0.606494" fill="#13293D"/>
<circle cx="14.6956" cy="11.1434" r="0.606494" fill="#13293D"/>
<circle cx="20.7479" cy="26.723" r="0.606494" fill="#13293D"/>
<circle cx="20.7479" cy="24.7839" r="0.606494" fill="#13293D"/>
<circle cx="20.7479" cy="22.8448" r="0.606494" fill="#13293D"/>
<circle cx="20.7479" cy="20.9055" r="0.606494" fill="#13293D"/>
<ellipse cx="20.7479" cy="9.20403" rx="0.606494" ry="0.606494" fill="#13293D"/>
<ellipse cx="8.64312" cy="9.20403" rx="0.606494" ry="0.606494" fill="#13293D"/>
<circle cx="26.8002" cy="20.9055" r="0.606494" fill="#13293D"/>
<circle cx="26.8002" cy="26.723" r="0.606494" fill="#13293D"/>
<circle cx="26.8002" cy="15.0548" r="0.606494" fill="#13293D"/>
<circle cx="30.8384" cy="15.0548" r="0.606494" fill="#13293D"/>
<circle cx="16.7098" cy="15.0548" r="0.606494" fill="#13293D"/>
<ellipse cx="4.60515" cy="15.0548" rx="0.606494" ry="0.606494" fill="#13293D"/>
<ellipse cx="2.59062" cy="15.0548" rx="0.606494" ry="0.606494" fill="#13293D"/>
<ellipse cx="14.6956" cy="9.20403" rx="0.606494" ry="0.606494" fill="#13293D"/>
<circle cx="22.7623" cy="15.0548" r="0.606494" fill="#13293D"/>
<circle cx="10.6575" cy="15.0548" r="0.606494" fill="#13293D"/>
<circle cx="20.7479" cy="18.9664" r="0.606494" fill="#13293D"/>
<circle cx="16.7098" cy="13.1156" r="0.606494" fill="#13293D"/>
<ellipse cx="4.60515" cy="13.1156" rx="0.606494" ry="0.606494" fill="#13293D"/>
<ellipse cx="2.59062" cy="13.1156" rx="0.606494" ry="0.606494" fill="#13293D"/>
<circle cx="22.7623" cy="13.1156" r="0.606494" fill="#13293D"/>
<circle cx="20.7479" cy="7.26491" r="0.606494" fill="#13293D"/>
<circle cx="10.6575" cy="13.1156" r="0.606494" fill="#13293D"/>
<circle cx="8.64312" cy="7.26491" r="0.606494" fill="#13293D"/>
<circle cx="16.7098" cy="11.1434" r="0.606494" fill="#13293D"/>
<ellipse cx="4.60515" cy="11.1434" rx="0.606494" ry="0.606494" fill="#13293D"/>
<ellipse cx="2.59062" cy="11.1434" rx="0.606494" ry="0.606494" fill="#13293D"/>
<ellipse cx="0.606494" cy="11.1434" rx="0.606494" ry="0.606494" fill="#13293D"/>
<circle cx="26.8002" cy="18.9664" r="0.606494" fill="#13293D"/>
<circle cx="26.8002" cy="24.7839" r="0.606494" fill="#13293D"/>
<circle cx="22.7623" cy="11.1434" r="0.606494" fill="#13293D"/>
<circle cx="10.6575" cy="11.1434" r="0.606494" fill="#13293D"/>
<circle cx="26.8002" cy="13.1156" r="0.606494" fill="#13293D"/>
<circle cx="30.8384" cy="13.1156" r="0.606494" fill="#13293D"/>
<circle cx="14.6956" cy="7.26491" r="0.606494" fill="#13293D"/>
<ellipse cx="8.64312" cy="5.29241" rx="0.606494" ry="0.606494" fill="#13293D"/>
<ellipse cx="20.7479" cy="16.9941" rx="0.606494" ry="0.606494" fill="#13293D"/>
<ellipse cx="20.7479" cy="5.29241" rx="0.606494" ry="0.606494" fill="#13293D"/>
<ellipse cx="20.7479" cy="3.35329" rx="0.606494" ry="0.606494" fill="#13293D"/>
<ellipse cx="8.64312" cy="3.35329" rx="0.606494" ry="0.606494" fill="#13293D"/>
<ellipse cx="8.64312" cy="1.41417" rx="0.606494" ry="0.606494" fill="#13293D"/>
<ellipse cx="14.6956" cy="5.29241" rx="0.606494" ry="0.606494" fill="#13293D"/>
<ellipse cx="26.8002" cy="16.9941" rx="0.606494" ry="0.606494" fill="#13293D"/>
<circle cx="26.8002" cy="22.8115" r="0.606494" fill="#13293D"/>
<circle cx="26.8002" cy="11.1434" r="0.606494" fill="#13293D"/>
<ellipse cx="14.6956" cy="3.35329" rx="0.606494" ry="0.606494" fill="#13293D"/>
<ellipse cx="16.7098" cy="34.5528" rx="0.606494" ry="0.606495" fill="#13293D"/>
<circle cx="16.7098" cy="32.6133" r="0.606494" fill="#13293D"/>
<circle cx="16.7098" cy="30.6742" r="0.606494" fill="#13293D"/>
<circle cx="14.6958" cy="30.6742" r="0.606494" fill="#13293D"/>
<circle cx="16.7098" cy="28.7344" r="0.606494" fill="#13293D"/>
<circle cx="14.6958" cy="28.7344" r="0.606494" fill="#13293D"/>
<circle cx="16.7098" cy="26.723" r="0.606494" fill="#13293D"/>
<circle cx="14.6958" cy="26.723" r="0.606494" fill="#13293D"/>
<circle cx="16.7098" cy="24.7839" r="0.606494" fill="#13293D"/>
<circle cx="14.6958" cy="24.7839" r="0.606494" fill="#13293D"/>
<circle cx="16.7098" cy="22.8448" r="0.606494" fill="#13293D"/>
<circle cx="14.6958" cy="22.8448" r="0.606494" fill="#13293D"/>
<circle cx="16.7098" cy="20.9055" r="0.606494" fill="#13293D"/>
<circle cx="14.6958" cy="20.9055" r="0.606494" fill="#13293D"/>
<ellipse cx="16.7098" cy="9.20403" rx="0.606494" ry="0.606494" fill="#13293D"/>
<ellipse cx="2.59062" cy="9.20403" rx="0.606494" ry="0.606494" fill="#13293D"/>
<ellipse cx="4.60515" cy="9.20403" rx="0.606494" ry="0.606494" fill="#13293D"/>
<ellipse cx="0.606494" cy="9.20403" rx="0.606494" ry="0.606494" fill="#13293D"/>
<circle cx="22.7623" cy="20.9055" r="0.606494" fill="#13293D"/>
<circle cx="22.7623" cy="26.723" r="0.606494" fill="#13293D"/>
<circle cx="22.7623" cy="30.6742" r="0.606494" fill="#13293D"/>
<ellipse cx="22.7623" cy="9.20403" rx="0.606494" ry="0.606494" fill="#13293D"/>
<ellipse cx="10.6575" cy="9.20403" rx="0.606494" ry="0.606494" fill="#13293D"/>
<circle cx="16.7098" cy="18.9664" r="0.606494" fill="#13293D"/>
<circle cx="16.7098" cy="7.26491" r="0.606494" fill="#13293D"/>
<ellipse cx="4.60515" cy="7.26491" rx="0.606494" ry="0.606494" fill="#13293D"/>
<ellipse cx="2.59062" cy="7.26491" rx="0.606494" ry="0.606494" fill="#13293D"/>
<circle cx="22.7623" cy="18.9664" r="0.606494" fill="#13293D"/>
<circle cx="22.7623" cy="24.7839" r="0.606494" fill="#13293D"/>
<circle cx="22.7623" cy="28.7348" r="0.606494" fill="#13293D"/>
<circle cx="4.60515" cy="5.29241" r="0.606494" fill="#13293D"/>
<circle cx="22.7623" cy="7.26491" r="0.606494" fill="#13293D"/>
<circle cx="10.6575" cy="7.26491" r="0.606494" fill="#13293D"/>
<ellipse cx="16.7098" cy="16.9941" rx="0.606494" ry="0.606494" fill="#13293D"/>
<ellipse cx="16.7098" cy="5.29241" rx="0.606494" ry="0.606494" fill="#13293D"/>
<ellipse cx="10.6575" cy="5.29241" rx="0.606494" ry="0.606494" fill="#13293D"/>
<ellipse cx="4.60515" cy="3.35329" rx="0.606494" ry="0.606494" fill="#13293D"/>
<circle cx="2.59062" cy="5.29241" r="0.606494" fill="#13293D"/>
<ellipse cx="22.7623" cy="16.9941" rx="0.606494" ry="0.606494" fill="#13293D"/>
<circle cx="22.7623" cy="22.8115" r="0.606494" fill="#13293D"/>
<ellipse cx="22.7623" cy="5.29241" rx="0.606494" ry="0.606494" fill="#13293D"/>
<ellipse cx="22.7623" cy="3.35329" rx="0.606494" ry="0.606494" fill="#13293D"/>
<ellipse cx="10.6575" cy="3.35329" rx="0.606494" ry="0.606494" fill="#13293D"/>
<ellipse cx="10.6575" cy="1.41417" rx="0.606494" ry="0.606494" fill="#13293D"/>
</svg>
