<svg width="64" height="64" viewBox="0 0 64 64" fill="none" xmlns="http://www.w3.org/2000/svg">
<g clip-path="url(#clip0_423_7188)">
<path d="M56 29.3333H42.6667C38.256 29.3333 34.6667 32.9227 34.6667 37.3333V56C34.6667 60.4107 38.256 64 42.6667 64H56C60.4107 64 64 60.4107 64 56V37.3333C64 32.9227 60.4107 29.3333 56 29.3333ZM58.6667 56C58.6667 57.4693 57.472 58.6667 56 58.6667H42.6667C41.1947 58.6667 40 57.4693 40 56V37.3333C40 35.864 41.1947 34.6667 42.6667 34.6667H56C57.472 34.6667 58.6667 35.864 58.6667 37.3333V56ZM56 42.6587C56 44.1307 54.808 45.3253 53.3333 45.3253H45.3333C43.8587 45.3253 42.6667 44.1307 42.6667 42.6587C42.6667 41.1867 43.8587 39.992 45.3333 39.992H53.3333C54.808 39.992 56 41.1867 56 42.6587ZM56 50.6667C56 52.1387 54.808 53.3333 53.3333 53.3333H45.3333C43.8587 53.3333 42.6667 52.1387 42.6667 50.6667C42.6667 49.1947 43.8587 48 45.3333 48H53.3333C54.808 48 56 49.1947 56 50.6667ZM24 32C32.824 32 40 24.824 40 16C40 7.176 32.824 0 24 0C15.176 0 8 7.176 8 16C8 24.824 15.176 32 24 32ZM24 5.33333C29.8827 5.33333 34.6667 10.1173 34.6667 16C34.6667 21.8827 29.8827 26.6667 24 26.6667C18.1173 26.6667 13.3333 21.8827 13.3333 16C13.3333 10.1173 18.1173 5.33333 24 5.33333ZM29.3333 40C29.3333 41.472 28.1413 42.6667 26.6667 42.6667H24C13.7093 42.6667 5.33333 51.04 5.33333 61.3333C5.33333 62.8053 4.14133 64 2.66667 64C1.192 64 0 62.8053 0 61.3333C0 48.1013 10.7653 37.3333 24 37.3333H26.6667C28.1413 37.3333 29.3333 38.528 29.3333 40Z" fill="#06789C"/>
</g>
<defs>
<clipPath id="clip0_423_7188">
<rect width="64" height="64" fill="white"/>
</clipPath>
</defs>
</svg>
